<svg width="127" height="591" viewBox="0 0 127 591" fill="none" xmlns="http://www.w3.org/2000/svg">
<path d="M48.9226 584.65C54.0997 590.617 62.1382 590.975 64.1902 590.994C72.9441 591.069 74.1113 585.685 82.7522 584.556C94.3864 583.031 97.6998 591.954 109.259 590.354C115.189 589.525 122.644 585.949 125.411 579.267C129.402 569.61 121.175 559.351 119.425 557.149C113.231 549.412 104.948 546.984 101.766 546.231C97.4927 451.434 91.9956 354.831 85.1243 256.458C80.512 190.575 75.4102 125.576 69.8567 61.4628C74.789 57.3215 84.8796 47.5709 88.0799 32.1543C89.1906 26.8272 90.6778 19.5989 87.1574 12.6341C82.2251 2.90219 69.612 -2.06734 60.3309 0.812695C51.0499 3.67391 51.3888 12.4458 42.2396 14.027C35.0482 15.2505 32.6197 10.1869 23.0751 11.6552C17.0133 12.6152 12.721 15.4575 10.9891 16.7375C6.11326 20.314 2.06574 25.6789 0.672649 30.4413C-2.50888 41.2837 5.73677 56.9639 22.4162 65.717C19.0653 126.725 18.5947 194.434 23.1316 267.677C29.6829 373.335 45.2517 467.246 63.5125 547.059C61.3099 547.718 53.6102 550.334 48.8285 558.127C44.348 565.431 42.4467 577.158 48.9039 584.613L48.9226 584.65ZM49.6945 277.804C46.4 174.744 53.6102 76.8982 57.9401 76.917C60.5004 76.917 61.7429 111.233 66.4493 211.921C78.8742 477.505 83.8253 527.84 80.4179 528.179C75.2032 528.687 53.9867 411.698 49.6945 277.804Z" fill="url(#paint0_linear_228_62)"/>
<defs>
<linearGradient id="paint0_linear_228_62" x1="5.22244" y1="33.3234" x2="164.199" y2="714.818" gradientUnits="userSpaceOnUse">
<stop stop-color="#97C6D5"/>
<stop offset="0.32" stop-color="#95C4D3"/>
<stop offset="0.44" stop-color="#90BDCC"/>
<stop offset="0.52" stop-color="#88B2C0"/>
<stop offset="0.59" stop-color="#7CA3AF"/>
<stop offset="0.65" stop-color="#6C8E99"/>
<stop offset="0.7" stop-color="#59757E"/>
<stop offset="0.75" stop-color="#42575E"/>
<stop offset="0.79" stop-color="#273438"/>
<stop offset="0.83" stop-color="#0A0E0F"/>
<stop offset="0.84"/>
</linearGradient>
</defs>
</svg>
