<svg width="489" height="484" viewBox="0 0 489 484" fill="none" xmlns="http://www.w3.org/2000/svg">
<g clip-path="url(#clip0_153_542)">
<path d="M332.661 225.331C335.235 208.386 331.828 203.465 332.366 185.843C332.809 171.276 335.224 171.497 342.192 136.173C347.051 111.512 349.449 99.0049 348.007 90.3575C343.582 63.9733 322.818 44.5364 318.537 46.6824C315.906 47.9944 320.842 56.7898 318.794 72.6466C316.887 87.3981 309.877 100.953 305.799 100.39C301.093 99.7425 304.839 80.8935 292.549 71.1912C287.725 67.3727 279.828 64.5043 276.168 67.3845C271.463 71.0984 277.79 81.1393 278.835 103.831C279.249 112.875 278.264 111.567 278.362 126.901C278.474 144.708 279.868 154.715 278.26 155.055C275.785 155.586 274.288 131.522 256.903 119.601C248.775 114.029 237.734 111.48 234.719 115.09C230.018 120.732 246.441 139.527 241.516 144.468C239.609 146.388 236.615 144.102 229.109 145.725C226.425 146.304 218.169 148.084 217.236 152.169C216.253 156.471 224.408 158.805 231.541 169.035C236.386 175.978 235.448 178.935 239.674 187.64C243.177 194.847 247.584 200.563 256.379 209.512C286.593 240.281 307.955 262.039 320.887 256.078C328.543 252.545 330.355 240.616 332.678 225.319L332.661 225.331Z" fill="url(#paint0_linear_153_542)"/>
<path d="M213.398 308.401C192.995 304.107 188.436 298.076 167.92 291.136C150.967 285.401 150.414 288.285 107.344 281.182C77.2713 276.216 62.0395 273.624 52.5354 268.251C23.5484 251.831 7.98871 219.529 11.8708 215.497C14.2633 213.019 22.7655 222.489 41.7501 226.921C59.4027 231.043 77.3671 228.762 78.0729 223.811C78.8859 218.101 55.894 214.343 48.7501 196.001C45.9481 188.801 45.2436 178.449 49.7794 175.463C55.6173 171.624 65.1215 183.226 90.9637 194.161C101.266 198.52 100.083 196.814 117.756 203.509C138.266 211.277 149.359 217.173 150.284 215.461C151.715 212.83 124.43 200.789 116.426 175.618C112.685 163.847 113.4 150.01 118.564 148.088C126.622 145.074 142.889 172.09 150.229 168.528C153.072 167.153 151.425 162.707 155.783 154.741C157.339 151.89 162.123 143.125 167.146 143.801C172.434 144.505 172.44 154.924 181.885 167.548C188.297 176.124 192.021 176.286 200.667 184.905C207.827 192.04 212.966 199.568 220.39 213.564C245.905 261.633 263.952 295.609 252.794 307.97C246.186 315.301 231.815 312.279 213.39 308.407L213.398 308.401Z" fill="url(#paint1_linear_153_542)"/>
<path d="M384.461 265.175C373.869 284.192 366.642 286.449 353.472 304.538C342.592 319.491 345.181 321.182 324.671 362.086C310.357 390.642 303.033 405.08 294.861 412.616C269.941 435.593 234.091 438.733 231.475 433.214C229.869 429.82 241.632 424.897 251.908 407.384C261.472 391.093 265.008 371.972 260.495 369.331C255.295 366.274 244.382 388.122 224.564 388.179C216.777 388.204 206.661 384.869 205.251 379.094C203.434 371.671 217.564 366.567 236.242 344.646C243.682 335.902 241.685 336.434 253.704 321.134C267.658 303.364 276.825 294.427 275.493 292.817C273.433 290.344 253.231 313.291 226.611 311.566C214.163 310.756 201.152 304.613 200.958 298.615C200.639 289.258 231.655 283.336 230.58 274.5C230.166 271.081 225.397 271.005 219.161 263.473C216.927 260.778 210.071 252.498 212.313 247.658C214.669 242.568 224.628 246.647 239.708 242.001C249.947 238.85 251.297 235.145 262.286 229.74C271.386 225.265 280.226 223.012 295.966 220.95C350.059 213.885 388.299 208.887 396.579 225.043C401.48 234.609 394.017 248.002 384.452 265.181L384.461 265.175Z" fill="url(#paint2_linear_153_542)"/>
<path d="M97.7764 316.882C98.4615 312.526 99.1465 308.169 99.8377 303.821C113.502 310.868 124.294 311.294 130.694 310.794C165.215 308.113 188.184 269.663 199.524 250.684C210.029 233.095 206.09 233.347 214.496 221.382C240.728 184.007 283.458 175.372 286.353 174.834C288.955 174.354 312.059 177.555 358.262 183.986C369.791 185.591 384.603 187.817 387.345 196.463C388.589 200.389 386.967 204.484 385.271 207.462C377.726 204.866 366.988 201.454 353.891 198.217C327.405 191.659 314.166 188.385 298.054 189.453C292.022 189.856 256.936 192.752 233.5 218.58C221.774 231.493 225.511 236.317 213.624 257.763C209.702 264.836 173.882 327.669 126.48 325.953C119.856 325.715 109.809 324.094 97.7764 316.882Z" fill="url(#paint3_linear_153_542)"/>
<path d="M185.3 375.658C182.435 371.966 179.564 368.265 176.699 364.573C190.381 356.216 193.763 348.646 194.353 343.303C194.569 341.306 193.778 336.885 192.188 328.05C189.759 314.532 188.798 312.563 189.495 308.455C189.998 305.466 191.372 301.421 198.555 293.443C210.654 280.015 223.486 272.955 224.72 272.294C235.261 266.608 260.804 252.82 291.745 260.284C298.913 262.02 311.799 266.194 325.264 277.414C323.811 280.228 322.343 283.041 320.89 285.856C315.05 280.456 302.863 270.859 285.003 267.75C259.796 263.368 240.423 274.879 230.438 280.818C216.646 289.024 211.158 297.243 208.909 301.148C206.713 304.964 203.972 309.844 203.758 316.471C203.566 322.363 205.528 324.701 206.669 332.755C207.591 339.243 207.409 345.398 206.859 348.91C204.705 362.875 191.195 372.112 185.294 375.649L185.3 375.658Z" fill="url(#paint4_linear_153_542)"/>
<path d="M345.216 375.181C340.63 376.082 336.034 376.984 331.448 377.884C330.131 361.905 324.889 355.482 320.381 352.554C318.694 351.463 314.389 350.183 305.781 347.633C292.614 343.728 290.423 343.702 287.067 341.233C284.623 339.44 281.627 336.395 277.728 326.393C271.17 309.55 270.629 294.914 270.593 293.514C270.251 281.542 269.413 252.528 289.986 228.241C294.758 222.618 304.278 212.982 320.352 205.996C322.213 208.559 324.066 211.134 325.928 213.697C318.479 216.488 304.43 223.062 293.626 237.619C278.383 258.169 279.96 280.648 280.779 292.237C281.911 308.245 286.786 316.842 289.264 320.606C291.686 324.283 294.813 328.924 300.638 332.093C305.815 334.913 308.785 334.211 316.493 336.811C322.703 338.903 328.12 341.832 331.01 343.901C342.517 352.101 344.697 368.321 345.205 375.183L345.216 375.181Z" fill="url(#paint5_linear_153_542)"/>
<path d="M297.63 231.47C314.481 254.755 296.65 284.892 285.162 297.44C281.204 301.759 263.051 321.023 239.309 315.89C220.477 311.81 209.225 294.768 205.682 280.602C200.035 258.01 211.859 234.075 231.062 222.686C251.602 210.511 283.021 211.285 297.623 231.462L297.63 231.47Z" fill="url(#paint6_linear_153_542)"/>
<path d="M238.356 262.965C236.891 261.207 234.667 258.544 233.942 254.641C233.223 250.8 234.287 247.572 235.004 245.894C235.779 245.629 240.813 244.007 245.349 246.876C247.416 248.185 248.574 249.908 249.156 250.98C249.666 249.62 250.776 247.221 253.114 245.078C256.734 241.75 260.903 241.23 262.326 241.113C263.461 242.699 264.871 245.075 265.821 248.185C267.249 252.827 266.976 256.846 266.647 259.131C268.073 258.665 271.396 257.792 275.274 258.897C281.932 260.784 284.639 266.855 285.012 267.744C283.526 269.411 280.264 272.608 275.045 274.455C270.808 275.951 267.107 275.927 264.978 275.743C268.424 278.101 270.269 282.093 269.719 286.031C269.059 290.743 265.269 293.176 264.721 293.522C263.647 293.462 258.499 293.057 254.655 288.761C251.894 285.675 251.289 282.24 251.124 280.892C249.89 281.785 245.682 284.548 239.783 284.209C235.071 283.926 231.773 281.808 230.451 280.835C230.613 279.173 231.163 275.983 233.328 272.692C236.092 268.503 239.84 266.653 241.379 266.003C240.569 265.328 239.489 264.334 238.354 262.98L238.356 262.965Z" fill="url(#paint7_radial_153_542)"/>
<path d="M226.121 239.029C220.778 238.249 213.488 237.181 205.756 232.263C192.564 223.857 182.681 207.124 184.345 188.726C186.174 168.51 200.971 157.029 204.979 154.167C208.135 151.909 221.004 142.711 237.963 145.057C260.153 148.135 271.035 168.456 274.139 174.24C277.31 180.169 284.033 192.716 280.387 208.25C279.699 211.179 276.784 222.118 266.763 230.516C252.09 242.808 233.567 240.1 226.138 239.017L226.121 239.029Z" fill="url(#paint8_linear_153_542)"/>
<path d="M331.378 230.249C314.474 225.56 305.883 211.393 303.674 207.753C301.406 204.015 294.221 191.738 296.327 175.054C296.736 171.811 299.086 155.838 313.162 143.772C315.803 141.513 332.629 127.586 354.491 132.702C374.677 137.424 383.658 154.745 385.558 158.402C386.761 160.723 398.68 184.721 385.265 207.453C374.295 226.036 351.144 235.725 331.372 230.241L331.378 230.249Z" fill="url(#paint9_linear_153_542)"/>
<path d="M314.998 218.257C323.025 200.698 338.885 194.085 342.233 192.768C365.411 183.703 385.888 195.857 388.24 197.308C390.244 198.548 414.069 213.761 413.017 238.396C412.28 255.672 399.764 266.763 391.29 274.273C382.72 281.865 368.124 294.797 349.784 292.163C327.852 289.015 314.532 265.645 311.493 248.064C310.784 243.97 308.838 231.724 314.998 218.257Z" fill="url(#paint10_linear_153_542)"/>
<path d="M395.138 255.067C395.94 255.748 397.155 256.786 397.549 258.702C397.942 260.579 397.355 262.42 396.967 263.396C396.545 263.649 393.804 265.273 391.316 264.486C390.194 264.128 389.562 263.414 389.24 262.952C388.963 263.744 388.357 265.148 387.081 266.625C385.101 268.907 382.826 269.821 382.049 270.1C381.428 269.455 380.665 268.437 380.138 266.978C379.354 264.792 379.507 262.673 379.692 261.433C378.907 261.897 377.103 262.856 374.976 262.889C371.345 262.944 369.865 260.205 369.653 259.805C370.471 258.711 372.245 256.553 375.098 254.783C377.412 253.353 379.429 252.795 380.595 252.555C378.719 251.867 377.707 250.077 378.011 247.952C378.368 245.403 380.435 243.56 380.746 243.296C381.334 243.166 384.141 242.577 386.238 244.212C387.745 245.386 388.079 247.075 388.165 247.746C388.838 247.092 391.138 245.002 394.362 244.278C396.936 243.689 398.737 244.291 399.451 244.584C399.361 245.473 399.059 247.21 397.881 249.247C396.373 251.844 394.326 253.377 393.486 253.959C393.928 254.179 394.521 254.535 395.132 255.059L395.138 255.067Z" fill="url(#paint11_radial_153_542)"/>
<path d="M327.213 339.706C313.227 337.126 300.849 326.536 296.751 312.012C291.717 294.164 301.876 279.888 303.318 277.93C312.699 265.195 328.443 259.863 342.472 261.755C358.207 263.868 375.252 275.533 377.944 293.507C381.171 315.031 361.438 329.711 358.846 331.574C355.662 333.866 343.39 342.696 327.199 339.704L327.213 339.706Z" fill="url(#paint12_linear_153_542)"/>
<path d="M234.247 204.771C233.064 206.322 231.275 208.672 228.168 210.02C225.117 211.34 222.232 211.073 220.708 210.799C220.346 210.211 218.048 206.341 219.571 202.021C220.266 200.063 221.482 198.772 222.258 198.082C221.03 197.915 218.833 197.459 216.614 195.924C213.171 193.552 211.949 190.19 211.583 189.026C212.694 187.784 214.395 186.167 216.791 184.78C220.372 182.716 223.768 182.176 225.728 182.019C225.067 180.927 223.72 178.337 223.899 174.9C224.21 169.013 228.744 165.615 229.404 165.138C231.072 166.054 234.342 168.153 236.854 172.14C238.896 175.371 239.567 178.451 239.815 180.253C241.122 176.952 244.092 174.649 247.468 174.367C251.505 174.019 254.242 176.697 254.634 177.096C254.787 178.002 255.418 182.345 252.578 186.357C250.539 189.235 247.798 190.395 246.705 190.788C247.672 191.644 250.773 194.612 251.597 199.576C252.252 203.542 251.112 206.683 250.556 207.961C249.138 208.138 246.387 208.288 243.251 207.122C239.248 205.63 237.012 202.86 236.174 201.703C235.77 202.498 235.146 203.593 234.236 204.792L234.247 204.771Z" fill="url(#paint13_radial_153_542)"/>
<path d="M350.324 313.393C349.397 314.604 347.997 316.441 345.556 317.5C343.163 318.536 340.897 318.323 339.714 318.112C339.43 317.648 337.623 314.618 338.823 311.24C339.37 309.7 340.316 308.693 340.926 308.149C339.96 308.024 338.241 307.659 336.507 306.456C333.811 304.598 332.853 301.958 332.566 301.046C333.432 300.072 334.771 298.807 336.649 297.718C339.456 296.098 342.115 295.68 343.651 295.559C343.132 294.699 342.076 292.671 342.217 289.982C342.464 285.377 346.007 282.709 346.531 282.33C347.835 283.046 350.394 284.695 352.365 287.811C353.967 290.345 354.491 292.759 354.69 294.172C355.711 291.58 358.04 289.779 360.683 289.552C363.849 289.281 365.984 291.378 366.3 291.69C366.417 292.403 366.923 295.807 364.686 298.945C363.084 301.198 360.944 302.103 360.088 302.414C360.846 303.088 363.274 305.411 363.92 309.293C364.429 312.399 363.541 314.856 363.102 315.869C361.996 316.013 359.841 316.132 357.382 315.209C354.246 314.042 352.495 311.873 351.841 310.969C351.524 311.598 351.035 312.454 350.318 313.384L350.324 313.393Z" fill="url(#paint14_radial_153_542)"/>
<path d="M322.932 187.703C321.886 189.052 320.296 191.09 317.705 192.386C315.157 193.652 312.842 193.603 311.623 193.468C311.362 193 309.732 189.946 311.229 186.302C311.906 184.64 312.969 183.511 313.635 182.9C312.651 182.84 310.899 182.59 309.2 181.452C306.553 179.699 305.77 176.997 305.54 176.057C306.506 174.972 307.977 173.534 310.007 172.245C313.026 170.33 315.795 169.69 317.395 169.446C316.922 168.579 315.99 166.525 316.342 163.683C316.944 158.821 320.807 155.742 321.37 155.309C322.66 155.971 325.185 157.502 326.981 160.642C328.448 163.184 328.801 165.683 328.9 167.155C330.157 164.354 332.693 162.287 335.438 161.845C338.727 161.318 340.78 163.371 341.075 163.672C341.143 164.408 341.403 167.952 338.866 171.422C337.039 173.916 334.762 175.023 333.862 175.417C334.593 176.072 336.92 178.326 337.294 182.366C337.597 185.596 336.482 188.256 335.956 189.345C334.799 189.578 332.571 189.864 330.098 189.08C326.957 188.085 325.3 185.938 324.698 185.035C324.327 185.715 323.758 186.655 322.949 187.691L322.932 187.703Z" fill="url(#paint15_radial_153_542)"/>
</g>
<defs>
<linearGradient id="paint0_linear_153_542" x1="345.86" y1="292.133" x2="257.694" y2="52.9872" gradientUnits="userSpaceOnUse">
<stop stop-color="#8CC63F"/>
<stop offset="0.1" stop-color="#88C03D"/>
<stop offset="0.22" stop-color="#7EB238"/>
<stop offset="0.35" stop-color="#6C9930"/>
<stop offset="0.49" stop-color="#547726"/>
<stop offset="0.64" stop-color="#354C18"/>
<stop offset="0.78" stop-color="#101707"/>
<stop offset="0.84"/>
</linearGradient>
<linearGradient id="paint1_linear_153_542" x1="288.553" y1="348.11" x2="39.5041" y2="150.362" gradientUnits="userSpaceOnUse">
<stop stop-color="#8CC63F"/>
<stop offset="0.1" stop-color="#88C03D"/>
<stop offset="0.22" stop-color="#7EB238"/>
<stop offset="0.35" stop-color="#6C9930"/>
<stop offset="0.49" stop-color="#547726"/>
<stop offset="0.64" stop-color="#354C18"/>
<stop offset="0.78" stop-color="#101707"/>
<stop offset="0.84"/>
</linearGradient>
<linearGradient id="paint2_linear_153_542" x1="449.949" y1="209.031" x2="175.371" y2="378.994" gradientUnits="userSpaceOnUse">
<stop stop-color="#8CC63F"/>
<stop offset="0.1" stop-color="#88C03D"/>
<stop offset="0.22" stop-color="#7EB238"/>
<stop offset="0.35" stop-color="#6C9930"/>
<stop offset="0.49" stop-color="#547726"/>
<stop offset="0.64" stop-color="#354C18"/>
<stop offset="0.78" stop-color="#101707"/>
<stop offset="0.84"/>
</linearGradient>
<linearGradient id="paint3_linear_153_542" x1="425.748" y1="131.362" x2="85.4117" y2="342.004" gradientUnits="userSpaceOnUse">
<stop stop-color="#934800"/>
<stop offset="0.12" stop-color="#8D4500"/>
<stop offset="0.26" stop-color="#7F3E00"/>
<stop offset="0.42" stop-color="#663200"/>
<stop offset="0.58" stop-color="#452100"/>
<stop offset="0.75" stop-color="#190C00"/>
<stop offset="0.84"/>
</linearGradient>
<linearGradient id="paint4_linear_153_542" x1="344.257" y1="237.723" x2="155.132" y2="354.773" gradientUnits="userSpaceOnUse">
<stop stop-color="#934800"/>
<stop offset="0.12" stop-color="#8D4500"/>
<stop offset="0.26" stop-color="#7F3E00"/>
<stop offset="0.42" stop-color="#663200"/>
<stop offset="0.58" stop-color="#452100"/>
<stop offset="0.75" stop-color="#190C00"/>
<stop offset="0.84"/>
</linearGradient>
<linearGradient id="paint5_linear_153_542" x1="293.431" y1="171.192" x2="313.001" y2="392.746" gradientUnits="userSpaceOnUse">
<stop stop-color="#934800"/>
<stop offset="0.12" stop-color="#8D4500"/>
<stop offset="0.26" stop-color="#7F3E00"/>
<stop offset="0.42" stop-color="#663200"/>
<stop offset="0.58" stop-color="#452100"/>
<stop offset="0.75" stop-color="#190C00"/>
<stop offset="0.84"/>
</linearGradient>
<linearGradient id="paint6_linear_153_542" x1="226.519" y1="187.881" x2="263.578" y2="286.216" gradientUnits="userSpaceOnUse">
<stop/>
<stop offset="0.23" stop-color="#272521"/>
<stop offset="1" stop-color="#CC1210"/>
</linearGradient>
<radialGradient id="paint7_radial_153_542" cx="0" cy="0" r="1" gradientUnits="userSpaceOnUse" gradientTransform="translate(253.009 267.444) rotate(-35.8939) scale(27.0959 27.0751)">
<stop stop-color="#BD1412"/>
<stop offset="0.05" stop-color="#AD1513"/>
<stop offset="0.2" stop-color="#841A17"/>
<stop offset="0.35" stop-color="#621E1B"/>
<stop offset="0.5" stop-color="#48211D"/>
<stop offset="0.66" stop-color="#35231F"/>
<stop offset="0.82" stop-color="#2A2420"/>
<stop offset="1" stop-color="#272521"/>
</radialGradient>
<linearGradient id="paint8_linear_153_542" x1="134.619" y1="179.401" x2="267.014" y2="196.708" gradientUnits="userSpaceOnUse">
<stop/>
<stop offset="0.23" stop-color="#272521"/>
<stop offset="1" stop-color="#CC1210"/>
</linearGradient>
<linearGradient id="paint9_linear_153_542" x1="247.211" y1="169.135" x2="376.959" y2="186.091" gradientUnits="userSpaceOnUse">
<stop/>
<stop offset="0.23" stop-color="#272521"/>
<stop offset="1" stop-color="#CC1210"/>
</linearGradient>
<linearGradient id="paint10_linear_153_542" x1="258.543" y1="228.074" x2="396.44" y2="246.1" gradientUnits="userSpaceOnUse">
<stop/>
<stop offset="0.23" stop-color="#272521"/>
<stop offset="1" stop-color="#CC1210"/>
</linearGradient>
<radialGradient id="paint11_radial_153_542" cx="0" cy="0" r="1" gradientUnits="userSpaceOnUse" gradientTransform="translate(386.549 254.418) rotate(135.852) scale(16.6934 12.5108)">
<stop stop-color="#BD1412"/>
<stop offset="0.05" stop-color="#AD1513"/>
<stop offset="0.2" stop-color="#841A17"/>
<stop offset="0.35" stop-color="#621E1B"/>
<stop offset="0.5" stop-color="#48211D"/>
<stop offset="0.66" stop-color="#35231F"/>
<stop offset="0.82" stop-color="#2A2420"/>
<stop offset="1" stop-color="#272521"/>
</radialGradient>
<linearGradient id="paint12_linear_153_542" x1="253.808" y1="290.223" x2="365.053" y2="304.767" gradientUnits="userSpaceOnUse">
<stop/>
<stop offset="0.23" stop-color="#272521"/>
<stop offset="1" stop-color="#CC1210"/>
</linearGradient>
<radialGradient id="paint13_radial_153_542" cx="0" cy="0" r="1" gradientUnits="userSpaceOnUse" gradientTransform="translate(235.215 191.75) rotate(-138.743) scale(23.0517 23.0677)">
<stop stop-color="#BD1412"/>
<stop offset="0.05" stop-color="#AD1513"/>
<stop offset="0.2" stop-color="#841A17"/>
<stop offset="0.35" stop-color="#621E1B"/>
<stop offset="0.5" stop-color="#48211D"/>
<stop offset="0.66" stop-color="#35231F"/>
<stop offset="0.82" stop-color="#2A2420"/>
<stop offset="1" stop-color="#272521"/>
</radialGradient>
<radialGradient id="paint14_radial_153_542" cx="0" cy="0" r="1" gradientUnits="userSpaceOnUse" gradientTransform="translate(351.075 303.192) rotate(-138.743) scale(18.0577 18.0702)">
<stop stop-color="#BD1412"/>
<stop offset="0.05" stop-color="#AD1513"/>
<stop offset="0.2" stop-color="#841A17"/>
<stop offset="0.35" stop-color="#621E1B"/>
<stop offset="0.5" stop-color="#48211D"/>
<stop offset="0.66" stop-color="#35231F"/>
<stop offset="0.82" stop-color="#2A2420"/>
<stop offset="1" stop-color="#272521"/>
</radialGradient>
<radialGradient id="paint15_radial_153_542" cx="0" cy="0" r="1" gradientUnits="userSpaceOnUse" gradientTransform="translate(324.901 177.296) rotate(-138.743) scale(17.3677 20.209)">
<stop stop-color="#BD1412"/>
<stop offset="0.05" stop-color="#AD1513"/>
<stop offset="0.2" stop-color="#841A17"/>
<stop offset="0.35" stop-color="#621E1B"/>
<stop offset="0.5" stop-color="#48211D"/>
<stop offset="0.66" stop-color="#35231F"/>
<stop offset="0.82" stop-color="#2A2420"/>
<stop offset="1" stop-color="#272521"/>
</radialGradient>
<clipPath id="clip0_153_542">
<rect width="359.174" height="336.369" fill="white" transform="matrix(0.810104 -0.586286 0.586284 0.810105 0.747925 210.948)"/>
</clipPath>
</defs>
</svg>
