<svg width="270" height="292" viewBox="0 0 270 292" fill="none" xmlns="http://www.w3.org/2000/svg">
<path d="M152.163 210.366C163.054 210.378 165.895 207.773 177.055 206.444C186.28 205.344 186.327 206.881 209.155 207.913C225.091 208.63 233.168 208.953 238.512 207.23C254.815 201.955 265.469 187.081 263.783 184.596C262.752 183.069 257.585 186.999 247.422 187.214C237.967 187.413 228.871 184.294 228.91 181.681C228.954 178.665 241.137 179.233 246.305 170.6C248.341 167.211 249.538 161.981 247.437 159.956C244.729 157.354 238.885 162.276 224.649 165.078C218.975 166.194 219.724 165.452 210.057 166.964C198.83 168.719 192.625 170.542 192.285 169.564C191.759 168.06 206.825 164.844 212.999 152.802C215.884 147.172 216.637 140 214.125 138.448C210.201 136.031 199.616 148.119 196.117 145.495C194.757 144.48 195.967 142.384 194.362 137.825C193.788 136.195 192.026 131.18 189.376 130.981C186.585 130.771 185.745 136.112 179.843 141.557C175.838 145.256 173.9 144.947 168.736 148.423C164.46 151.304 161.195 154.612 156.23 160.98C139.16 182.859 127.088 198.329 131.851 205.883C134.674 210.355 142.34 210.364 152.172 210.375L152.163 210.366Z" fill="url(#paint0_linear_230_179)"/>
<path d="M108.673 144.853C104.427 134.823 100.919 133.227 95.3335 123.474C90.7152 115.413 92.1111 114.769 84.1385 93.3537C78.5696 78.4054 75.7089 70.845 72.034 66.5995C60.8066 53.6546 42.9513 49.6625 41.3233 52.1854C40.3206 53.7322 45.9582 56.9513 50.1286 66.222C54.007 74.8473 54.6916 84.4382 52.2713 85.424C49.4782 86.5623 45.2392 75.1267 35.2726 73.7436C31.357 73.1952 26.0756 74.1369 25.0329 76.8623C23.6961 80.3719 30.5109 83.8278 38.6553 95.8358C41.8999 100.622 40.9242 100.223 46.0948 108.529C52.0984 118.177 56.2014 123.177 55.4343 123.871C54.2559 124.943 45.4064 112.333 31.909 111.357C25.5995 110.902 18.7033 113.013 18.2573 115.931C17.5659 120.488 32.8301 125.506 31.7825 129.752C31.3793 131.401 28.9771 131.106 25.4088 134.366C24.1319 135.531 20.2053 139.114 21.0579 141.63C21.9554 144.281 27.1996 142.967 34.5188 146.27C39.4887 148.511 39.9617 150.416 45.1802 153.811C49.5031 156.62 53.8237 158.332 61.6258 160.413C88.4372 167.573 107.395 172.638 112.486 165.301C115.499 160.955 112.51 153.895 108.678 144.841L108.673 144.853Z" fill="url(#paint1_linear_230_179)"/>
<path d="M90.5066 143.353C91.6335 130.138 95.0855 126.705 97.8738 113.169C100.178 101.984 98.3157 101.909 99.4585 74.1985C100.26 54.8492 100.715 45.0416 103.368 38.5666C111.481 18.8154 130.655 5.99104 133.5 8.0467C135.249 9.31422 129.933 15.5478 128.608 27.8855C127.376 39.3575 130.208 50.4195 133.386 50.3943C137.052 50.3644 137.641 35.5747 148.66 29.3545C152.985 26.9143 159.462 25.4926 161.698 28.0575C164.572 31.3593 157.989 38.4236 153.093 55.6817C151.141 62.5616 152.126 61.6579 149.272 73.3858C145.961 86.9968 143.101 94.5188 144.252 94.9375C146.024 95.587 151.505 77.3183 166.766 69.9122C173.903 66.4503 182.688 65.5897 184.302 68.6497C186.827 73.4234 171.044 86.1917 173.86 90.4624C174.948 92.1169 177.625 90.663 182.989 92.6448C184.908 93.3519 190.809 95.5263 190.772 98.7436C190.738 102.129 184.164 103.119 176.932 110.243C172.018 115.08 172.205 117.433 167.437 123.677C163.49 128.846 159.139 132.785 150.884 138.77C122.534 159.336 102.496 173.88 93.8318 168.044C88.6945 164.589 89.4873 155.281 90.502 143.348L90.5066 143.353Z" fill="url(#paint2_linear_230_179)"/>
<path d="M131.04 246.655C118.22 241.804 116.236 237.481 103.802 230.925C93.5247 225.509 92.6584 227.294 65.2608 218.288C46.1342 212.004 36.457 208.772 31.0688 204.354C14.6403 190.884 9.87983 168.675 13.1593 166.51C15.1759 165.181 19.1938 172.1 31.0403 176.894C42.0599 181.357 54.3984 181.768 55.7148 178.685C57.2405 175.131 42.61 170.347 41.0373 157.911C40.4182 153.025 41.7382 146.359 45.2723 144.927C49.8148 143.084 54.1308 151.472 69.4093 161.123C75.5026 164.967 75.0121 163.763 85.5974 169.861C97.8904 176.941 104.24 181.85 105.152 180.861C106.553 179.334 90.509 168.822 89.5335 151.947C89.0798 144.056 91.9471 135.307 95.7166 134.618C101.595 133.532 107.736 152.443 113.227 150.932C115.353 150.349 115.031 147.348 119.299 142.72C120.827 141.063 125.52 135.975 128.747 136.925C132.141 137.923 130.339 144.56 134.44 153.588C137.221 159.718 139.664 160.215 143.926 166.602C147.455 171.892 149.562 177.228 152.083 186.915C160.733 220.205 166.851 243.739 157.3 250.465C151.644 254.447 142.615 251.029 131.035 246.65L131.04 246.655Z" fill="url(#paint3_linear_230_179)"/>
<path d="M76.1922 71.5696C78.9941 71.5875 81.7959 71.6054 84.5929 71.6279C81.2061 80.8731 81.7739 87.6885 82.5856 91.6587C86.9531 113.077 112.993 123.859 125.846 129.183C137.758 134.113 137.294 131.664 145.495 135.809C171.109 148.741 179.87 174.75 180.434 176.517C180.938 178.104 180.71 192.912 180.233 222.526C180.115 229.915 179.858 239.425 174.616 241.964C172.235 243.116 169.526 242.486 167.516 241.703C168.569 236.721 169.889 229.657 170.916 221.128C173 203.88 174.04 195.259 172.117 185.245C171.395 181.496 166.848 159.744 148.736 147.475C139.679 141.335 136.925 144.137 122.473 138.704C117.706 136.911 75.2861 120.368 72.6944 90.4478C72.3308 86.2665 72.575 79.8056 76.1922 71.5696V71.5696Z" fill="url(#paint4_linear_230_179)"/>
<path d="M45.8939 132.077C48.0011 129.929 50.1133 127.776 52.2205 125.628C58.5544 133.427 63.5927 134.834 67.0093 134.699C68.286 134.646 71.0139 133.731 76.4653 131.896C84.8059 129.093 85.9734 128.303 88.6194 128.352C90.5443 128.385 93.2028 128.865 98.7932 132.62C108.203 138.945 113.652 146.332 114.165 147.045C118.57 153.125 129.249 167.855 126.939 187.986C126.399 192.65 124.764 201.135 118.729 210.649C116.841 210.003 114.952 209.348 113.064 208.702C116.018 204.525 121.128 195.966 121.705 184.46C122.516 168.221 113.751 157.148 109.23 151.441C102.984 143.559 97.3726 140.891 94.7345 139.849C92.1565 138.831 88.8655 137.572 84.6673 138.065C80.9351 138.502 79.6123 139.955 74.6191 141.433C70.597 142.626 66.6996 143.093 64.4412 143.081C55.4632 143.05 48.5881 135.442 45.8987 132.072L45.8939 132.077Z" fill="url(#paint5_linear_230_179)"/>
<path d="M58.5909 232.425C57.6674 229.631 56.7421 226.831 55.8186 224.038C65.798 221.699 69.4445 217.8 70.9422 214.693C71.4996 213.531 71.9735 210.707 72.9151 205.062C74.3581 196.426 74.2049 195.049 75.5026 192.708C76.444 191.004 78.1333 188.835 84.1416 185.441C94.2602 179.73 103.452 178.006 104.333 177.851C111.86 176.504 130.101 173.232 147.019 183.85C150.936 186.314 157.754 191.379 163.408 200.809C161.935 202.22 160.454 203.627 158.981 205.038C156.643 200.626 151.406 192.428 141.384 187.022C127.237 179.398 113.177 182.514 105.928 184.124C95.9156 186.35 90.8696 190.224 88.6872 192.136C86.5548 194.004 83.8688 196.406 82.3208 200.363C80.9432 203.88 81.6166 205.678 80.5734 210.763C79.7348 214.86 78.3068 218.537 77.2255 220.547C72.9436 228.547 62.879 231.45 58.5891 232.419L58.5909 232.425Z" fill="url(#paint6_linear_230_179)"/>
<path d="M145.574 188.954C132.189 201.736 111.792 193.393 102.985 187.369C99.9534 185.292 86.3919 175.719 87.79 160.328C88.9038 148.119 98.7841 139.443 107.448 135.879C121.263 130.196 137.282 135.354 145.956 146.333C155.23 158.076 157.177 177.873 145.579 188.949L145.574 188.954Z" fill="url(#paint7_linear_230_179)"/>
<path d="M121.108 154.723C122.103 153.637 123.611 151.989 126.017 151.164C128.386 150.349 130.505 150.712 131.619 151.003C131.846 151.465 133.26 154.471 131.801 157.59C131.136 159.012 130.138 159.902 129.507 160.369C130.405 160.56 132.004 161.03 133.538 162.295C135.918 164.253 136.569 166.821 136.753 167.703C135.841 168.566 134.451 169.676 132.562 170.566C129.744 171.902 127.187 172.111 125.72 172.12C126.125 172.972 126.933 174.975 126.536 177.514C125.862 181.873 122.241 184.147 121.71 184.465C120.543 183.69 118.272 181.944 116.703 178.842C115.43 176.324 115.159 173.999 115.11 172.645C113.889 175.031 111.513 176.567 108.986 176.594C105.962 176.626 104.133 174.477 103.873 174.165C103.827 173.486 103.683 170.215 106.096 167.396C107.829 165.371 109.949 164.665 110.787 164.435C110.128 163.744 108.059 161.364 107.815 157.628C107.628 154.643 108.709 152.373 109.22 151.451C110.281 151.395 112.337 151.439 114.581 152.486C117.438 153.825 118.896 156.003 119.426 156.908C119.789 156.335 120.332 155.563 121.099 154.723L121.108 154.723Z" fill="url(#paint8_radial_230_179)"/>
<path d="M135.261 144.777C135.339 141.349 135.448 136.671 137.952 131.352C142.232 122.275 152.024 114.488 163.761 113.791C176.657 113.027 185.048 121.23 187.164 123.475C188.834 125.243 195.634 132.452 195.469 143.321C195.248 157.542 183.27 166.297 179.861 168.792C176.366 171.344 168.971 176.752 158.888 175.932C156.986 175.778 149.859 174.983 143.783 169.486C134.89 161.437 135.163 149.553 135.27 144.786L135.261 144.777Z" fill="url(#paint9_linear_230_179)"/>
<path d="M50.7157 175.19C50.7934 171.762 50.9025 167.085 53.4062 161.765C57.6866 152.688 67.4783 144.901 79.215 144.205C92.1117 143.44 100.502 151.643 102.619 153.888C104.288 155.656 111.089 162.865 110.924 173.734C110.702 187.956 98.7241 196.71 95.3154 199.206C91.8204 201.757 84.4255 207.165 74.342 206.345C72.4403 206.191 65.313 205.396 59.2376 199.899C50.3447 191.85 50.6172 179.966 50.7248 175.199L50.7157 175.19Z" fill="url(#paint10_linear_230_179)"/>
<path d="M148.96 210.025C150.609 198.97 158.881 192.235 161.006 190.504C163.189 188.727 170.378 183.055 181.067 182.798C183.145 182.748 193.405 182.712 202.109 190.408C203.739 191.852 213.831 201.097 212.297 215.306C210.884 228.425 200.651 235.702 198.491 237.241C197.12 238.216 182.903 247.969 167.52 241.698C154.946 236.569 147.038 222.952 148.965 210.021L148.96 210.025Z" fill="url(#paint11_linear_230_179)"/>
<path d="M155.257 198.607C166.958 201.986 172.36 211.316 173.45 213.294C180.966 226.987 174.885 240.992 174.152 242.606C173.525 243.981 165.773 260.378 150.149 262.048C139.192 263.22 131.224 256.412 125.828 251.802C120.374 247.141 111.084 239.201 111.324 227.438C111.61 213.371 125.322 202.798 136.179 199.227C138.707 198.395 146.283 196.014 155.257 198.607V198.607Z" fill="url(#paint12_linear_230_179)"/>
<path d="M138.245 252.401C137.877 252.969 137.316 253.83 136.139 254.259C134.984 254.683 133.778 254.489 133.132 254.337C132.939 254.096 131.702 252.529 132.006 250.893C132.145 250.155 132.546 249.69 132.813 249.444C132.291 249.346 131.359 249.098 130.328 248.437C128.735 247.41 127.982 246.067 127.746 245.606C128.104 245.155 128.687 244.58 129.567 244.111C130.886 243.412 132.234 243.308 133.031 243.306C132.677 242.858 131.932 241.816 131.746 240.484C131.431 238.209 133.044 237.021 133.28 236.85C134.033 237.26 135.533 238.17 136.87 239.794C137.952 241.111 138.461 242.324 138.702 243.034C138.991 241.791 140.042 240.986 141.406 240.976C143.042 240.959 144.365 242.082 144.556 242.252C144.683 242.61 145.273 244.315 144.404 245.787C143.78 246.844 142.74 247.213 142.323 247.331C142.788 247.692 144.285 248.938 144.992 250.893C145.563 252.454 145.323 253.641 145.193 254.117C144.625 254.145 143.506 254.12 142.129 253.572C140.374 252.871 139.248 251.732 138.816 251.259C138.711 251.558 138.532 251.964 138.25 252.396L138.245 252.401Z" fill="url(#paint13_radial_230_179)"/>
<path d="M79.578 217.767C80.1215 208.742 85.8437 199.969 94.6898 196.023C105.56 191.174 115.355 196.201 116.702 196.921C125.464 201.605 130.049 210.984 129.943 219.971C129.829 230.049 123.791 241.854 112.659 245.244C99.3288 249.306 88.5373 238.307 87.1607 236.856C85.468 235.074 78.9457 228.205 79.5784 217.757L79.578 217.767Z" fill="url(#paint14_linear_230_179)"/>
<path d="M65.2267 121.195C65.7702 112.17 71.4924 103.398 80.3385 99.4512C91.2091 94.6017 101.004 99.6288 102.351 100.349C111.113 105.034 115.698 114.413 115.591 123.399C115.478 133.477 109.44 145.282 98.308 148.672C84.9775 152.734 74.186 141.735 72.8093 140.284C71.1167 138.502 64.5944 131.633 65.2271 121.186L65.2267 121.195Z" fill="url(#paint15_linear_230_179)"/>
<path d="M107.227 123.195C107.77 114.17 113.492 105.398 122.339 101.451C133.209 96.6017 143.004 101.629 144.351 102.349C153.113 107.034 157.698 116.413 157.591 125.399C157.478 135.477 151.44 147.282 140.308 150.672C126.977 154.734 116.186 143.735 114.809 142.284C113.117 140.502 106.594 133.633 107.227 123.186L107.227 123.195Z" fill="url(#paint16_linear_230_179)"/>
<path d="M130.227 196.195C130.77 187.17 136.492 178.398 145.339 174.451C156.209 169.602 166.004 174.629 167.351 175.349C176.113 180.034 180.698 189.413 180.591 198.399C180.478 208.477 174.44 220.282 163.308 223.672C149.977 227.734 139.186 216.735 137.809 215.284C136.117 213.502 129.594 206.633 130.227 196.186L130.227 196.195Z" fill="url(#paint17_linear_230_179)"/>
<path d="M157.506 146.637C156.436 146.041 154.814 145.14 153.723 143.317C152.654 141.527 152.599 139.691 152.653 138.708C152.996 138.425 155.26 136.616 158.103 137.164C159.392 137.415 160.302 138.056 160.797 138.478C160.807 137.691 160.924 136.268 161.721 134.731C162.951 132.345 164.977 131.259 165.683 130.919C166.553 131.499 167.705 132.414 168.766 133.787C170.346 135.84 170.95 137.921 171.201 139.136C171.838 138.618 173.368 137.528 175.55 137.315C179.289 136.953 181.784 139.478 182.136 139.847C181.687 140.981 180.617 143.232 178.296 145.186C176.416 146.774 174.525 147.487 173.407 147.813C175.591 148.321 177.274 149.968 177.714 152.061C178.246 154.562 176.769 156.534 176.547 156.817C175.988 156.999 173.297 157.807 170.545 156.403C168.571 155.395 167.627 153.784 167.294 153.135C166.829 153.824 165.197 156.051 162.129 157.038C159.677 157.824 157.607 157.406 156.758 157.177C156.536 156.304 156.228 154.592 156.721 152.512C157.352 149.858 158.926 148.192 159.591 147.557C159.059 147.378 158.319 147.09 157.492 146.632L157.506 146.637Z" fill="url(#paint18_radial_230_179)"/>
<path d="M66.9317 180.112C65.8614 179.516 64.2399 178.615 63.1486 176.792C62.0795 175.002 62.0244 173.166 62.0788 172.182C62.4218 171.9 64.6855 170.091 67.529 170.638C68.818 170.89 69.7273 171.531 70.2228 171.953C70.2327 171.166 70.35 169.743 71.1463 168.205C72.3765 165.819 74.403 164.734 75.1089 164.394C75.9783 164.974 77.1307 165.889 78.1914 167.262C79.7712 169.315 80.3751 171.396 80.6262 172.611C81.2636 172.093 82.7935 171.002 84.9758 170.789C88.7146 170.428 91.2097 172.953 91.5619 173.322C91.113 174.455 90.0423 176.707 87.7218 178.661C85.8411 180.249 83.95 180.962 82.8322 181.288C85.0163 181.796 86.6999 183.442 87.1393 185.536C87.6717 188.037 86.1941 190.009 85.973 190.292C85.4133 190.474 82.7221 191.281 79.9707 189.878C77.9968 188.87 77.0524 187.259 76.7199 186.61C76.2543 187.298 74.6222 189.526 71.5542 190.512C69.1028 191.299 67.0325 190.881 66.1832 190.652C65.9618 189.779 65.6538 188.066 66.1465 185.987C66.7772 183.333 68.3514 181.667 69.0166 181.032C68.4841 180.853 67.7447 180.565 66.9178 180.107L66.9317 180.112Z" fill="url(#paint19_radial_230_179)"/>
<path d="M97.9713 229.786C97.1353 229.319 95.8675 228.613 95.0103 227.181C94.1709 225.777 94.1296 224.334 94.1714 223.571C94.4419 223.349 96.2135 221.928 98.4378 222.362C99.4523 222.559 100.161 223.058 100.552 223.39C100.555 222.772 100.652 221.658 101.277 220.456C102.24 218.587 103.831 217.736 104.385 217.47C105.066 217.921 105.968 218.642 106.801 219.718C108.04 221.327 108.511 222.957 108.706 223.909C109.208 223.502 110.406 222.647 112.113 222.481C115.038 222.201 116.996 224.173 117.276 224.466C116.925 225.352 116.083 227.114 114.27 228.647C112.795 229.893 111.313 230.45 110.436 230.708C112.151 231.104 113.468 232.395 113.816 234.033C114.232 235.995 113.075 237.534 112.903 237.762C112.462 237.903 110.353 238.543 108.2 237.435C106.654 236.643 105.917 235.385 105.655 234.877C105.288 235.416 104.011 237.16 101.612 237.933C99.6915 238.547 98.0724 238.222 97.3994 238.042C97.2227 237.361 96.9809 236.019 97.3729 234.389C97.8655 232.309 99.0985 231.005 99.618 230.509C99.1966 230.369 98.619 230.143 97.9761 229.781L97.9713 229.786Z" fill="url(#paint20_radial_230_179)"/>
<path d="M83.6199 133.214C82.784 132.747 81.5162 132.041 80.659 130.609C79.8196 129.205 79.7783 127.762 79.8201 126.999C80.0906 126.777 81.8622 125.357 84.0865 125.79C85.101 125.988 85.8093 126.486 86.2002 126.818C86.204 126.2 86.3007 125.086 86.9255 123.884C87.8885 122.015 89.48 121.164 90.0333 120.898C90.7151 121.349 91.6169 122.07 92.4494 123.146C93.6891 124.755 94.1595 126.385 94.3545 127.338C94.8567 126.93 96.0546 126.076 97.7618 125.909C100.687 125.629 102.645 127.601 102.924 127.894C102.574 128.78 101.732 130.543 99.9185 132.075C98.4439 133.321 96.9615 133.878 96.0851 134.136C97.8 134.532 99.1168 135.824 99.465 137.462C99.8811 139.423 98.7239 140.962 98.5516 141.19C98.1107 141.331 96.0019 141.971 93.8489 140.863C92.3031 140.071 91.5662 138.813 91.3035 138.305C90.937 138.845 89.6599 140.589 87.2605 141.361C85.3402 141.975 83.7211 141.65 83.0481 141.47C82.8713 140.789 82.6295 139.448 83.0215 137.817C83.5142 135.737 84.7472 134.433 85.2667 133.937C84.8453 133.797 84.2677 133.572 83.6248 133.209L83.6199 133.214Z" fill="url(#paint21_radial_230_179)"/>
<path d="M125.62 135.214C124.784 134.747 123.516 134.041 122.659 132.609C121.82 131.205 121.778 129.762 121.82 128.999C122.091 128.777 123.862 127.357 126.087 127.79C127.101 127.988 127.809 128.486 128.2 128.818C128.204 128.2 128.301 127.086 128.925 125.884C129.888 124.015 131.48 123.164 132.033 122.898C132.715 123.349 133.617 124.07 134.449 125.146C135.689 126.755 136.159 128.385 136.354 129.338C136.857 128.93 138.055 128.076 139.762 127.909C142.687 127.629 144.645 129.601 144.924 129.894C144.574 130.78 143.732 132.543 141.919 134.075C140.444 135.321 138.961 135.878 138.085 136.136C139.8 136.532 141.117 137.824 141.465 139.462C141.881 141.423 140.724 142.962 140.552 143.19C140.111 143.331 138.002 143.971 135.849 142.863C134.303 142.071 133.566 140.813 133.303 140.305C132.937 140.845 131.66 142.589 129.26 143.361C127.34 143.975 125.721 143.65 125.048 143.47C124.871 142.789 124.63 141.448 125.022 139.817C125.514 137.737 126.747 136.433 127.267 135.937C126.845 135.797 126.268 135.572 125.625 135.209L125.62 135.214Z" fill="url(#paint22_radial_230_179)"/>
<path d="M148.62 208.214C147.784 207.747 146.516 207.041 145.659 205.609C144.82 204.205 144.778 202.762 144.82 201.999C145.091 201.777 146.862 200.357 149.087 200.79C150.101 200.988 150.809 201.486 151.2 201.818C151.204 201.2 151.301 200.086 151.925 198.884C152.888 197.015 154.48 196.164 155.033 195.898C155.715 196.349 156.617 197.07 157.449 198.146C158.689 199.755 159.159 201.385 159.354 202.338C159.857 201.93 161.055 201.076 162.762 200.909C165.687 200.629 167.645 202.601 167.924 202.894C167.574 203.78 166.732 205.543 164.919 207.075C163.444 208.321 161.961 208.878 161.085 209.136C162.8 209.532 164.117 210.824 164.465 212.462C164.881 214.423 163.724 215.962 163.552 216.19C163.111 216.331 161.002 216.971 158.849 215.863C157.303 215.071 156.566 213.813 156.303 213.305C155.937 213.845 154.66 215.589 152.26 216.361C150.34 216.975 148.721 216.65 148.048 216.47C147.871 215.789 147.63 214.448 148.022 212.817C148.514 210.737 149.747 209.433 150.267 208.937C149.845 208.797 149.268 208.572 148.625 208.209L148.62 208.214Z" fill="url(#paint23_radial_230_179)"/>
<path d="M175.15 200.698C174.217 200.169 172.808 199.364 171.789 197.86C170.793 196.379 170.645 194.921 170.636 194.144C170.91 193.936 172.711 192.623 175.126 193.218C176.227 193.486 177.022 194.047 177.459 194.407C177.421 193.784 177.443 192.66 178.029 191.485C178.93 189.658 180.574 188.911 181.149 188.677C181.909 189.181 182.93 189.969 183.9 191.121C185.342 192.835 185.961 194.513 186.239 195.495C186.75 195.115 187.973 194.336 189.793 194.288C192.908 194.206 195.15 196.34 195.467 196.652C195.149 197.525 194.379 199.255 192.537 200.68C191.046 201.841 189.497 202.299 188.576 202.5C190.441 203.024 191.942 204.421 192.433 206.102C193.021 208.117 191.885 209.6 191.717 209.814C191.259 209.927 189.043 210.425 186.656 209.16C184.942 208.249 184.066 206.925 183.748 206.397C183.392 206.918 182.15 208.592 179.63 209.209C177.615 209.705 175.851 209.257 175.123 209.03C174.886 208.325 174.533 206.954 174.836 205.327C175.22 203.26 176.447 202.017 176.97 201.554C176.512 201.385 175.875 201.117 175.159 200.707L175.15 200.698Z" fill="url(#paint24_radial_230_179)"/>
<defs>
<linearGradient id="paint0_linear_230_179" x1="111.039" y1="224.972" x2="256.169" y2="149.06" gradientUnits="userSpaceOnUse">
<stop stop-color="#8CC63F"/>
<stop offset="0.1" stop-color="#88C03D"/>
<stop offset="0.22" stop-color="#7EB238"/>
<stop offset="0.35" stop-color="#6C9930"/>
<stop offset="0.49" stop-color="#547726"/>
<stop offset="0.64" stop-color="#354C18"/>
<stop offset="0.78" stop-color="#101707"/>
<stop offset="0.84"/>
</linearGradient>
<linearGradient id="paint1_linear_230_179" x1="138.191" y1="176.996" x2="11.591" y2="73.0846" gradientUnits="userSpaceOnUse">
<stop stop-color="#8CC63F"/>
<stop offset="0.1" stop-color="#88C03D"/>
<stop offset="0.22" stop-color="#7EB238"/>
<stop offset="0.35" stop-color="#6C9930"/>
<stop offset="0.49" stop-color="#547726"/>
<stop offset="0.64" stop-color="#354C18"/>
<stop offset="0.78" stop-color="#101707"/>
<stop offset="0.84"/>
</linearGradient>
<linearGradient id="paint2_linear_230_179" x1="71.2784" y1="194.292" x2="174.228" y2="17.7681" gradientUnits="userSpaceOnUse">
<stop stop-color="#8CC63F"/>
<stop offset="0.1" stop-color="#88C03D"/>
<stop offset="0.22" stop-color="#7EB238"/>
<stop offset="0.35" stop-color="#6C9930"/>
<stop offset="0.49" stop-color="#547726"/>
<stop offset="0.64" stop-color="#354C18"/>
<stop offset="0.78" stop-color="#101707"/>
<stop offset="0.84"/>
</linearGradient>
<linearGradient id="paint3_linear_230_179" x1="171.54" y1="282.456" x2="42.4057" y2="126.668" gradientUnits="userSpaceOnUse">
<stop stop-color="#8CC63F"/>
<stop offset="0.1" stop-color="#88C03D"/>
<stop offset="0.22" stop-color="#7EB238"/>
<stop offset="0.35" stop-color="#6C9930"/>
<stop offset="0.49" stop-color="#547726"/>
<stop offset="0.64" stop-color="#354C18"/>
<stop offset="0.78" stop-color="#101707"/>
<stop offset="0.84"/>
</linearGradient>
<linearGradient id="paint4_linear_230_179" x1="218.667" y1="259.914" x2="58.6225" y2="66.8149" gradientUnits="userSpaceOnUse">
<stop stop-color="#934800"/>
<stop offset="0.12" stop-color="#8D4500"/>
<stop offset="0.26" stop-color="#7F3E00"/>
<stop offset="0.42" stop-color="#663200"/>
<stop offset="0.58" stop-color="#452100"/>
<stop offset="0.75" stop-color="#190C00"/>
<stop offset="0.84"/>
</linearGradient>
<linearGradient id="paint5_linear_230_179" x1="145.243" y1="218.818" x2="56.3092" y2="111.512" gradientUnits="userSpaceOnUse">
<stop stop-color="#934800"/>
<stop offset="0.12" stop-color="#8D4500"/>
<stop offset="0.26" stop-color="#7F3E00"/>
<stop offset="0.42" stop-color="#663200"/>
<stop offset="0.58" stop-color="#452100"/>
<stop offset="0.75" stop-color="#190C00"/>
<stop offset="0.84"/>
</linearGradient>
<linearGradient id="paint6_linear_230_179" x1="183.28" y1="180.615" x2="44.2914" y2="210.514" gradientUnits="userSpaceOnUse">
<stop stop-color="#934800"/>
<stop offset="0.12" stop-color="#8D4500"/>
<stop offset="0.26" stop-color="#7F3E00"/>
<stop offset="0.42" stop-color="#663200"/>
<stop offset="0.58" stop-color="#452100"/>
<stop offset="0.75" stop-color="#190C00"/>
<stop offset="0.84"/>
</linearGradient>
<linearGradient id="paint7_linear_230_179" x1="167.563" y1="140.187" x2="107.953" y2="171.929" gradientUnits="userSpaceOnUse">
<stop/>
<stop offset="0.23" stop-color="#272521"/>
<stop offset="1" stop-color="#CC1210"/>
</linearGradient>
<radialGradient id="paint8_radial_230_179" cx="0" cy="0" r="1" gradientUnits="userSpaceOnUse" gradientTransform="translate(119.418 164.345) rotate(46.3192) scale(16.9763 17.4339)">
<stop stop-color="#BD1412"/>
<stop offset="0.05" stop-color="#AD1513"/>
<stop offset="0.2" stop-color="#841A17"/>
<stop offset="0.35" stop-color="#621E1B"/>
<stop offset="0.5" stop-color="#48211D"/>
<stop offset="0.66" stop-color="#35231F"/>
<stop offset="0.82" stop-color="#2A2420"/>
<stop offset="1" stop-color="#272521"/>
</radialGradient>
<linearGradient id="paint9_linear_230_179" x1="165.789" y1="81.6914" x2="167.447" y2="166.4" gradientUnits="userSpaceOnUse">
<stop/>
<stop offset="0.23" stop-color="#272521"/>
<stop offset="1" stop-color="#CC1210"/>
</linearGradient>
<linearGradient id="paint10_linear_230_179" x1="81.2437" y1="112.104" x2="82.9017" y2="196.813" gradientUnits="userSpaceOnUse">
<stop/>
<stop offset="0.23" stop-color="#272521"/>
<stop offset="1" stop-color="#CC1210"/>
</linearGradient>
<linearGradient id="paint11_linear_230_179" x1="180.994" y1="151.404" x2="182.622" y2="234.418" gradientUnits="userSpaceOnUse">
<stop/>
<stop offset="0.23" stop-color="#272521"/>
<stop offset="1" stop-color="#CC1210"/>
</linearGradient>
<linearGradient id="paint12_linear_230_179" x1="144.687" y1="164.094" x2="146.413" y2="252.323" gradientUnits="userSpaceOnUse">
<stop/>
<stop offset="0.23" stop-color="#272521"/>
<stop offset="1" stop-color="#CC1210"/>
</linearGradient>
<radialGradient id="paint13_radial_230_179" cx="0" cy="0" r="1" gradientUnits="userSpaceOnUse" gradientTransform="translate(137.989 246.948) rotate(-142.16) scale(10.4649 8.05115)">
<stop stop-color="#BD1412"/>
<stop offset="0.05" stop-color="#AD1513"/>
<stop offset="0.2" stop-color="#841A17"/>
<stop offset="0.35" stop-color="#621E1B"/>
<stop offset="0.5" stop-color="#48211D"/>
<stop offset="0.66" stop-color="#35231F"/>
<stop offset="0.82" stop-color="#2A2420"/>
<stop offset="1" stop-color="#272521"/>
</radialGradient>
<linearGradient id="paint14_linear_230_179" x1="105.108" y1="167.002" x2="106.5" y2="238.178" gradientUnits="userSpaceOnUse">
<stop/>
<stop offset="0.23" stop-color="#272521"/>
<stop offset="1" stop-color="#CC1210"/>
</linearGradient>
<linearGradient id="paint15_linear_230_179" x1="90.7565" y1="70.4302" x2="92.1489" y2="141.606" gradientUnits="userSpaceOnUse">
<stop/>
<stop offset="0.23" stop-color="#272521"/>
<stop offset="1" stop-color="#CC1210"/>
</linearGradient>
<linearGradient id="paint16_linear_230_179" x1="132.756" y1="72.4302" x2="134.149" y2="143.606" gradientUnits="userSpaceOnUse">
<stop/>
<stop offset="0.23" stop-color="#272521"/>
<stop offset="1" stop-color="#CC1210"/>
</linearGradient>
<linearGradient id="paint17_linear_230_179" x1="155.756" y1="145.43" x2="157.149" y2="216.606" gradientUnits="userSpaceOnUse">
<stop/>
<stop offset="0.23" stop-color="#272521"/>
<stop offset="1" stop-color="#CC1210"/>
</linearGradient>
<radialGradient id="paint18_radial_230_179" cx="0" cy="0" r="1" gradientUnits="userSpaceOnUse" gradientTransform="translate(165.797 146.013) rotate(-56.1946) scale(14.8236 14.4716)">
<stop stop-color="#BD1412"/>
<stop offset="0.05" stop-color="#AD1513"/>
<stop offset="0.2" stop-color="#841A17"/>
<stop offset="0.35" stop-color="#621E1B"/>
<stop offset="0.5" stop-color="#48211D"/>
<stop offset="0.66" stop-color="#35231F"/>
<stop offset="0.82" stop-color="#2A2420"/>
<stop offset="1" stop-color="#272521"/>
</radialGradient>
<radialGradient id="paint19_radial_230_179" cx="0" cy="0" r="1" gradientUnits="userSpaceOnUse" gradientTransform="translate(75.2221 179.488) rotate(-56.1946) scale(14.8236 14.4716)">
<stop stop-color="#BD1412"/>
<stop offset="0.05" stop-color="#AD1513"/>
<stop offset="0.2" stop-color="#841A17"/>
<stop offset="0.35" stop-color="#621E1B"/>
<stop offset="0.5" stop-color="#48211D"/>
<stop offset="0.66" stop-color="#35231F"/>
<stop offset="0.82" stop-color="#2A2420"/>
<stop offset="1" stop-color="#272521"/>
</radialGradient>
<radialGradient id="paint20_radial_230_179" cx="0" cy="0" r="1" gradientUnits="userSpaceOnUse" gradientTransform="translate(104.465 229.292) rotate(-56.1946) scale(11.6122 11.3364)">
<stop stop-color="#BD1412"/>
<stop offset="0.05" stop-color="#AD1513"/>
<stop offset="0.2" stop-color="#841A17"/>
<stop offset="0.35" stop-color="#621E1B"/>
<stop offset="0.5" stop-color="#48211D"/>
<stop offset="0.66" stop-color="#35231F"/>
<stop offset="0.82" stop-color="#2A2420"/>
<stop offset="1" stop-color="#272521"/>
</radialGradient>
<radialGradient id="paint21_radial_230_179" cx="0" cy="0" r="1" gradientUnits="userSpaceOnUse" gradientTransform="translate(90.114 132.721) rotate(-56.1946) scale(11.6122 11.3364)">
<stop stop-color="#BD1412"/>
<stop offset="0.05" stop-color="#AD1513"/>
<stop offset="0.2" stop-color="#841A17"/>
<stop offset="0.35" stop-color="#621E1B"/>
<stop offset="0.5" stop-color="#48211D"/>
<stop offset="0.66" stop-color="#35231F"/>
<stop offset="0.82" stop-color="#2A2420"/>
<stop offset="1" stop-color="#272521"/>
</radialGradient>
<radialGradient id="paint22_radial_230_179" cx="0" cy="0" r="1" gradientUnits="userSpaceOnUse" gradientTransform="translate(132.114 134.721) rotate(-56.1946) scale(11.6122 11.3364)">
<stop stop-color="#BD1412"/>
<stop offset="0.05" stop-color="#AD1513"/>
<stop offset="0.2" stop-color="#841A17"/>
<stop offset="0.35" stop-color="#621E1B"/>
<stop offset="0.5" stop-color="#48211D"/>
<stop offset="0.66" stop-color="#35231F"/>
<stop offset="0.82" stop-color="#2A2420"/>
<stop offset="1" stop-color="#272521"/>
</radialGradient>
<radialGradient id="paint23_radial_230_179" cx="0" cy="0" r="1" gradientUnits="userSpaceOnUse" gradientTransform="translate(155.114 207.721) rotate(-56.1946) scale(11.6122 11.3364)">
<stop stop-color="#BD1412"/>
<stop offset="0.05" stop-color="#AD1513"/>
<stop offset="0.2" stop-color="#841A17"/>
<stop offset="0.35" stop-color="#621E1B"/>
<stop offset="0.5" stop-color="#48211D"/>
<stop offset="0.66" stop-color="#35231F"/>
<stop offset="0.82" stop-color="#2A2420"/>
<stop offset="1" stop-color="#272521"/>
</radialGradient>
<radialGradient id="paint24_radial_230_179" cx="0" cy="0" r="1" gradientUnits="userSpaceOnUse" gradientTransform="translate(181.868 200.949) rotate(-56.1946) scale(11.1685 12.6782)">
<stop stop-color="#BD1412"/>
<stop offset="0.05" stop-color="#AD1513"/>
<stop offset="0.2" stop-color="#841A17"/>
<stop offset="0.35" stop-color="#621E1B"/>
<stop offset="0.5" stop-color="#48211D"/>
<stop offset="0.66" stop-color="#35231F"/>
<stop offset="0.82" stop-color="#2A2420"/>
<stop offset="1" stop-color="#272521"/>
</radialGradient>
</defs>
</svg>
