<svg width="376" height="423" viewBox="0 0 376 423" fill="none" xmlns="http://www.w3.org/2000/svg">
<g clip-path="url(#clip0_161_84)">
<path d="M251.946 259.367C267.05 244.001 267.207 236.475 280.738 218.92C291.921 204.407 294.215 206.413 327.333 175.564C350.447 154.023 362.102 143.049 367.006 133.177C381.939 103.036 375.122 67.9258 369.182 66.9557C365.538 66.3527 364.082 78.9516 350.316 93.5964C337.507 107.219 320.384 115.859 316.648 112.279C312.334 108.149 330.034 91.7088 324.671 72.7635C322.574 65.317 316.648 56.5722 310.801 56.8081C303.274 57.1228 302.317 72.0166 286.663 95.9042C280.423 105.422 280.383 103.364 269.187 119.057C256.181 137.281 250.229 148.504 248.341 147.664C245.43 146.38 261.636 120.761 252.72 95.799C248.551 84.1308 239.19 73.3929 233.46 74.8486C224.519 77.1292 227.39 108.385 218.737 109.788C215.381 110.338 214.017 105.802 205.181 101.922C202.02 100.532 192.306 96.2579 188.346 99.7322C184.177 103.39 190.759 111.781 190.483 127.461C190.3 138.107 187.166 140.427 185.056 152.41C183.312 162.336 183.587 171.408 185.947 187.009C194.036 240.632 199.753 278.548 217.308 282.009C227.705 284.054 238.338 273.238 251.973 259.367H251.946Z" fill="url(#paint0_linear_161_84)"/>
<path d="M69.3407 256.063C51.7329 236.646 51.5362 227.141 35.7641 204.944C22.732 186.603 20.0443 189.133 -18.5667 150.143C-45.5223 122.912 -59.1181 109.041 -64.8343 96.5594C-82.245 58.4601 -74.2872 14.0807 -67.3647 12.8352C-63.1037 12.0748 -61.4255 27.9911 -45.365 46.5032C-30.4319 63.7174 -10.4642 74.6388 -6.09838 70.1155C-1.06387 64.8973 -21.7001 44.1171 -15.4594 20.164C-13.0077 10.7638 -6.09839 -0.301555 0.71917 -1.21729e-05C9.49026 0.393305 10.6178 19.2201 28.8678 49.4138C36.1443 61.4493 36.1967 58.8403 49.255 78.6895C64.411 101.725 71.3598 115.911 73.5622 114.849C76.9577 113.223 58.0523 80.8398 68.4489 49.2958C73.3131 34.5464 84.2341 20.9769 90.9078 22.8255C101.331 25.6967 97.9873 65.2121 108.083 66.9951C111.99 67.69 113.589 61.9475 123.894 57.0442C127.579 55.2873 138.906 49.8857 143.521 54.2778C148.385 58.8927 140.715 69.5125 141.03 89.3358C141.24 102.8 144.911 105.711 147.362 120.867C149.395 133.413 149.08 144.872 146.326 164.603C136.887 232.385 130.227 280.304 109.761 284.67C97.6337 287.266 85.2304 273.591 69.3271 256.063H69.3407Z" fill="url(#paint1_linear_161_84)"/>
<path d="M275.323 338.148C250.531 349.712 241.51 346.683 214.777 355.401C192.686 362.613 194.076 366.244 143.062 392.793C107.453 411.332 89.3609 420.64 75.4897 422.292C33.1944 427.326 -5.61326 404.095 -4.21041 396.543C-3.3451 391.902 12.2567 395.559 35.6199 385.294C57.3574 375.75 75.0438 358.876 72.3955 352.858C69.3535 345.909 42.149 360.122 21.9323 345.569C13.9873 339.852 6.14704 328.997 8.96584 322.075C12.5844 313.173 30.7296 318.391 65.8925 309.829C79.908 306.407 77.4823 305.477 100.99 298.751C128.286 290.937 144.203 288.591 144.032 285.968C143.757 281.93 106.286 290.413 80.4584 269.029C68.3837 259.026 59.6649 243.175 63.8865 236.921C70.4551 227.154 106.392 243.988 111.806 234.195C113.904 230.405 109.105 226.813 108.306 214.542C108.017 210.15 107.139 196.659 112.986 193.381C119.135 189.933 126.267 201.431 145.042 207.816C157.785 212.155 161.889 209.376 177.058 211.972C189.618 214.122 200.277 218.344 217.819 227.849C278.089 260.533 320.699 283.635 317.224 306.198C315.166 319.557 297.703 327.699 275.31 338.148H275.323Z" fill="url(#paint2_linear_161_84)"/>
<path d="M-54.6079 179.458C-50.7009 175.525 -46.7939 171.591 -42.887 167.672C-34.1683 184.925 -23.4962 193.316 -16.6131 197.524C20.5033 220.244 72.2117 198.009 97.7383 187.036C121.39 176.862 117.195 174.214 134.567 168.222C188.806 149.487 238.665 172.194 242.008 173.781C245.011 175.21 266.171 195.505 308.467 236.122C319.021 246.256 332.459 259.446 328.88 270.275C327.254 275.191 322.587 278.168 318.667 279.951C312.898 271.743 304.481 260.35 293.534 247.397C271.403 221.189 260.337 208.092 243.149 197.301C236.712 193.263 198.861 170.346 155.976 179.379C134.527 183.889 134.776 191.559 106.876 204.643C97.6731 208.957 14.9182 246.557 -32.0706 209.861C-38.639 204.735 -47.6723 195.675 -54.6079 179.458Z" fill="url(#paint3_linear_161_84)"/>
<path d="M-8.81211 303.864C-9.00879 297.99 -9.20548 292.104 -9.4021 286.23C10.6835 287.804 19.7036 282.586 24.2399 277.578C25.9312 275.702 28.3829 270.615 33.2732 260.442C40.7594 244.88 41.2314 242.166 44.968 238.495C47.6819 235.82 52.0608 232.713 65.2502 229.881C87.46 225.122 105.723 227.39 107.467 227.626C122.387 229.605 158.546 234.391 184.545 264.807C190.562 271.861 200.605 285.614 206.046 306.971C202.493 308.768 198.927 310.551 195.374 312.346C193.407 302.54 188.071 283.779 172.181 267.443C149.748 244.394 121.548 241.838 107.008 240.527C86.9225 238.717 75.28 243.044 70.1144 245.364C65.0667 247.633 58.6817 250.582 53.5817 257.177C49.0454 263.037 49.3207 266.866 44.5484 275.912C40.707 283.202 35.9871 289.337 32.8406 292.51C20.3592 305.149 -0.198407 304.598 -8.81211 303.851V303.864Z" fill="url(#paint4_linear_161_84)"/>
<path d="M154.329 421.282C148.997 418.818 143.654 416.348 138.322 413.884C148.753 396.635 148.149 386.225 145.717 379.92C144.804 377.565 141.365 373.087 134.481 364.143C123.954 350.457 121.743 348.815 120.145 343.825C118.977 340.197 118.172 334.885 121.571 321.822C127.304 299.827 137.536 284.519 138.531 283.066C147.003 270.617 167.525 240.441 206.36 230.868C215.361 228.658 232.151 225.86 253.66 230.593C253.667 234.578 253.656 238.567 253.663 242.55C244.024 239.901 224.88 236.24 203.156 243.105C172.501 252.801 157.545 276.865 149.841 289.274C139.199 306.418 137.829 318.77 137.579 324.431C137.335 329.963 137.099 336.997 140.694 344.52C143.886 351.209 147.427 352.684 153.358 361.015C158.138 367.726 161.495 374.703 162.912 378.941C168.585 395.78 158.855 413.911 154.317 421.276L154.329 421.282Z" fill="url(#paint5_linear_161_84)"/>
<path d="M211.763 239.793C211.763 275.939 171.408 293.493 150.47 297.807C143.259 299.288 110.587 305.529 90.2 282.796C74.0347 264.755 75.1356 239.098 81.9667 222.054C92.8612 194.876 122.531 179.209 150.47 181.765C180.349 184.505 211.763 208.458 211.763 239.779V239.793Z" fill="url(#paint6_linear_161_84)"/>
<path d="M128.221 228.177C128.024 225.306 127.722 220.953 129.86 216.443C131.958 211.998 135.419 209.494 137.385 208.314C138.369 208.616 144.688 210.674 147.192 216.941C148.333 219.799 148.241 222.408 148.044 223.929C149.565 222.92 152.462 221.293 156.422 220.834C162.558 220.113 167.186 222.657 168.72 223.588C168.706 226.04 168.392 229.501 167.068 233.368C165.101 239.15 161.863 243.044 159.844 245.129C161.64 245.705 165.665 247.266 168.799 251.251C174.187 258.082 172.47 266.263 172.194 267.443C169.454 268.046 163.777 268.898 157.104 266.931C151.689 265.332 147.94 262.579 145.908 260.822C147.677 265.765 146.615 271.193 143.154 274.798C139.011 279.111 133.36 278.796 132.547 278.744C131.499 277.892 126.556 273.684 125.808 266.473C125.271 261.294 127.185 257.348 128.011 255.853C126.097 255.853 119.778 255.565 114.022 250.871C109.433 247.108 107.637 242.52 107.008 240.553C108.398 238.98 111.308 236.134 115.936 234.378C121.836 232.149 127.015 233.027 129.06 233.499C128.732 232.215 128.365 230.405 128.208 228.19L128.221 228.177Z" fill="url(#paint7_radial_161_84)"/>
<path d="M133.4 194.771C128.536 190.038 121.901 183.575 117.654 172.863C110.416 154.574 112.685 130.241 127.932 112.725C144.688 93.4782 168.208 92.692 174.397 92.7314C179.274 92.7572 199.15 92.8753 214.686 107.769C235.007 127.265 231.114 155.99 230.012 164.171C228.872 172.549 226.473 190.287 211.317 203.424C208.459 205.902 197.433 214.896 181.044 216.063C157.051 217.767 140.191 201.352 133.426 194.771H133.4Z" fill="url(#paint8_linear_161_84)"/>
<path d="M247.017 263.431C233.264 246.191 234.955 225.424 235.388 220.088C235.833 214.607 237.564 196.803 251.999 181.359C254.804 178.357 268.964 163.817 292.183 161.902C296.536 161.549 323.924 159.766 342.41 181.096C359.48 200.789 355.862 225.056 355.101 230.183C354.616 233.434 349.071 266.669 318.667 279.937C293.809 290.78 263.104 283.582 247.017 263.418V263.431Z" fill="url(#paint9_linear_161_84)"/>
<path d="M239.177 239.137C260.285 227.167 281.302 232.123 285.681 233.25C315.953 241.104 327.845 268.583 329.169 271.795C330.296 274.536 343.342 307.6 324.121 331.921C310.643 348.978 289.732 351.049 275.572 352.452C261.255 353.868 236.869 356.28 220.14 340.076C200.133 320.698 203.791 287.07 213.65 266.918C215.945 262.225 222.985 248.315 239.177 239.137Z" fill="url(#paint10_linear_161_84)"/>
<path d="M293.638 335.723C293.953 337.007 294.425 338.961 293.416 341.203C292.432 343.405 290.479 344.848 289.365 345.556C288.748 345.503 284.762 345.136 282.809 342.501C281.931 341.308 281.813 340.115 281.826 339.407C280.96 340.01 279.308 340.993 276.923 341.557C273.225 342.422 270.236 341.675 269.24 341.387C269.082 340.272 269.056 338.673 269.593 336.798C270.406 333.992 272.124 331.947 273.225 330.819C272.085 330.715 269.541 330.36 267.352 328.826C263.615 326.204 264.126 322.324 264.205 321.76C265.844 321.248 269.24 320.357 273.448 320.658C276.857 320.908 279.322 321.826 280.685 322.442C279.282 320.357 279.571 317.788 281.446 315.847C283.687 313.514 287.149 313.159 287.66 313.12C288.355 313.422 291.646 314.89 292.577 318.102C293.245 320.41 292.341 322.376 291.934 323.124C293.101 322.953 296.982 322.52 300.797 324.159C303.852 325.457 305.241 327.398 305.753 328.224C305.005 329.063 303.419 330.609 300.719 331.816C297.27 333.35 294.058 333.402 292.773 333.376C293.061 333.927 293.403 334.726 293.638 335.71V335.723Z" fill="url(#paint11_radial_161_84)"/>
<path d="M162.138 371.869C149.801 358.929 145.002 339.014 151.531 321.196C159.556 299.301 180.414 292.248 183.325 291.317C202.257 285.26 222.211 291.435 235.099 303.707C249.56 317.46 258.318 341.911 247.816 362.206C235.244 386.513 204.342 386.919 200.33 386.906C195.4 386.894 176.402 386.841 162.125 371.856L162.138 371.869Z" fill="url(#paint12_linear_161_84)"/>
<path d="M166.911 165.862C164.564 166.57 161.011 167.645 156.854 166.727C152.777 165.823 150.037 163.423 148.687 162.021C148.752 161.156 149.264 155.518 153.996 152.24C156.146 150.758 158.336 150.339 159.634 150.208C158.506 149.133 156.605 147.049 155.478 143.849C153.721 138.893 154.953 134.567 155.438 133.112C157.484 132.666 160.407 132.273 163.869 132.626C169.034 133.164 172.889 135.118 175 136.402C175.131 134.803 175.668 131.171 178.383 127.802C183.036 122.033 190.155 121.916 191.178 121.916C192.201 124.079 193.984 128.628 193.604 134.541C193.302 139.339 191.716 142.971 190.641 144.99C194.403 142.591 199.124 142.434 202.768 144.636C207.134 147.258 207.947 152.004 208.052 152.699C207.54 153.735 204.984 158.625 199.137 160.618C194.941 162.047 191.296 161.208 189.893 160.801C190.248 162.388 191.218 167.697 188.399 173.361C186.144 177.885 182.669 180.244 181.162 181.136C179.589 180.271 176.678 178.396 174.344 174.895C171.368 170.424 171.132 165.954 171.132 164.158C170.136 164.669 168.693 165.324 166.884 165.875L166.911 165.862Z" fill="url(#paint13_radial_161_84)"/>
<path d="M205.05 362.102C203.214 362.652 200.434 363.491 197.17 362.77C193.971 362.062 191.821 360.174 190.772 359.086C190.825 358.404 191.218 353.986 194.928 351.429C196.619 350.262 198.324 349.934 199.346 349.83C198.455 348.991 196.974 347.352 196.095 344.848C194.718 340.967 195.688 337.572 196.069 336.431C197.668 336.077 199.963 335.775 202.677 336.051C206.728 336.47 209.743 338.004 211.395 339.014C211.5 337.755 211.919 334.91 214.044 332.275C217.688 327.765 223.26 327.66 224.074 327.66C224.873 329.351 226.263 332.917 225.975 337.545C225.738 341.308 224.493 344.153 223.653 345.739C226.604 343.851 230.301 343.733 233.159 345.451C236.581 347.509 237.21 351.22 237.302 351.77C236.896 352.583 234.903 356.425 230.314 357.971C227.023 359.086 224.178 358.43 223.076 358.116C223.352 359.361 224.113 363.517 221.91 367.949C220.14 371.488 217.426 373.337 216.233 374.045C215.001 373.377 212.72 371.908 210.897 369.155C208.563 365.654 208.38 362.154 208.38 360.751C207.593 361.157 206.465 361.668 205.05 362.088V362.102Z" fill="url(#paint14_radial_161_84)"/>
<path d="M269.764 213.86C267.706 214.463 264.585 215.367 260.993 214.777C257.466 214.187 255.146 212.431 254.005 211.395C254.084 210.727 254.673 206.413 258.882 203.804C260.796 202.611 262.711 202.244 263.838 202.113C262.881 201.326 261.281 199.779 260.39 197.366C258.987 193.63 260.18 190.3 260.639 189.173C262.422 188.78 264.979 188.399 267.994 188.583C272.478 188.858 275.769 190.247 277.578 191.178C277.735 189.946 278.299 187.167 280.75 184.531C284.946 180.021 291.147 179.733 292.039 179.707C292.865 181.333 294.307 184.755 293.822 189.277C293.442 192.948 291.961 195.754 290.977 197.327C294.32 195.4 298.424 195.164 301.544 196.738C305.281 198.625 305.858 202.231 305.936 202.755C305.465 203.555 303.118 207.357 297.978 209.022C294.281 210.215 291.147 209.665 289.941 209.402C290.203 210.608 290.911 214.621 288.315 219.012C286.244 222.526 283.15 224.414 281.813 225.135C280.462 224.519 277.984 223.168 276.044 220.547C273.579 217.216 273.474 213.807 273.526 212.444C272.648 212.863 271.376 213.401 269.79 213.86H269.764Z" fill="url(#paint15_radial_161_84)"/>
</g>
<defs>
<linearGradient id="paint0_linear_161_84" x1="216.167" y1="337.152" x2="302.723" y2="28.5545" gradientUnits="userSpaceOnUse">
<stop stop-color="#8CC63F"/>
<stop offset="0.1" stop-color="#88C03D"/>
<stop offset="0.22" stop-color="#7EB238"/>
<stop offset="0.35" stop-color="#6C9930"/>
<stop offset="0.49" stop-color="#547726"/>
<stop offset="0.64" stop-color="#354C18"/>
<stop offset="0.78" stop-color="#101707"/>
<stop offset="0.84"/>
</linearGradient>
<linearGradient id="paint1_linear_161_84" x1="116.592" y1="351.927" x2="8.6004" y2="-33.1047" gradientUnits="userSpaceOnUse">
<stop stop-color="#8CC63F"/>
<stop offset="0.1" stop-color="#88C03D"/>
<stop offset="0.22" stop-color="#7EB238"/>
<stop offset="0.35" stop-color="#6C9930"/>
<stop offset="0.49" stop-color="#547726"/>
<stop offset="0.64" stop-color="#354C18"/>
<stop offset="0.78" stop-color="#101707"/>
<stop offset="0.84"/>
</linearGradient>
<linearGradient id="paint2_linear_161_84" x1="383.351" y1="329.235" x2="-21.3809" y2="299.987" gradientUnits="userSpaceOnUse">
<stop stop-color="#8CC63F"/>
<stop offset="0.1" stop-color="#88C03D"/>
<stop offset="0.22" stop-color="#7EB238"/>
<stop offset="0.35" stop-color="#6C9930"/>
<stop offset="0.49" stop-color="#547726"/>
<stop offset="0.64" stop-color="#354C18"/>
<stop offset="0.78" stop-color="#101707"/>
<stop offset="0.84"/>
</linearGradient>
<linearGradient id="paint3_linear_161_84" x1="415.935" y1="232.267" x2="-85.7064" y2="195.989" gradientUnits="userSpaceOnUse">
<stop stop-color="#934800"/>
<stop offset="0.12" stop-color="#8D4500"/>
<stop offset="0.26" stop-color="#7F3E00"/>
<stop offset="0.42" stop-color="#663200"/>
<stop offset="0.58" stop-color="#452100"/>
<stop offset="0.75" stop-color="#190C00"/>
<stop offset="0.84"/>
</linearGradient>
<linearGradient id="paint4_linear_161_84" x1="254.621" y1="280.541" x2="-24.1385" y2="260.376" gradientUnits="userSpaceOnUse">
<stop stop-color="#934800"/>
<stop offset="0.12" stop-color="#8D4500"/>
<stop offset="0.26" stop-color="#7F3E00"/>
<stop offset="0.42" stop-color="#663200"/>
<stop offset="0.58" stop-color="#452100"/>
<stop offset="0.75" stop-color="#190C00"/>
<stop offset="0.84"/>
</linearGradient>
<linearGradient id="paint5_linear_161_84" x1="251.897" y1="175.289" x2="108.434" y2="415.329" gradientUnits="userSpaceOnUse">
<stop stop-color="#934800"/>
<stop offset="0.12" stop-color="#8D4500"/>
<stop offset="0.26" stop-color="#7F3E00"/>
<stop offset="0.42" stop-color="#663200"/>
<stop offset="0.58" stop-color="#452100"/>
<stop offset="0.75" stop-color="#190C00"/>
<stop offset="0.84"/>
</linearGradient>
<linearGradient id="paint6_linear_161_84" x1="171.487" y1="142.958" x2="136.717" y2="270.445" gradientUnits="userSpaceOnUse">
<stop/>
<stop offset="0.23" stop-color="#272521"/>
<stop offset="1" stop-color="#CC1210"/>
</linearGradient>
<radialGradient id="paint7_radial_161_84" cx="0" cy="0" r="1" gradientUnits="userSpaceOnUse" gradientTransform="translate(139.837 243.542) scale(34.0485 34.0482)">
<stop stop-color="#BD1412"/>
<stop offset="0.05" stop-color="#AD1513"/>
<stop offset="0.2" stop-color="#841A17"/>
<stop offset="0.35" stop-color="#621E1B"/>
<stop offset="0.5" stop-color="#48211D"/>
<stop offset="0.66" stop-color="#35231F"/>
<stop offset="0.82" stop-color="#2A2420"/>
<stop offset="1" stop-color="#272521"/>
</radialGradient>
<linearGradient id="paint8_linear_161_84" x1="84.1819" y1="66.5625" x2="206.294" y2="181.713" gradientUnits="userSpaceOnUse">
<stop/>
<stop offset="0.23" stop-color="#272521"/>
<stop offset="1" stop-color="#CC1210"/>
</linearGradient>
<linearGradient id="paint9_linear_161_84" x1="206.361" y1="139.117" x2="326.034" y2="251.96" gradientUnits="userSpaceOnUse">
<stop/>
<stop offset="0.23" stop-color="#272521"/>
<stop offset="1" stop-color="#CC1210"/>
</linearGradient>
<linearGradient id="paint10_linear_161_84" x1="174.475" y1="207.514" x2="301.662" y2="327.451" gradientUnits="userSpaceOnUse">
<stop/>
<stop offset="0.23" stop-color="#272521"/>
<stop offset="1" stop-color="#CC1210"/>
</linearGradient>
<radialGradient id="paint11_radial_161_84" cx="0" cy="0" r="1" gradientUnits="userSpaceOnUse" gradientTransform="translate(285.374 328.729) rotate(171.74) scale(20.9771 15.7327)">
<stop stop-color="#BD1412"/>
<stop offset="0.05" stop-color="#AD1513"/>
<stop offset="0.2" stop-color="#841A17"/>
<stop offset="0.35" stop-color="#621E1B"/>
<stop offset="0.5" stop-color="#48211D"/>
<stop offset="0.66" stop-color="#35231F"/>
<stop offset="0.82" stop-color="#2A2420"/>
<stop offset="1" stop-color="#272521"/>
</radialGradient>
<linearGradient id="paint12_linear_161_84" x1="123.868" y1="267.338" x2="226.471" y2="364.095" gradientUnits="userSpaceOnUse">
<stop/>
<stop offset="0.23" stop-color="#272521"/>
<stop offset="1" stop-color="#CC1210"/>
</linearGradient>
<radialGradient id="paint13_radial_161_84" cx="0" cy="0" r="1" gradientUnits="userSpaceOnUse" gradientTransform="translate(177.489 153.311) rotate(-102.84) scale(28.9876 28.9877)">
<stop stop-color="#BD1412"/>
<stop offset="0.05" stop-color="#AD1513"/>
<stop offset="0.2" stop-color="#841A17"/>
<stop offset="0.35" stop-color="#621E1B"/>
<stop offset="0.5" stop-color="#48211D"/>
<stop offset="0.66" stop-color="#35231F"/>
<stop offset="0.82" stop-color="#2A2420"/>
<stop offset="1" stop-color="#272521"/>
</radialGradient>
<radialGradient id="paint14_radial_161_84" cx="0" cy="0" r="1" gradientUnits="userSpaceOnUse" gradientTransform="translate(213.33 352.263) rotate(-102.84) scale(22.7075 22.7077)">
<stop stop-color="#BD1412"/>
<stop offset="0.05" stop-color="#AD1513"/>
<stop offset="0.2" stop-color="#841A17"/>
<stop offset="0.35" stop-color="#621E1B"/>
<stop offset="0.5" stop-color="#48211D"/>
<stop offset="0.66" stop-color="#35231F"/>
<stop offset="0.82" stop-color="#2A2420"/>
<stop offset="1" stop-color="#272521"/>
</radialGradient>
<radialGradient id="paint15_radial_161_84" cx="0" cy="0" r="1" gradientUnits="userSpaceOnUse" gradientTransform="translate(279.435 204.71) rotate(-102.84) scale(21.8399 25.3954)">
<stop stop-color="#BD1412"/>
<stop offset="0.05" stop-color="#AD1513"/>
<stop offset="0.2" stop-color="#841A17"/>
<stop offset="0.35" stop-color="#621E1B"/>
<stop offset="0.5" stop-color="#48211D"/>
<stop offset="0.66" stop-color="#35231F"/>
<stop offset="0.82" stop-color="#2A2420"/>
<stop offset="1" stop-color="#272521"/>
</radialGradient>
<clipPath id="clip0_161_84">
<rect width="376" height="423" fill="white"/>
</clipPath>
</defs>
</svg>
