<svg width="242" height="162" viewBox="0 0 242 162" fill="none" xmlns="http://www.w3.org/2000/svg">
<path d="M19.007 8.20713C15.3737 10.2213 10.4791 13.6284 6.56335 19.2379C-4.75083 35.4263 -0.119755 59.0124 10.4791 73.6761C13.4723 77.7985 22.0191 87.2857 34.877 91.9163C46.0782 95.9634 55.9429 89.6011 63.4354 96.3023C66.617 99.1635 65.2804 100.387 68.7443 104.98C76.2933 114.975 90.7513 119.926 102.687 119.154C109.483 118.721 111.497 116.688 117.446 117.968C123 119.154 124.619 121.62 131.226 125.837C144.8 134.477 148.922 130.994 158.938 139.089C161.14 140.877 164.096 143.964 170.007 150.157C177.537 158.044 179.363 160.717 183.505 161.583C189.115 162.75 195.949 159.945 196.739 156.294C197.022 154.976 196.551 153.564 189.736 145.658C186.743 142.176 184.107 139.296 182.131 137.187C184.503 137.47 187.986 137.696 192.014 137.225C193.991 136.999 199.432 136.133 205.136 133.084C207.357 131.898 219.857 124.914 222.945 112.095C225.053 103.324 221.1 98.787 225.147 90.7493C226.936 87.1916 229.364 84.7822 231.115 83.3139C235.501 83.2198 238.382 75.2385 239.474 72.2832C244.782 57.883 239.248 39.5863 239.248 39.5863C237.252 33.3557 233.355 23.8873 225.561 14.4002C220.064 7.71773 214.323 3.08709 209.804 0C188.588 8.54598 154.853 19.2002 112.269 20.612C72.547 21.9296 40.1859 14.7202 18.9694 8.22597L19.007 8.20713Z" fill="url(#paint0_linear_228_54)"/>
<defs>
<linearGradient id="paint0_linear_228_54" x1="16.4844" y1="-43.2381" x2="262.289" y2="168.252" gradientUnits="userSpaceOnUse">
<stop stop-color="#E96743"/>
<stop offset="0.3" stop-color="#E76642"/>
<stop offset="0.41" stop-color="#E06340"/>
<stop offset="0.49" stop-color="#D45D3D"/>
<stop offset="0.55" stop-color="#C35638"/>
<stop offset="0.61" stop-color="#AD4C31"/>
<stop offset="0.66" stop-color="#92402A"/>
<stop offset="0.7" stop-color="#713220"/>
<stop offset="0.74" stop-color="#4C2115"/>
<stop offset="0.77" stop-color="#230F0A"/>
<stop offset="0.8"/>
</linearGradient>
</defs>
</svg>
