<svg width="542" height="682" viewBox="0 0 542 682" fill="none" xmlns="http://www.w3.org/2000/svg">
<g clip-path="url(#clip0_161_102)">
<path d="M418.829 316.631L422.579 320.475C401.319 341.263 384.102 365.421 371.37 392.25C358.402 419.597 350.558 448.773 348.085 478.954L342.729 478.522C345.267 447.693 353.269 417.895 366.514 389.949C379.511 362.535 397.104 337.853 418.815 316.62L418.829 316.631Z" fill="url(#paint0_linear_161_102)"/>
<path d="M390.683 354.5C408.794 345.085 425.726 340.555 440.948 338.865C470.81 335.536 500.023 342.423 529.978 349.515C529.978 349.515 549.353 354.09 585.237 356.582C589.994 356.917 601.329 357.556 612.245 351.216C615.135 349.546 624.808 343.924 624.937 336.282C624.998 332.481 622.643 331.499 620.156 322.542C618.986 318.32 618.328 315.907 618.41 312.729C618.569 306.258 621.649 304.485 624.009 297.28C624.58 295.555 624.591 295.068 625.669 278.383C626.573 264.468 626.673 263.037 625.605 260.514C622.834 253.995 618.512 254.89 616.239 248.751C613.743 241.991 618.4 239.415 616.702 230.809C615.336 223.921 611.081 219.264 607.652 215.53C603.415 210.91 599.926 207.107 594.313 205.919C589.437 204.885 586.382 206.565 583.938 204.165C581.644 201.923 581.898 198.134 582.027 196.163C582.378 191.007 584.72 189.819 586.111 185.186C587.969 178.994 587.078 170.126 582.161 166.249C580.575 164.997 577.003 162.189 572.829 162.476C571.969 162.543 570.708 162.753 570.127 162.04C569.18 160.892 570.781 158.286 571.288 157.118C574.141 150.741 566.092 140.024 561.123 135.095C558.864 132.836 548.909 122.942 537.442 124.543C533.871 125.042 530.205 126.64 528.579 127.36C527.254 127.949 522.851 129.954 518.21 133.689C509.713 140.543 499.376 154.096 495.248 164.658C494.708 166.047 493.221 170.067 490.261 170.65C488.556 170.972 487.013 170.046 486.571 169.709C482.137 166.47 488.491 153.013 490.758 139.639C491.248 136.75 495.89 106.937 479.875 92.071C474.019 86.6241 463.427 81.3756 458.038 84.677C456.161 85.814 455.136 87.8694 451.873 88.8502C448.609 89.8311 447.424 88.4346 443.209 88.3322C437.972 88.216 431.852 90.1733 427.885 94.175C425.469 96.6111 426.229 97.4147 424.048 98.9506C420.641 101.33 418.306 99.7324 411.959 101.427C406.796 102.808 406.767 104.294 403.873 104.139C399.448 103.898 399.056 100.428 394.195 99.1359C388.106 97.5397 382.223 101.252 380.731 102.209C377.661 104.148 375.947 106.398 373.431 109.704C368.021 116.814 367.974 120.536 364.59 121.38C362.489 121.897 360.6 120.865 356.83 118.76C349.389 114.628 348.974 110.981 345.153 110.863C341.357 110.742 340.768 114.321 335.161 115.162C331.106 115.766 330.439 114.043 326.976 114.31C322.364 114.671 320.916 117.933 311.37 126.666C305.562 131.965 302.603 134.642 299.13 135.779C294.007 137.46 292.033 135.89 288.739 138.153C284.544 141.036 285.59 145.095 282.012 149.797C278.151 154.869 273.909 154.183 267.757 157.601C257.436 163.336 251.2 175.398 250.254 185.028C249.353 194.333 253.294 202.237 257.057 208.071C278.932 242.023 326.624 256.021 357.004 287.804C368.305 299.622 382.885 319.831 390.698 354.511L390.683 354.5Z" fill="url(#paint1_linear_161_102)"/>
<path d="M219.13 483.511L221.31 480.303C239.087 492.352 258.667 501.054 279.49 506.196C300.713 511.431 322.494 512.776 344.21 510.175L344.677 514.028C322.492 516.676 300.25 515.31 278.562 509.965C257.286 504.719 237.282 495.827 219.124 483.523L219.13 483.511Z" fill="url(#paint2_linear_161_102)"/>
<path d="M249.988 497.971C240.714 486.511 235.067 475.181 231.676 464.652C225.015 443.998 225.677 422.33 226.377 400.107C226.377 400.107 226.822 385.735 223.411 359.98C222.963 356.565 221.781 348.451 215.72 341.639C214.12 339.835 208.748 333.8 203.32 334.81C200.622 335.315 200.267 337.123 194.285 340.175C191.467 341.611 189.854 342.425 187.593 342.826C182.99 343.645 181.291 341.721 175.851 341.09C174.549 340.935 174.202 340.997 162.239 342.639C152.26 344.007 151.232 344.142 149.601 345.262C145.387 348.162 146.644 351.092 142.627 353.586C138.202 356.327 135.708 353.403 129.863 355.846C125.184 357.805 122.502 361.488 120.354 364.453C117.695 368.118 115.506 371.135 115.474 375.279C115.446 378.88 117.076 380.799 115.729 382.874C114.474 384.821 111.755 385.188 110.341 385.381C106.642 385.876 105.464 384.39 101.984 384.073C97.334 383.651 91.186 385.561 89.1517 389.599C88.4934 390.903 87.0215 393.835 87.8272 396.748C87.9979 397.346 88.3285 398.209 87.9079 398.723C87.2314 399.559 85.1564 398.801 84.257 398.611C79.3318 397.511 72.9084 404.752 70.1363 408.98C68.8631 410.904 63.2961 419.376 66.0824 427.261C66.9508 429.717 68.6101 432.08 69.3539 433.128C69.962 433.981 72.0154 436.807 75.3285 439.553C81.4039 444.579 92.4865 449.941 100.556 451.339C101.617 451.521 104.677 451.993 105.516 454.005C105.99 455.165 105.556 456.391 105.383 456.751C103.729 460.356 93.2886 457.8 83.4977 458.124C81.3821 458.193 59.6133 459.207 51.4012 472.685C48.3907 477.615 46.2035 485.867 49.3168 489.205C50.392 490.37 51.9943 490.798 53.1592 492.967C54.3241 495.135 53.5065 496.175 54.0416 499.173C54.7146 502.897 56.9824 506.946 60.3862 509.176C62.4588 510.534 62.9177 509.881 64.3189 511.203C66.4944 513.27 65.7006 515.154 67.8153 519.401C69.5367 522.856 70.5921 522.663 70.8998 524.733C71.3679 527.899 68.9679 528.677 68.7546 532.304C68.5026 536.844 71.9786 540.471 72.8706 541.39C74.6855 543.283 76.5259 544.171 79.2279 545.475C85.0395 548.28 87.6812 547.775 88.7666 550.049C89.4343 551.461 88.9759 552.947 88.0306 555.918C86.1787 561.78 83.6576 562.6 84.1248 565.321C84.5868 568.025 87.2046 567.927 88.6082 571.773C89.6203 574.556 88.4971 575.276 89.1858 577.688C90.1056 580.9 92.6231 581.456 100.18 586.952C104.768 590.299 107.089 592.006 108.394 594.3C110.323 597.684 109.496 599.307 111.573 601.313C114.218 603.866 116.94 602.54 120.783 604.395C124.93 606.395 125.055 609.496 128.362 613.358C133.909 619.835 143.344 622.51 150.297 621.791C157.011 621.087 162.038 617.158 165.624 613.654C186.498 593.276 189.528 557.506 207.643 531.422C214.377 521.721 226.577 508.489 249.994 497.959L249.988 497.971Z" fill="url(#paint3_linear_161_102)"/>
<path d="M368.633 435.752L373.102 435.987C371.829 460.74 374.936 485.272 382.302 508.904C389.815 532.987 401.501 555.295 417.047 575.183L413.521 577.946C397.65 557.625 385.709 534.846 378.026 510.239C370.493 486.098 367.319 461.033 368.617 435.753L368.633 435.752Z" fill="url(#paint4_linear_161_102)"/>
<path d="M372.795 474.86C378.568 458.855 386.381 446.51 394.75 436.87C411.163 417.951 432.952 405.658 455.313 393.07C455.313 393.07 469.768 384.921 493.16 366.164C496.263 363.681 503.569 357.665 506.673 347.61C507.499 344.953 510.246 336.042 506.006 331.288C503.895 328.924 501.898 329.654 495.31 325.571C492.208 323.647 490.44 322.541 488.694 320.548C485.134 316.493 486.019 313.665 483.391 307.918C482.767 306.539 482.498 306.234 473.728 295.403C466.416 286.368 465.668 285.434 463.587 284.493C458.205 282.065 456.063 285.056 451.201 282.58C445.85 279.85 447.247 275.639 441.342 271.328C436.612 267.879 431.373 267.432 427.162 267.082C421.954 266.647 417.668 266.289 413.557 268.733C409.985 270.857 409.064 273.613 406.21 273.524C403.537 273.448 401.551 270.983 400.516 269.702C397.816 266.345 398.58 264.294 396.813 260.669C394.452 255.825 388.892 250.897 383.69 251.301C382.009 251.43 378.234 251.728 375.839 254.265C375.35 254.791 374.696 255.632 373.937 255.525C372.709 255.356 372.216 252.855 371.867 251.853C370.009 246.332 359.021 244.318 353.191 244.106C350.531 244 338.839 243.565 332.719 251.027C330.813 253.352 329.471 256.403 328.881 257.764C328.403 258.873 326.838 262.59 326.107 267.502C324.775 276.504 326.103 290.65 329.545 299.453C329.999 300.609 331.361 303.913 329.877 305.943C329.014 307.105 327.545 307.409 327.085 307.453C322.537 307.974 318.822 296.138 312.652 286.665C311.319 284.618 297.312 263.729 279.097 263.675C272.431 263.648 262.975 266.42 261.54 271.489C261.033 273.246 261.567 275.084 260.121 277.53C258.676 279.976 257.162 279.79 254.521 282.11C251.247 284.999 248.604 289.658 248.436 294.351C248.333 297.209 249.252 297.272 248.785 299.446C248.043 302.829 245.709 303.171 242.779 307.796C240.396 311.561 241.218 312.487 239.358 314.028C236.511 316.382 234.309 314.478 230.601 316.434C225.968 318.897 224.464 324.497 224.09 325.927C223.304 328.85 223.527 331.198 223.855 334.645C224.559 342.059 226.634 344.365 225.038 346.796C224.043 348.3 222.302 348.735 218.803 349.577C211.909 351.251 209.593 349.252 207.185 351.34C204.791 353.411 206.454 355.936 203.494 359.621C201.351 362.283 199.969 361.605 197.999 363.726C195.377 366.553 196.333 369.371 195.422 380.116C194.859 386.646 194.559 389.958 193.075 392.618C190.887 396.543 188.79 396.697 188.05 399.946C187.111 404.084 190.046 405.978 190.511 410.882C191.014 416.171 188.027 418.149 186.189 423.721C183.109 433.068 186.107 443.982 190.971 450.417C195.678 456.626 202.561 459.241 208.164 460.688C240.756 469.122 277.885 450.74 314.462 453.039C328.066 453.891 348.42 458.03 372.81 474.859L372.795 474.86Z" fill="url(#paint5_linear_161_102)"/>
</g>
<defs>
<linearGradient id="paint0_linear_161_102" x1="410.802" y1="313.447" x2="345.117" y2="479.45" gradientUnits="userSpaceOnUse">
<stop/>
<stop offset="0.23" stop-color="#272521"/>
<stop offset="1" stop-color="#89C23E"/>
</linearGradient>
<linearGradient id="paint1_linear_161_102" x1="523.799" y1="42.2703" x2="391.076" y2="377.654" gradientUnits="userSpaceOnUse">
<stop stop-color="#8CC63F"/>
<stop offset="0.1" stop-color="#88C03D"/>
<stop offset="0.22" stop-color="#7EB238"/>
<stop offset="0.35" stop-color="#6C9930"/>
<stop offset="0.49" stop-color="#547726"/>
<stop offset="0.64" stop-color="#354C18"/>
<stop offset="0.78" stop-color="#101707"/>
<stop offset="0.84"/>
</linearGradient>
<linearGradient id="paint2_linear_161_102" x1="218.034" y1="489.651" x2="344.989" y2="512.204" gradientUnits="userSpaceOnUse">
<stop/>
<stop offset="0.23" stop-color="#272521"/>
<stop offset="1" stop-color="#89C23E"/>
</linearGradient>
<linearGradient id="paint3_linear_161_102" x1="9.82301" y1="448.778" x2="266.319" y2="494.354" gradientUnits="userSpaceOnUse">
<stop stop-color="#8CC63F"/>
<stop offset="0.1" stop-color="#88C03D"/>
<stop offset="0.22" stop-color="#7EB238"/>
<stop offset="0.35" stop-color="#6C9930"/>
<stop offset="0.49" stop-color="#547726"/>
<stop offset="0.64" stop-color="#354C18"/>
<stop offset="0.78" stop-color="#101707"/>
<stop offset="0.84"/>
</linearGradient>
<linearGradient id="paint4_linear_161_102" x1="361.914" y1="438.339" x2="415.508" y2="577.164" gradientUnits="userSpaceOnUse">
<stop/>
<stop offset="0.23" stop-color="#272521"/>
<stop offset="1" stop-color="#89C23E"/>
</linearGradient>
<linearGradient id="paint5_linear_161_102" x1="277.856" y1="208.337" x2="386.123" y2="488.823" gradientUnits="userSpaceOnUse">
<stop stop-color="#8CC63F"/>
<stop offset="0.1" stop-color="#88C03D"/>
<stop offset="0.22" stop-color="#7EB238"/>
<stop offset="0.35" stop-color="#6C9930"/>
<stop offset="0.49" stop-color="#547726"/>
<stop offset="0.64" stop-color="#354C18"/>
<stop offset="0.78" stop-color="#101707"/>
<stop offset="0.84"/>
</linearGradient>
<clipPath id="clip0_161_102">
<rect width="542" height="681.496" fill="white"/>
</clipPath>
</defs>
</svg>
