<svg width="218" height="220" viewBox="0 0 218 220" fill="none" xmlns="http://www.w3.org/2000/svg">
<g clip-path="url(#clip0_228_76)">
<path d="M113.738 124.294L115.868 125.287C110.383 137.088 107.075 149.643 106.017 162.597C104.941 175.799 106.248 188.957 109.908 201.695L107.648 202.348C103.914 189.334 102.577 175.897 103.672 162.407C104.749 149.172 108.13 136.344 113.73 124.291L113.738 124.294Z" fill="url(#paint0_linear_228_76)"/>
<path d="M108.078 144.153C114.035 137.495 120.265 133.02 126.234 129.971C137.944 123.985 150.968 122.282 164.329 120.548C164.329 120.548 172.969 119.421 188.044 114.886C190.043 114.286 194.783 112.793 198.27 108.508C199.194 107.376 202.283 103.578 201.153 100.429C200.59 98.8638 199.474 98.8264 197.069 95.5444C195.936 93.9977 195.293 93.1117 194.835 91.7981C193.898 89.1243 194.885 87.9215 194.735 84.6069C194.702 83.8122 194.631 83.6113 192.489 76.6142C190.705 70.7779 190.525 70.1765 189.696 69.309C187.553 67.0695 185.922 68.1052 184.042 65.9437C181.973 63.5629 183.481 61.7875 181.453 58.5276C179.828 55.9189 177.365 54.6717 175.383 53.6737C172.933 52.4385 170.916 51.4219 168.435 51.8041C166.278 52.1358 165.288 53.2967 163.916 52.6926C162.63 52.1303 162.147 50.5398 161.895 49.7127C161.24 47.5478 162.015 46.699 161.867 44.5867C161.669 41.7646 159.931 38.2721 157.319 37.4463C156.475 37.1792 154.579 36.5826 152.914 37.3468C152.573 37.5068 152.089 37.7881 151.74 37.5865C151.175 37.2631 151.427 35.9482 151.454 35.392C151.635 32.3392 146.681 29.1986 143.883 27.95C142.609 27.3749 137.002 24.8659 132.556 27.2965C131.171 28.0538 129.918 29.2754 129.363 29.8218C128.912 30.2682 127.42 31.7703 126.099 34.0181C123.681 38.1391 121.548 45.2877 121.493 50.2503C121.487 50.9025 121.501 52.7787 120.379 53.4753C119.731 53.8712 118.956 53.7307 118.723 53.6616C116.407 53.0219 116.924 46.5292 115.782 40.7039C115.535 39.4453 112.82 26.5222 103.962 22.916C100.722 21.5929 95.5734 21.0842 93.8783 23.2699C93.2861 24.0258 93.1848 25.0258 92.0006 25.9327C90.8164 26.8396 90.1152 26.4513 88.374 27.0618C86.2117 27.8251 84.0096 29.574 83.0053 31.8261C82.3934 33.1975 82.8287 33.4086 82.174 34.3749C81.1478 35.8765 79.9445 35.5842 77.6087 37.2606C75.7087 38.6251 75.9267 39.2377 74.7181 39.6223C72.8696 40.2091 72.1716 38.8489 69.9819 39.0726C67.2421 39.3617 65.4088 41.7925 64.946 42.4152C63.989 43.684 63.6362 44.8708 63.1181 46.6134C62.0038 50.3616 62.5612 51.8926 61.3064 52.7622C60.5263 53.2987 59.5932 53.1685 57.7241 52.8908C54.0384 52.351 53.3036 50.9225 51.7212 51.4658C50.1485 52.0038 50.4615 53.5603 48.2965 54.7724C46.7298 55.6474 46.1901 55.0454 44.8142 55.691C42.982 56.5524 42.8939 58.1122 40.3383 63.1651C38.7808 66.2338 37.9842 67.7873 36.7387 68.7905C34.9019 70.2719 33.8507 69.9348 32.852 71.3711C31.5813 73.2006 32.638 74.7002 31.9011 77.179C31.1061 79.853 29.2632 80.2289 27.2738 82.5806C23.9367 86.5263 23.2514 92.4295 24.355 96.5183C25.4267 100.467 28.2636 103.092 30.7074 104.898C44.9185 115.41 66.6089 113.757 83.9659 122.064C90.4216 125.153 99.5184 131.168 108.086 144.155L108.078 144.153Z" fill="url(#paint1_linear_228_76)"/>
</g>
<defs>
<linearGradient id="paint0_linear_228_76" x1="109.959" y1="124.233" x2="108.77" y2="202.357" gradientUnits="userSpaceOnUse">
<stop/>
<stop offset="0.23" stop-color="#272521"/>
<stop offset="1" stop-color="#89C23E"/>
</linearGradient>
<linearGradient id="paint1_linear_228_76" x1="114.234" y1="-4.27078" x2="111.824" y2="153.571" gradientUnits="userSpaceOnUse">
<stop stop-color="#8CC63F"/>
<stop offset="0.1" stop-color="#88C03D"/>
<stop offset="0.22" stop-color="#7EB238"/>
<stop offset="0.35" stop-color="#6C9930"/>
<stop offset="0.49" stop-color="#547726"/>
<stop offset="0.64" stop-color="#354C18"/>
<stop offset="0.78" stop-color="#101707"/>
<stop offset="0.84"/>
</linearGradient>
<clipPath id="clip0_228_76">
<rect width="173.767" height="177.704" fill="white" transform="matrix(-0.958535 -0.284973 0.284975 -0.958535 166.562 219.854)"/>
</clipPath>
</defs>
</svg>
