<svg width="179" height="206" viewBox="0 0 179 206" fill="none" xmlns="http://www.w3.org/2000/svg">
<path d="M26.0009 16.8896C21.1439 22.4049 16.2681 27.9203 11.4111 33.4356C18.0377 33.2286 24.1183 36.6357 26.9798 42.1887C30.2555 48.5323 27.8646 54.8194 27.4693 55.8171C19.3555 55.9865 11.2604 56.1371 3.1466 56.3065C2.3371 61.6525 1.52764 67.0172 0.71814 72.3631C15.628 73.5302 25.2291 74.2832 25.3232 74.2832C25.3232 74.2832 25.4738 74.2832 25.5303 74.2832C25.2667 75.4126 25.0031 76.5609 24.7584 77.6903C17.6611 78.4621 10.5828 79.2526 3.4855 80.0244C3.88084 85.4645 4.25734 90.9046 4.65268 96.3447C10.4886 96.4388 16.3057 96.5329 22.1417 96.627C21.4263 97.474 9.2838 112.458 15.4398 131.018C21.1816 148.336 37.8234 153.588 39.3482 154.039C41.2496 159.762 45.3913 169.588 54.5029 178.529C70.3164 194.021 89.7444 195.734 95.3167 196.016C112.373 203.791 126.379 205.41 134.963 205.635C144.753 205.899 149.497 204.412 152.735 201.268C157.366 196.769 157.893 189.993 158.27 184.948C158.608 180.506 158.269 176.139 156.236 167.762C154.693 161.343 152.132 152.477 147.784 142.124C157.102 140.467 166.44 138.83 175.758 137.173C176.417 136.082 179.335 130.905 177.792 124.354C176.549 119.065 173.142 115.997 171.956 115.037C167.494 115.225 163.013 115.432 158.552 115.62C161.169 113.004 163.804 110.368 166.421 107.752C166.402 106.622 166.176 101.502 162.053 97.267C157.987 93.0882 152.998 92.674 151.85 92.5987C145.826 97.267 139.802 101.917 133.777 106.585C134.116 103.197 134.455 95.3282 130.276 86.7633C125.249 76.4479 116.853 71.6478 113.954 70.1419C122.802 67.996 131.631 65.869 140.479 63.7231C140.197 58.0948 139.896 52.4477 139.613 46.8194C131.161 48.0806 122.708 49.3417 114.255 50.6029C114.519 49.9064 118.133 40.0239 111.921 31.6662C107.346 25.492 100.55 24.3062 99.1007 24.0803C98.8183 16.3061 98.5171 8.53183 98.2347 0.757622C93.2835 0.663503 88.3324 0.569338 83.3624 0.47522C82.007 5.63293 80.6327 10.7719 79.2773 15.9296C77.9218 11.4683 76.5476 6.98829 75.1922 2.52706C71.5965 3.39295 68.0008 4.2777 64.4051 5.14359C64.2169 9.32246 64.0098 13.5013 63.8216 17.6802C61.5813 15.5342 59.3599 13.4072 57.1196 11.2613C53.4298 13.4072 49.7399 15.5342 46.0501 17.6802C47.3114 20.1084 48.5727 22.5367 49.834 24.9649C50.7 26.885 50.1164 29.125 48.5351 30.2733C46.7466 31.5909 44.0546 31.2333 42.5486 29.3321C37.0515 25.1908 31.5356 21.0497 26.0385 16.9084L26.0009 16.8896Z" fill="url(#paint0_radial_161_58)"/>
<defs>
<radialGradient id="paint0_radial_161_58" cx="0" cy="0" r="1" gradientUnits="userSpaceOnUse" gradientTransform="translate(91.1939 108.317) scale(134.961 134.948)">
<stop offset="0.06" stop-color="#E96743"/>
<stop offset="0.34" stop-color="#E76642"/>
<stop offset="0.44" stop-color="#E06340"/>
<stop offset="0.51" stop-color="#D45D3D"/>
<stop offset="0.57" stop-color="#C35638"/>
<stop offset="0.62" stop-color="#AD4C31"/>
<stop offset="0.67" stop-color="#92402A"/>
<stop offset="0.71" stop-color="#713220"/>
<stop offset="0.74" stop-color="#4C2115"/>
<stop offset="0.78" stop-color="#230F0A"/>
<stop offset="0.8"/>
</radialGradient>
</defs>
</svg>
