<svg width="826" height="2888" viewBox="0 0 826 2888" fill="none" xmlns="http://www.w3.org/2000/svg">
<path d="M332 93.1963C352.953 97.1869 366.206 106.222 373.134 111.945C393.711 128.924 400.695 151.343 407.171 172.237C413.101 191.325 414.965 207.776 415.605 218.675C417.299 214.082 418.862 208.605 419.84 202.336C422.156 187.654 420.198 175.193 418.109 167.004C424.98 173.705 435.334 185.809 440.85 203.654C453.632 245.029 429.159 280.907 425.563 286.008C416.866 283.617 400.431 277.782 385.503 263.175C382.152 259.899 368.352 245.895 361.406 222.478C351.391 188.67 367.261 174.383 360.352 142.646C357.716 130.524 351.089 112.754 332 93.2151V93.1963Z" fill="url(#paint0_linear_228_63)"/>
<path d="M516.077 110.176C498.72 117.404 488.93 127.606 483.979 133.781C469.295 152.153 467.338 172.765 465.511 191.946C463.836 209.49 465.21 224.022 466.641 233.546C464.363 229.895 462.01 225.452 460.033 220.219C455.383 207.965 454.819 196.859 455.139 189.424C450.413 196.445 443.674 208.774 442.149 225.151C438.591 263.156 466.208 289.698 470.237 293.444C477.315 289.792 490.437 281.792 500.678 266.507C502.974 263.062 512.35 248.492 514.1 227.033C516.623 196.05 500.358 186.6 500.584 157.95C500.659 147.014 503.181 130.486 516.115 110.157L516.077 110.176Z" fill="url(#paint1_linear_228_63)"/>
<path d="M214.133 137.621C232.902 138.731 245.515 145.131 252.217 149.348C272.135 161.866 280.776 180.671 288.833 198.195C296.194 214.214 299.677 228.37 301.484 237.838C302.444 233.641 303.197 228.671 303.348 223.08C303.705 209.979 300.561 199.325 297.832 192.398C304.609 197.48 315.038 206.892 321.872 221.857C337.742 256.568 320.422 290.714 317.862 295.59C309.993 294.479 294.951 291.241 280.249 280.173C276.935 277.688 263.287 267.015 254.571 247.325C241.976 218.92 254.213 204.614 244.574 177.64C240.884 167.343 233.072 152.567 214.171 137.639L214.133 137.621Z" fill="url(#paint2_linear_228_63)"/>
<path d="M340.227 416.494C340.058 416.494 339.888 416.457 339.719 416.438C336.669 415.967 334.598 413.125 335.069 410.075C339.323 382.687 342.185 354.658 343.559 326.724C347.305 250.902 349.376 209.132 323.811 178.995C308.807 161.301 285.03 149.329 255.079 144.359C252.048 143.851 249.996 140.99 250.485 137.959C250.994 134.928 253.855 132.877 256.886 133.366C289.473 138.769 315.547 152.058 332.301 171.785C360.728 205.292 358.45 251.203 354.685 327.288C353.292 355.599 350.393 384.023 346.082 411.788C345.63 414.668 343.07 416.682 340.227 416.494V416.494Z" fill="url(#paint3_linear_228_63)"/>
<path d="M195.722 121.978C199.223 127.795 210.217 144.265 231.773 152.51C263.569 164.67 291.808 148.745 295.648 146.505C295.46 144.341 293.088 121.771 272.605 109.799C254.138 98.9942 235.5 105.319 232.902 106.26C233.411 108.594 234.277 111.568 235.839 114.806C237.42 118.119 239.228 120.698 240.771 122.561C235.161 120.434 225.73 117.724 213.983 118.345C206.509 118.74 200.296 120.359 195.759 121.959L195.722 121.978Z" fill="url(#paint4_linear_228_63)"/>
<path d="M223.866 73.6196C230.624 74.222 250.259 76.895 267.108 92.6504C291.977 115.898 290.019 148.275 289.68 152.698C287.647 153.47 266.318 161.225 246.588 148.049C228.779 136.171 226.313 116.651 226.012 113.902C228.328 113.338 231.396 112.811 234.992 112.792C238.663 112.773 241.769 113.262 244.122 113.827C239.755 109.705 233.185 102.42 228.591 91.5775C225.673 84.688 224.412 78.382 223.847 73.6196H223.866Z" fill="url(#paint5_linear_228_63)"/>
<path d="M193.406 152.435C198.132 157.31 212.552 170.882 235.406 174.063C269.123 178.75 293.05 156.877 296.288 153.828C295.61 151.757 288.231 130.317 265.565 123.258C245.139 116.895 228.403 127.248 226.088 128.754C227.104 130.919 228.629 133.611 230.869 136.434C233.166 139.296 235.5 141.404 237.421 142.891C231.472 142.082 221.682 141.573 210.368 144.811C203.158 146.882 197.491 149.856 193.425 152.435H193.406Z" fill="url(#paint6_linear_228_63)"/>
<path d="M249.959 62.0242C256.416 64.1324 274.959 71.0972 287.873 90.2033C306.925 118.42 297.813 149.536 296.496 153.771C294.331 154.072 271.834 156.877 255.531 139.635C240.828 124.086 242.767 104.509 243.087 101.761C245.478 101.723 248.566 101.893 252.086 102.683C255.663 103.474 258.6 104.66 260.765 105.714C257.414 100.726 252.651 92.161 250.58 80.5656C249.262 73.1867 249.45 66.7678 249.959 62.0054V62.0242Z" fill="url(#paint7_linear_228_63)"/>
<path d="M298.792 158.891C300.618 155.653 302.425 152.416 304.251 149.178C305.099 142.533 303.536 136.34 299.733 134.326C293.954 131.277 284.503 138.599 281.359 146.336C280.625 148.143 278.667 152.924 280.945 156.557C283.543 160.717 290.923 162.166 298.811 158.91L298.792 158.891Z" fill="url(#paint8_linear_228_63)"/>
<path d="M442.073 379.393C442.243 379.355 442.393 379.298 442.563 379.242C445.462 378.207 446.987 375.025 445.951 372.127C436.689 345.999 428.688 318.987 422.156 291.806C404.403 217.998 394.633 177.338 414.155 142.966C425.62 122.806 446.761 106.618 475.282 96.1893C478.162 95.1351 479.649 91.9351 478.595 89.0363C477.541 86.1562 474.34 84.6691 471.441 85.7233C440.417 97.074 417.261 114.975 404.46 137.47C382.754 175.663 393.503 220.37 411.312 294.422C417.939 321.98 426.053 349.369 435.447 375.854C436.426 378.602 439.306 380.108 442.073 379.393V379.393Z" fill="url(#paint9_linear_228_63)"/>
<path d="M529.462 63.1722C527.089 69.5346 519.352 87.756 499.717 99.8597C470.726 117.705 440.021 107.295 435.842 105.808C435.635 103.643 433.771 81.0359 451.674 65.4687C467.827 51.4262 487.311 54.1933 490.041 54.6262C489.984 57.0168 489.664 60.1039 488.742 63.5863C487.8 67.1252 486.502 70.0052 485.334 72.1323C490.455 69.0076 499.209 64.584 510.881 63.0216C518.298 62.0239 524.699 62.4569 529.462 63.191V63.1722Z" fill="url(#paint10_linear_228_63)"/>
<path d="M492.827 20.8755C486.294 22.7202 467.507 28.9885 453.877 47.5864C433.752 75.0502 441.678 106.486 442.826 110.778C444.972 111.173 467.356 114.825 484.299 98.2223C499.585 83.2574 498.399 63.6054 498.173 60.8571C495.783 60.7254 492.695 60.7818 489.156 61.4218C485.541 62.0807 482.586 63.1536 480.364 64.1325C483.904 59.2759 488.986 50.8994 491.49 39.3981C493.09 32.0756 493.147 25.6567 492.808 20.8755H492.827Z" fill="url(#paint11_linear_228_63)"/>
<path d="M537.387 92.6879C533.641 98.3539 521.988 114.373 500.131 121.733C467.864 132.594 440.304 115.54 436.557 113.149C436.84 110.985 440.115 88.5467 461.068 77.4031C479.969 67.3512 498.324 74.4477 500.884 75.483C500.282 77.7984 499.284 80.7349 497.609 83.9161C495.895 87.1538 493.975 89.6573 492.375 91.4644C498.079 89.5632 507.605 87.2479 519.314 88.3397C526.769 89.0361 532.907 90.9185 537.387 92.6879V92.6879Z" fill="url(#paint12_linear_228_63)"/>
<path d="M465.041 14.3247C459.092 17.5812 442.168 27.8778 433.018 49.0545C419.539 80.3019 434.261 109.196 436.35 113.112C438.534 113.018 461.163 111.587 473.983 91.6338C485.561 73.6195 480.007 54.7581 479.179 52.104C476.825 52.5181 473.813 53.2522 470.5 54.6828C467.13 56.1323 464.476 57.8264 462.537 59.2758C464.89 53.7416 467.996 44.4427 467.883 32.6779C467.808 25.186 466.434 18.9177 465.041 14.3247Z" fill="url(#paint13_linear_228_63)"/>
<path d="M435.014 118.552C432.623 115.71 430.232 112.867 427.86 110.025C425.789 103.644 426.166 97.2812 429.554 94.5894C434.656 90.5234 445.312 95.9635 449.83 102.985C450.884 104.622 453.689 108.952 452.126 112.943C450.338 117.498 443.372 120.303 435.014 118.571V118.552Z" fill="url(#paint14_linear_228_63)"/>
<path d="M346.911 347.129C343.842 346.752 341.639 343.985 341.978 340.898C346.647 298.545 354.14 256.907 364.211 217.132C366.489 208.134 368.711 199.965 370.857 192.078C380.571 156.369 386.971 132.783 378.669 104.51C373.022 85.2529 361.632 67.4833 344.821 51.7278C342.543 49.6007 342.43 46.0242 344.557 43.7465C346.685 41.4689 350.262 41.3559 352.539 43.483C370.838 60.6314 383.263 80.0952 389.494 101.31C398.7 132.632 391.584 158.797 381.738 195.014C379.611 202.864 377.408 210.958 375.149 219.88C365.19 259.166 357.811 300.277 353.198 342.122C352.859 345.228 350.073 347.449 346.967 347.11H346.911V347.129Z" fill="url(#paint15_linear_228_63)"/>
<path d="M377.785 296.512C364.324 300.333 353.104 300.22 346.195 299.637C337.291 298.865 323.642 297.698 311.406 287.872C306.888 284.239 303.838 280.455 301.993 277.839C309.071 276.747 316.169 275.655 323.247 274.582C319.011 274.131 306.097 272.21 294.896 261.556C281.454 248.794 280.099 232.624 279.892 228.954C283.149 229.801 304.61 235.429 304.61 235.429C291.488 213.255 290.378 210.807 290.378 210.807C286.179 201.452 283.469 187.089 289.982 165.047C293.258 171.936 298.567 181.179 306.944 190.591C315.416 200.097 324.057 206.459 330.57 210.525C331.813 207.043 334.204 198.836 331.7 189.104C330.401 184.04 328.179 180.181 326.391 177.64C328.499 177.565 342.148 177.282 351.655 187.767C360.484 197.499 362.16 212.52 355.646 225.377C356.625 225.471 362.649 225.979 367.374 221.612C371.535 217.772 373.078 211.654 371.384 205.913C375.883 214.309 382.623 229.443 384.223 249.547C385.917 270.723 381.117 287.477 377.785 296.55V296.512Z" fill="url(#paint16_linear_228_63)"/>
<path d="M398.153 298.601C388.703 288.286 383.79 278.196 381.229 271.74C377.935 263.439 372.871 250.695 376.184 235.354C377.408 229.688 379.441 225.264 380.947 222.44C385.088 228.295 389.23 234.149 393.372 239.984C391.885 235.994 387.818 223.589 392.336 208.793C397.739 191.061 411.595 182.628 414.795 180.783C415.492 184.078 420.066 205.781 420.066 205.781C434.016 184.115 435.711 182.045 435.711 182.045C442.187 174.101 453.84 165.254 476.468 161.226C471.78 167.249 465.869 176.115 461.2 187.824C456.494 199.645 454.668 210.224 453.934 217.866C457.605 217.433 466.001 215.89 473.588 209.283C477.541 205.838 479.988 202.148 481.476 199.419C482.492 201.264 488.855 213.349 483.716 226.544C478.972 238.779 466.265 247.005 451.863 246.949C452.221 247.871 454.461 253.481 460.485 255.758C465.775 257.754 471.95 256.417 476.317 252.314C470.82 260.088 460.297 272.888 443.034 283.316C424.848 294.291 407.717 297.51 398.116 298.582L398.153 298.601Z" fill="url(#paint17_linear_228_63)"/>
<path d="M356.079 58.8243C356.267 59.4643 358.808 68.3679 352.859 75.3515C347.984 81.074 339.7 82.8246 332.848 79.8504C325.412 76.6127 321.703 68.6503 322.607 61.3843C323.642 53.1019 330.589 46.363 339.38 45.4406C338.1 45.6853 327.313 47.6241 318.823 40.0382C313.495 35.2758 310.012 27.5768 311.311 20.2168C311.613 18.485 312.403 14.4379 315.848 11.2943C315.848 11.2943 319.595 7.88721 324.979 7.60485C333.017 7.19073 342.355 17.205 347.362 32.584C346.496 31.3981 340.999 23.6239 343.447 13.9861C343.842 12.4614 346.327 2.65421 354.817 0.433007C362.272 -1.52466 370.348 3.42598 373.191 9.84488C376.862 18.052 372.419 29.7228 361.482 34.7864C366.32 30.6075 372.946 29.4592 378.481 31.8499C385.541 34.8805 388.496 42.6359 387.743 48.9418C386.689 57.7325 378.425 63.4738 370.744 64.1138C362.818 64.7726 357.152 59.8596 356.022 58.8431L356.079 58.8243Z" fill="url(#paint18_linear_228_63)"/>
<path d="M356.38 20.4612C356.737 19.8965 361.783 12.1411 370.951 12.0282C378.462 11.9529 385.239 17.0541 387.479 24.1695C389.908 31.906 386.35 39.9438 380.269 44.0285C373.341 48.6968 363.703 47.8686 357.227 41.845C358.262 42.6544 366.809 49.525 366.639 60.8946C366.545 68.0476 363.025 75.7277 356.624 79.5678C355.118 80.4713 351.56 82.5419 346.91 81.996C346.91 81.996 341.884 81.4125 338.119 77.5348C332.528 71.7559 333.958 58.1275 342.26 44.2356C341.94 45.6662 339.681 54.9275 330.796 59.3887C329.402 60.104 320.366 64.6594 313.1 59.7087C306.736 55.3604 305.174 46.0238 308.13 39.6614C311.914 31.5107 323.623 27.2001 334.636 32.1131C328.311 31.2096 323.096 26.9554 321.251 21.2141C318.917 13.8917 322.814 6.58808 328.066 3.01156C335.389 -1.95791 345.141 0.508014 350.675 5.87278C356.38 11.407 356.38 18.8988 356.361 20.4235L356.38 20.4612Z" fill="url(#paint19_linear_228_63)"/>
<path d="M344.783 32.8475C344.595 31.6051 343.729 25.2991 347.927 20.0285C351.767 15.1908 359.298 11.9154 365.83 15.059C370.687 17.3932 373.925 22.7391 373.567 27.7274C373.04 35.1439 364.55 42.2217 353.405 41.2429C355.306 42.0523 358.243 43.5582 361.048 46.3441C363.533 48.81 366.941 52.1983 366.884 57.1489C366.847 60.6313 365.077 65.3749 360.879 67.1631C356.116 69.1961 351.391 66.109 350.694 65.6572C345.649 62.3819 343.315 55.436 344.538 48.0006C343.258 49.0359 341.131 50.5041 338.194 51.163C332.038 52.5559 323.002 50.3159 320.818 43.5958C319.237 38.7393 321.853 33.4686 325.129 30.5321C326.164 29.6098 329.365 27.0309 334.071 27.1062C340.604 27.2003 344.369 32.2827 344.802 32.8663L344.783 32.8475Z" fill="url(#paint20_linear_228_63)"/>
<path d="M354.177 40.452C352.219 42.598 348.981 43.4262 346.157 42.4097C342.882 41.2427 340.754 37.8167 341.15 34.1273C341.282 34.372 341.865 35.3132 343.07 35.6896C343.936 35.9532 344.67 35.8026 344.971 35.7273C344.764 35.3132 344.275 34.2214 344.463 32.8285C344.727 30.7955 346.214 29.666 346.515 29.459C347.118 29.6472 348.567 30.1555 349.753 31.5861C350.6 32.6026 350.939 33.6379 351.071 34.2402C351.523 33.9579 352.125 33.5249 352.671 32.8285C353.612 31.6614 353.895 30.4566 354.008 29.8355C356.775 33.092 356.719 37.685 354.196 40.452H354.177Z" fill="url(#paint21_linear_228_63)"/>
<path d="M825.871 1340.48C825.645 1356.23 825.363 1375.62 820.958 1400.17C818.717 1412.7 814.802 1429.87 812.957 1450.29C812.204 1458.71 811.451 1468.97 811.451 1468.97C811.281 1471.32 810.208 1486.15 809.982 1492.74C808.777 1527 820.581 1543.59 813.71 1557.51C809.643 1565.76 806.048 1565.85 798.819 1579.86C791.401 1594.18 793.077 1598.14 786.902 1605.18C779.937 1613.12 776.379 1609.68 758.607 1620.07C744.017 1628.57 740.779 1634.17 728.806 1636.44C725.342 1637.1 716.118 1638.85 712.428 1634.2C709.887 1631 710.96 1625.96 712.428 1621.55C720.316 1597.95 739.612 1593.3 748.912 1569.43C750.493 1565.4 755.953 1551.42 749.665 1544.11C747.199 1541.25 742.624 1539.07 739.236 1540.39C736.958 1541.29 735.358 1543.72 733.287 1553.05C729.635 1569.43 732.044 1573.23 728.072 1578.37C724.1 1583.49 716.25 1586.71 710.941 1584.32C708.493 1583.23 705.255 1580.33 703.505 1568.68C701.377 1554.63 704.088 1545.54 707.213 1529.22C713.388 1497.15 710.037 1495.23 716.156 1484.55C720.918 1476.23 723.855 1475.8 731.8 1462.21C740.309 1447.62 741.231 1440.71 741.476 1437.65C742.285 1427.24 738.426 1419.12 737.014 1416.04C720.485 1380.35 710.809 1341.85 696.803 1305.11C677.544 1254.64 671.671 1211.57 668.96 1190.87C665.703 1165.89 662.239 1139.35 663.105 1103.49C663.105 1103.49 664.686 1037.96 646.011 1000.48C645.352 999.127 643.376 995.174 641.681 995.456C640.213 995.701 639.629 999.089 639.404 1000.48C627.826 1072.88 628.955 1085.74 628.955 1085.74C636.147 1167.71 622.668 1168.63 634.189 1231.9C642.83 1279.39 650.793 1280.94 658.549 1329.35C658.85 1331.2 659.133 1333 659.396 1334.81C674.494 1432.02 679.483 1518.3 679.973 1589.5C680.349 1643.95 680.669 1690.45 677.695 1736.74C675.097 1777.41 669.939 1817.94 660.055 1863.55C641.7 1948.11 625.868 1963.43 625.397 2027.69C624.851 2104.7 652.318 2116.41 649.419 2208.87C648.553 2236.47 648.402 2288.38 631.045 2372.19C615.043 2449.44 592.848 2517.86 577.637 2587.76C566.379 2639.47 568.13 2649.88 569.241 2654.88C570.652 2661.25 579.708 2678.15 570.125 2693.21C553.521 2719.3 582.324 2719.84 609.998 2797.19C619.204 2822.92 602.543 2839.39 532.907 2862.45C512.406 2869.23 499.134 2869.78 489.157 2865.11C480.064 2860.83 475 2852.89 473.061 2849.93C464.551 2837.02 464.363 2823.43 464.213 2815.88C463.403 2770.22 462.989 2747.38 460.636 2735.02C456.475 2713.16 453.651 2698.25 447.533 2682.01C446.347 2678.83 443.674 2672.03 442.94 2662.62C441.885 2648.92 445.594 2638.45 446.498 2635.72C449.566 2626.48 446.347 2617.37 453.934 2538.4C462.575 2448.5 455.986 2375.73 453.049 2359.48C452.691 2357.51 450.602 2346.64 448.907 2331.55C448.098 2324.28 447.721 2319.03 447.383 2315.4C446.046 2300.9 443.824 2275.98 444.803 2247.14C445.293 2232.93 449.849 2199.84 458.923 2134.22C460.579 2122.19 461.935 2112.55 462.029 2098.9C462.198 2073.17 457.774 2055.8 454.367 2039.55C442.638 1983.65 442.017 1935.87 441.697 1912.17C441.528 1899.64 440.925 1906.71 442.601 1864.34C445.726 1785.7 441.942 1739.16 434.43 1678.01C434.581 1677.76 434.732 1677.54 434.882 1677.29C429.63 1632.4 423.531 1583.92 419.652 1565.03C419.012 1561.99 418.448 1559.74 417.958 1558.36C417.28 1556.46 415.511 1551.55 413.289 1550.78C413.082 1550.7 412.875 1550.66 412.649 1550.66C412.442 1550.66 412.235 1550.72 412.047 1550.81C410.014 1551.59 408.602 1555.95 408.056 1557.63C407.623 1558.96 407.077 1561.26 406.437 1564.39C401.9 1586.33 392.619 1648.58 385.503 1697.81V1697.85C377.991 1759 374.226 1805.54 377.332 1884.16C377.897 1898.22 378.726 1913.17 378.236 1931.99C376.994 1978.4 368.089 2021.18 364.38 2039.14C359.203 2064.19 355.288 2076.81 357.321 2097.79C358.978 2114.98 363.402 2125.26 367.28 2137.12C380.062 2176.31 379.422 2209.93 378.5 2258.76C377.991 2285.96 375.525 2308.36 372.551 2335.26C370.48 2354.06 368.842 2364.83 366.884 2379.28C362.423 2412.08 354.064 2474.89 352.031 2546.72C351.184 2576.8 350.751 2591.86 352.596 2609.29C357.509 2655.69 368.428 2660.12 366.244 2691.59C363.59 2729.86 345.875 2748.57 356.436 2806.3C358.978 2820.23 354.798 2858.01 346.91 2869.77C334.881 2887.77 320.686 2893.42 287.045 2882.29C217.409 2859.21 200.748 2842.74 209.973 2817.01C237.628 2739.68 266.431 2739.14 249.827 2713.05C239.736 2697.18 249.639 2678.94 250.712 2674.72C257.79 2647.07 239.36 2591.35 230.738 2563.64C209.427 2495.09 197.398 2434.72 188.888 2391.95C171.964 2306.93 171.475 2259.09 170.533 2228.71C167.634 2136.23 195.12 2124.52 194.555 2047.53C194.084 1983.25 178.252 1967.95 159.916 1883.37C150.258 1838.85 142.408 1763.67 139.979 1609.32C139.979 1609.32 137.89 1476.97 152.009 1386.73C156.96 1355.07 163.173 1329.84 163.173 1329.84C170.006 1302.04 173.433 1288.13 178.271 1275.95C178.271 1275.95 190.733 1244.61 192.973 1221.81C193.049 1221.12 193.124 1220.33 193.124 1220.33C193.407 1217.22 193.802 1211.52 194.404 1196.04C199.92 1056.22 186.385 1039.88 185.104 1007.13C185.01 1004.66 184.747 996.059 182.168 995.551C181.49 995.419 180.699 996.04 180.323 996.322C180.021 996.548 178.515 997.715 177.969 1000.48C157.167 1106.1 157.525 1138.55 157.525 1138.55C162.043 1195.7 153.91 1239.13 145.1 1269.06C129.908 1320.64 115.544 1372.46 99.7115 1423.85C97.7913 1430.12 94.3274 1441.33 96.2664 1455.26C97.9607 1467.31 103.401 1479.26 106.093 1485.19C109.651 1493.01 110.724 1493.61 113.097 1498.8C118.048 1509.66 117.464 1517.59 119.591 1549.16C120.721 1566.04 121.813 1577.51 115.732 1584.83C114.716 1586.05 112.268 1588.91 108.503 1589.44C102.535 1590.31 97.4713 1584.73 96.7559 1583.92C90.3552 1576.6 94.7792 1569.45 89.8469 1556.31C87.1925 1549.21 81.8272 1540.39 78.7963 1541.12C74.9182 1542.06 72.5839 1559.6 78.1751 1575.36C82.9944 1588.95 90.2799 1591.64 105.039 1616.38C108.785 1622.64 114 1628.57 111.948 1634.33C110.028 1639.7 103.251 1641.83 101.839 1642.22C94.911 1644.22 86.3265 1642.52 54.0594 1619.03C39.206 1608.21 31.6947 1602.69 27.6095 1597.57C22.7525 1591.49 14.8269 1579.43 11.1371 1554.92C3.19272 1502.02 24.8986 1456.37 15.0528 1430.93C14.4692 1429.4 12.0972 1423.66 10.4406 1415.51C7.97442 1403.39 9.14162 1393.9 8.85923 1390.53C7.25906 1371.97 5.15055 1359.23 3.23034 1338.73C1.47956 1319.75 -1.90901 1281.75 1.38547 1233.99C3.49394 1203.31 7.54144 1180.34 13.2079 1148.23C17.5755 1123.5 20.2675 1114.76 22.0559 1108.91C28.1931 1088.78 33.5019 1082.08 37.38 1050.87C46.3221 978.779 24.4468 963.136 41.164 902.825C48.4118 876.716 55.3961 869.206 58.4458 841.779C61.9286 810.306 54.8501 801.007 58.4458 765.167C60.6108 743.632 62.6816 723.02 74.1464 703.67C89.4704 677.806 113.944 667.133 144.723 654.201C194.649 633.212 227.594 634.21 286.932 607.141C299.884 601.231 318.71 591.894 320.14 577.042C320.988 568.27 315.66 558.501 308.035 552.835C287.497 537.531 260.162 559.16 241.958 543.141C239.435 540.919 233.505 535.705 231.924 527.573C230.06 518.049 235.482 511.328 231.227 505.775C228.177 501.804 223.735 503.14 222.228 499.206C220.384 494.387 225.881 489.361 223.622 486.406C222.21 484.561 219.781 486.105 217.729 484.674C215.545 483.149 215.771 479.592 216.581 475.375C217.974 468.203 221.08 459.13 217.033 454.933C215.941 453.784 215.131 453.86 210.745 453.144C210.67 453.125 210.613 453.125 210.538 453.107C207.789 452.674 203.685 451.921 197.322 450.434C193.331 449.492 190.526 448.739 188.662 446.274C187.589 444.843 186.14 441.906 187.345 435.977C190.545 420.109 213.475 399.666 216.618 377.435C219.518 356.936 213.908 345.849 221.946 321.547C226.483 307.787 230.606 304.361 231.246 292.276C232.168 275.373 224.921 266.996 229.928 257.697C232.3 253.255 237.722 248.135 251.22 245.707C273.716 257.829 317.335 277.462 375.582 279.834C439.984 282.451 488.987 262.629 512.387 251.297C526.525 268.615 551.036 304.361 552.618 352.249C553.408 376.023 548.928 414.16 528.483 448.815C519.146 464.664 510.166 473.493 503.615 494.895C495.407 521.7 498.494 543.63 499.209 548.298C500.734 558.105 506.25 593.682 533.434 610.793C543.148 616.911 552.185 618.511 556.289 619.264C631.214 632.949 686.769 643.095 720.598 672.497C746.239 694.785 761.996 730.399 764.481 761.59C766.646 788.772 757.873 801.647 761.826 838.711C764.707 865.667 770.223 867.041 777.79 899.87C787.843 943.503 781.763 956.981 788.427 1035.51C791.1 1067.12 794.282 1090.84 795.072 1096.67C807.309 1186.67 819.452 1187.29 822.991 1238.94C824.026 1254.08 823.518 1265.05 823.311 1271.13C822.125 1304.35 826.323 1306.67 825.852 1340.5L825.871 1340.48Z" fill="#FFE1C2"/>
<path d="M641.775 739.397C629.426 739.322 618.977 733.373 615.4 724.319C613.367 719.18 612.539 710.389 617.509 705.156C620.653 701.844 625.039 701.222 628.145 700.789C636.711 699.585 638.612 703.556 645.559 702.766C654.878 701.712 656.083 694.013 663.895 694.05C670.032 694.069 675.68 698.832 678.109 703.481C682.721 712.347 678.391 726.239 665.74 734.954C674.946 775.425 683.963 816.518 692.755 858.194C702.092 902.429 710.959 946.138 719.336 989.32C720.918 989.263 742.774 988.812 751.547 1003.57C752.846 1005.75 756.969 1012.7 754.54 1020.38C754.352 1020.94 752.093 1027.74 745.372 1030.96C736.543 1035.17 731.441 1027.78 721.294 1030.51C711.016 1033.27 710.997 1042.29 702.055 1043.48C694.223 1044.51 685.789 1038.69 682.137 1032.05C676.358 1021.53 680.65 1005.4 694.449 995.437C690.138 957.451 683.982 916.547 675.304 873.271C665.552 824.631 653.974 779.924 641.756 739.453L641.775 739.397Z" fill="url(#paint22_linear_228_63)"/>
<path d="M322.908 2046.56C320.329 2056.81 310.182 2067.26 299.131 2068.24C286.537 2069.35 283.807 2057 268.878 2056.34C254.176 2055.69 249.432 2067.38 236.065 2064.27C225.9 2061.92 220.741 2053.31 220.308 2052.6C214.642 2042.83 218.181 2032.1 219.292 2028.69C226.803 2005.84 256.849 1999.82 259.033 1999.42C244.669 1946.62 230.757 1875.47 229.232 1790.74C227.726 1706.71 238.87 1635.61 251.182 1582.57C231.227 1574.49 221.08 1556.8 224.714 1543.28C226.615 1536.19 232.903 1527.96 241.299 1526.08C251.973 1523.65 255.964 1533.82 269.029 1532.42C278.781 1531.39 280.155 1525.38 292.241 1524.42C296.627 1524.08 302.821 1523.59 308.13 1527.17C316.526 1532.82 318.051 1545.11 316.827 1552.75C314.7 1566.23 302.2 1577.52 285.332 1581.38C273.528 1635.8 263.419 1705.21 263.457 1785.87C263.494 1871.31 274.884 1944.34 287.798 2000.7C313.589 2008.57 327.031 2030.25 322.908 2046.56V2046.56Z" fill="url(#paint23_linear_228_63)"/>
<path d="M496.856 2046.56C499.436 2056.81 509.583 2067.26 520.633 2068.24C533.227 2069.35 535.957 2057 550.886 2056.34C565.589 2055.69 570.333 2067.38 583.699 2064.27C593.865 2061.92 599.023 2053.31 599.456 2052.6C605.122 2042.83 601.583 2032.1 600.473 2028.69C592.961 2005.84 562.915 1999.82 560.732 1999.42C575.096 1946.62 589.008 1875.47 590.533 1790.74C592.039 1706.71 580.894 1635.61 568.582 1582.57C588.537 1574.49 598.684 1556.8 595.051 1543.28C593.149 1536.19 586.862 1527.96 578.465 1526.08C567.791 1523.65 563.8 1533.82 550.735 1532.42C540.984 1531.39 539.609 1525.38 527.523 1524.42C523.137 1524.08 516.943 1523.59 511.635 1527.17C503.238 1532.82 501.713 1545.11 502.937 1552.75C505.064 1566.23 517.565 1577.52 534.432 1581.38C546.236 1635.8 556.345 1705.21 556.308 1785.87C556.27 1871.31 544.881 1944.34 531.966 2000.7C506.175 2008.57 492.734 2030.25 496.856 2046.56V2046.56Z" fill="url(#paint24_linear_228_63)"/>
<path d="M753.035 1425.03C758.005 1428.69 766.024 1430 769.752 1426.39C772.726 1423.51 771.107 1419.31 774.778 1416.47C777.282 1414.51 781.028 1414.19 783.815 1415.4C787.165 1416.83 786.846 1419.46 789.895 1421.1C794.056 1423.34 799.854 1421.23 803.299 1418.39C808.683 1413.95 809.286 1406.94 809.399 1405.46C810.302 1394.75 801.529 1383.21 787.598 1376.24C781.819 1331.82 775.23 1286.02 767.756 1239.02C760.151 1191.28 752.093 1145.27 743.716 1101.02C746.954 1097.73 753.487 1090.1 754.729 1078.88C755.162 1075.01 755.727 1069.75 752.752 1065.03C748.573 1058.42 739.254 1055.73 732.835 1058.4C726.415 1061.08 727.244 1067.29 720.824 1069.04C715.779 1070.39 713.708 1066.95 706.987 1068.64C702.733 1069.74 699.852 1072.05 698.723 1073.09C695.485 1075.97 692.962 1080.07 692.303 1083.55C690.76 1091.5 697.706 1102.11 710.188 1107.23C711.317 1149.17 715.214 1197.77 724.326 1251.18C732.967 1301.81 744.582 1346.58 756.63 1384.75C754.616 1386.29 748.14 1391.64 746.182 1401.03C744.676 1408.24 745.467 1419.44 753.035 1425V1425.03ZM744.695 1256.99C731.555 1183.39 728.129 1114.08 731.442 1113.61C733.927 1113.26 740.44 1151.2 750.324 1208.64C755.463 1238.53 777.451 1366.32 772.783 1367.36C769.677 1368.05 754.654 1312.71 744.695 1256.99V1256.99Z" fill="url(#paint25_linear_228_63)"/>
<path d="M175.277 741.901C187.608 741.392 197.849 735.086 201.106 725.9C202.951 720.686 203.478 711.877 198.339 706.832C195.063 703.632 190.658 703.161 187.552 702.841C178.948 701.938 177.198 705.985 170.232 705.439C160.876 704.705 159.407 697.062 151.595 697.364C145.458 697.608 139.979 702.559 137.72 707.284C133.409 716.3 138.229 730.023 151.181 738.286C143.406 779.059 135.857 820.433 128.515 862.41C120.74 906.947 113.435 950.938 106.564 994.384C104.983 994.384 83.1261 994.704 74.8805 1009.76C73.6569 1012 69.7788 1019.08 72.4896 1026.67C72.6967 1027.23 75.2005 1033.93 82.0342 1036.91C91.014 1040.82 95.8522 1033.24 106.093 1035.61C116.466 1038.02 116.786 1047.01 125.766 1047.88C133.635 1048.63 141.862 1042.52 145.269 1035.76C150.672 1025.03 145.815 1009.07 131.677 999.598C134.633 961.48 139.339 920.387 146.493 876.829C154.532 827.869 164.509 782.786 175.296 741.901H175.277Z" fill="url(#paint26_linear_228_63)"/>
<path d="M88.0208 1404.67C85.7805 1395.31 79.1727 1390.15 77.1019 1388.68C88.0208 1350.19 98.3372 1305.09 105.491 1254.23C113.04 1200.58 115.525 1151.88 115.431 1109.92C127.743 1104.45 134.388 1093.64 132.619 1085.74C131.847 1082.27 129.211 1078.24 125.898 1075.46C124.712 1074.46 121.775 1072.22 117.502 1071.26C110.743 1069.75 108.785 1073.27 103.684 1072.05C97.2265 1070.49 97.8854 1064.24 91.3717 1061.77C84.8769 1059.29 75.6335 1062.24 71.6613 1068.96C68.8186 1073.76 69.5529 1079.02 70.0988 1082.87C71.6613 1094.04 78.4197 1101.49 81.7519 1104.67C74.6734 1149.15 67.9527 1195.38 61.7402 1243.31C55.6219 1290.52 50.3884 1336.49 45.9079 1381.06C32.1841 1388.44 23.769 1400.2 24.9739 1410.9C25.1433 1412.38 25.934 1419.37 31.4499 1423.64C34.9703 1426.37 40.825 1428.31 44.929 1425.96C47.9411 1424.22 47.5269 1421.59 50.8402 1420.06C53.5888 1418.78 57.335 1419.01 59.8953 1420.87C63.6604 1423.6 62.1356 1427.84 65.2041 1430.64C69.0446 1434.14 77.0266 1432.6 81.8836 1428.8C89.282 1423.02 89.7527 1411.8 88.0208 1404.65V1404.67ZM60.4601 1371.74C55.7725 1370.84 74.0334 1242.44 78.288 1212.42C86.4959 1154.74 91.9177 1116.61 94.4027 1116.89C97.7348 1117.27 96.3229 1186.65 85.3287 1260.59C76.989 1316.57 63.5852 1372.35 60.4601 1371.72V1371.74Z" fill="url(#paint27_linear_228_63)"/>
<path d="M549.304 2660.17C544.522 2652.38 536.823 2649.76 534.62 2649.1C552.9 2569.27 568.45 2475.38 575.001 2369.72C579.538 2296.48 579.067 2228.77 575.716 2167.76C592.377 2159.01 600.641 2143.35 597.46 2132.49C596.067 2127.72 592.019 2122.34 587.144 2118.78C585.412 2117.5 581.119 2114.66 575.058 2113.7C565.513 2112.23 563.084 2117.3 555.893 2116.07C546.763 2114.49 547.101 2105.72 537.802 2102.86C528.521 2099.98 515.907 2104.95 510.975 2114.68C507.455 2121.64 508.942 2128.87 510.053 2134.2C513.253 2149.62 523.344 2159.37 528.276 2163.51C522.722 2227.62 517.602 2292.62 513.008 2358.5C506.137 2456.88 500.621 2553.48 496.367 2648.28C493.185 2649.03 484.902 2651.46 478.708 2659.19C476.957 2661.38 468.731 2671.65 472.722 2681.31C475.489 2687.99 482.944 2691.57 488.874 2692.4C500.433 2694 503.727 2685.06 515.38 2686.6C524.04 2687.73 525.189 2693.11 533.942 2693.04C535.994 2693.04 544.033 2692.66 549.21 2686.69C555.667 2679.24 553.766 2667.53 549.285 2660.21L549.304 2660.17ZM517.734 2630.19C514.326 2629.85 519.277 2579.51 531.702 2313.93C536.409 2213.24 537.651 2178.94 540.211 2178.92C544.541 2178.92 551.77 2276.75 548.457 2379.81C544.165 2513.7 522.948 2630.69 517.734 2630.19V2630.19Z" fill="url(#paint28_linear_228_63)"/>
<path d="M254.044 1075.33C223.471 1087.41 211.649 1119.99 210.896 1122.16C202.688 1145.88 209.522 1165.38 221.984 1201.05C232.244 1230.4 238.155 1247.28 251.559 1250.35C261.744 1252.68 276.428 1241.63 305.796 1219.53C319.953 1208.88 325.092 1203.61 329.215 1198.58C339.757 1185.73 344.991 1172.74 347.701 1164.08C354.667 1164.06 365.793 1163.35 378.519 1159.15C383.941 1157.36 396.027 1152.84 433.998 1118.47C456.871 1097.76 460.824 1091.85 461.126 1083.97C461.464 1074.84 456.833 1064.46 448.795 1059.31C439.42 1053.32 431.833 1058.5 413.045 1058.08C389.852 1057.56 388.365 1049.33 371.139 1049.46C348.624 1049.61 346.666 1063.66 319.369 1071.66C287.817 1080.88 279.176 1065.42 254.044 1075.34V1075.33Z" fill="url(#paint29_linear_228_63)"/>
<path d="M324.019 1204.34C320.649 1204.08 317.411 1203.29 314.455 1201.95C302.219 1196.44 298.284 1183.96 296.816 1179.27C295.328 1174.55 294.764 1170.05 294.764 1165.89C289.926 1163.52 285.878 1163.04 282.809 1163.19C273.905 1163.65 270.742 1169.43 262.478 1168.41C261.988 1168.35 252.519 1167.04 249.714 1159.9C246.871 1152.69 253.121 1145.31 253.969 1144.3C260.539 1136.54 270.855 1136.71 272.87 1136.75C282.452 1136.9 292.072 1142.28 296.91 1151.28C297.531 1149.11 298.171 1147.21 298.717 1145.63C302.106 1135.71 307.735 1126.85 315.472 1119.24C317.298 1117.43 320.235 1117.47 322.042 1119.3C323.849 1121.12 323.812 1124.08 322.004 1125.87C315.321 1132.44 310.445 1140.1 307.527 1148.64C305.457 1154.69 302.012 1164.81 305.683 1176.47C306.925 1180.42 309.843 1189.68 318.277 1193.48C321.515 1194.93 325.148 1195.44 329.064 1194.99C330.005 1194.88 330.909 1195.06 331.699 1195.46L324.019 1204.34V1204.34Z" fill="url(#paint30_linear_228_63)"/>
<path d="M313.25 501.86C305.513 499.865 298.246 498.736 291.959 498.096C291.733 490.133 290.735 483.074 289.417 477.032C287.986 470.312 286.179 464.834 284.635 460.787C279.119 446.293 270.987 424.193 251.276 417.793C248.735 416.984 236.743 413.087 225.73 419.469C215.244 425.53 209.465 438.65 210.764 453.126C210.688 453.107 210.632 453.107 210.557 453.088C207.808 452.655 203.704 451.902 197.341 450.415C197.172 449.06 194.084 422.029 214.058 406.574C226.483 396.974 240.565 397.407 243.389 397.558C243.389 397.558 256.171 398.217 269.518 407.459C285.37 418.471 299.621 444.636 308.619 480.119C310.37 487.027 311.914 494.293 313.25 501.86V501.86Z" fill="url(#paint31_linear_228_63)"/>
<path d="M458.829 906.929C459.375 928.331 444.088 945.385 426.223 948.887C422.985 949.546 419.653 949.734 416.321 949.433C411.69 949 407.209 947.625 403.105 945.461C390.323 938.778 381.042 924.566 381.249 908.002C390.003 875.926 395.123 848.556 398.248 828.302C398.436 827.041 398.662 825.535 398.907 823.803C399.058 822.805 399.189 821.751 399.34 820.64C399.942 816.085 400.639 810.457 401.335 804.019C404.573 774.089 405.007 751.106 405.157 739.717C406.437 643.509 406.588 594.567 382.566 553.626C375.187 541.032 368.955 534.331 366.772 532.035C350.525 515.093 330.702 506.321 313.251 501.86C305.513 499.865 298.247 498.735 291.959 498.095C281.586 497.041 273.867 497.343 271.1 497.474C262.12 497.926 248.001 499.564 231.246 505.757C228.197 501.785 223.754 503.121 222.248 499.187C220.403 494.368 225.9 489.342 223.641 486.387C222.229 484.542 219.8 486.086 217.748 484.655C215.565 483.131 215.791 479.573 216.6 475.356C229.891 474.152 248.98 473.286 271.815 475.3C277.689 475.827 283.544 476.335 289.417 477.032C295.743 477.766 302.106 478.726 308.619 480.119C317.486 482.02 326.617 484.712 336.274 488.834C339.23 490.095 366.094 501.785 386.275 522.736C426.505 564.543 426.43 628.996 426.298 740.677C426.298 741.844 426.279 767.369 426.901 802.137C426.919 803.737 426.957 805.243 426.976 806.692C427.183 819.04 427.258 825.666 427.635 829.318C427.898 831.859 428.237 834.476 428.651 837.186C431.776 856.688 439.853 880.5 458.829 906.929V906.929Z" fill="url(#paint32_linear_228_63)"/>
<path d="M454.895 722.738C469.993 716.696 485.486 717.712 485.486 717.712C485.486 717.712 504.877 718.974 524.098 732.301C565.25 760.819 618.734 893.997 617.661 1030.22C617.51 1049.16 616.23 1077.4 595.691 1094.58C581.854 1106.14 560.582 1111.6 541.492 1108.02C504.387 1101.08 503.804 1065.35 459.921 1054.34C450.038 1051.85 439.684 1051.06 430.76 1042.35C419.446 1031.33 418.637 1015.67 418.373 1008.77C413.158 871.898 408.188 741.468 454.913 722.776L454.895 722.738Z" fill="url(#paint33_linear_228_63)"/>
<path d="M371.101 727.633C356.266 721.703 341.018 722.682 341.018 722.682C341.018 722.682 321.966 723.905 303.065 737.007C262.628 765.035 210.048 895.936 211.102 1029.85C211.253 1048.46 212.514 1076.23 232.695 1093.1C246.287 1104.47 267.221 1109.81 285.972 1106.31C322.437 1099.48 323.002 1064.37 366.15 1053.53C375.864 1051.08 386.03 1050.31 394.821 1041.74C405.928 1030.92 406.738 1015.52 407.001 1008.73C412.122 874.194 417.017 745.986 371.082 727.633H371.101Z" fill="url(#paint34_linear_228_63)"/>
<path d="M225.467 671.123C217.805 663.65 207.677 662.916 202.575 667.434C199.412 670.22 197.831 675.66 199.243 680.366C199.45 681.043 200.88 685.561 204.872 687.312C207.055 688.272 207.639 687.368 210.331 688.121C214.454 689.25 217.033 692.469 219.198 695.142C222.68 699.472 221.702 700.488 223.998 702.521C227.594 705.702 234.541 707.227 238.776 703.99C243.332 700.507 244.311 691.829 238.776 685.26C244.876 682.248 251.408 679.349 258.355 676.657C287.836 665.231 315.472 661.128 338.081 660.13C338.27 660.996 339.474 666.248 344.407 668.902C348.605 671.161 354.93 671.236 358.074 667.434C361.218 663.613 359.618 657.702 357.698 654.502C355.119 650.21 351.956 650.869 350.638 647.292C348.925 642.624 353.669 639.838 352.521 634.567C351.542 630.012 346.591 625.513 341.451 625.702C333.507 626.003 330.495 636.676 330.382 637.146C329.666 639.838 329.779 642.21 330.005 643.791C316.357 645.561 301.503 648.139 285.69 651.923C262.873 657.363 242.73 664.177 225.486 671.123H225.467Z" fill="url(#paint35_linear_228_63)"/>
<path d="M597.31 667.189C604.972 659.716 615.1 658.982 620.201 663.5C623.364 666.286 624.945 671.726 623.534 676.432C623.326 677.109 621.896 681.627 617.905 683.378C615.721 684.338 615.137 683.434 612.445 684.187C608.322 685.316 605.743 688.535 603.578 691.208C600.096 695.538 601.075 696.554 598.778 698.587C595.182 701.768 588.236 703.293 584 700.055C579.444 696.573 578.465 687.895 584 681.326C577.9 678.314 571.368 675.415 564.421 672.723C534.94 661.297 507.304 657.194 484.695 656.196C484.507 657.062 483.302 662.314 478.369 664.968C474.171 667.227 467.846 667.302 464.702 663.5C461.558 659.678 463.158 653.768 465.079 650.568C467.658 646.276 470.82 646.935 472.138 643.358C473.851 638.69 469.107 635.904 470.256 630.633C471.234 626.078 476.186 621.579 481.325 621.767C489.269 622.069 492.282 632.742 492.394 633.212C493.11 635.904 492.997 638.276 492.771 639.857C506.42 641.626 521.273 644.205 537.086 647.989C559.903 653.429 580.046 660.243 597.291 667.189H597.31Z" fill="url(#paint36_linear_228_63)"/>
<path d="M508.679 1495.66C502.88 1484.54 508.302 1472.15 508.603 1471.47C515.155 1457.13 532.437 1451.67 554.011 1444.85C573.872 1438.59 578.089 1440.6 587.37 1433.82C590.683 1431.41 603.786 1421.85 606.873 1406.13C609.81 1391.13 601.056 1383.43 606.76 1366.98C608.85 1360.96 611.429 1357.93 614.215 1356.03C619.806 1352.2 627.619 1351.96 633.21 1354.82C642.096 1359.36 643.715 1370.82 644.788 1378.39C645.842 1385.86 646.35 1398.45 638.575 1419.86C634.038 1432.37 624.72 1457.11 600.755 1479.26C586.88 1492.1 574.06 1498.56 566.266 1502.4C550.453 1510.21 543.035 1510.49 540.946 1510.53C538.028 1510.59 516.473 1510.64 508.66 1495.66H508.679Z" fill="url(#paint37_linear_228_63)"/>
<path d="M315.998 1498.46C321.797 1487.34 316.375 1474.95 316.074 1474.28C309.523 1459.93 292.241 1454.47 270.666 1447.66C250.805 1441.39 246.589 1443.41 237.308 1436.63C233.994 1434.22 220.892 1424.66 217.804 1408.94C214.867 1393.94 223.621 1386.24 217.917 1369.79C215.828 1363.76 213.248 1360.73 210.462 1358.83C204.871 1355.01 197.058 1354.76 191.467 1357.63C182.582 1362.16 180.963 1373.63 179.889 1381.19C178.835 1388.67 178.327 1401.26 186.102 1422.66C190.639 1435.18 199.958 1459.91 223.923 1482.07C237.797 1494.91 250.617 1501.36 258.411 1505.2C274.225 1513.02 281.642 1513.3 283.731 1513.34C286.649 1513.39 308.205 1513.45 316.017 1498.46H315.998Z" fill="url(#paint38_linear_228_63)"/>
<defs>
<linearGradient id="paint0_linear_228_63" x1="245.12" y1="50.9085" x2="481.03" y2="290.469" gradientUnits="userSpaceOnUse">
<stop stop-color="#8CC63F"/>
<stop offset="0.1" stop-color="#88C03D"/>
<stop offset="0.22" stop-color="#7EB238"/>
<stop offset="0.35" stop-color="#6C9930"/>
<stop offset="0.49" stop-color="#547726"/>
<stop offset="0.64" stop-color="#354C18"/>
<stop offset="0.78" stop-color="#101707"/>
<stop offset="0.84"/>
</linearGradient>
<linearGradient id="paint1_linear_228_63" x1="583.416" y1="58.0338" x2="423.195" y2="307.425" gradientUnits="userSpaceOnUse">
<stop stop-color="#8CC63F"/>
<stop offset="0.1" stop-color="#88C03D"/>
<stop offset="0.22" stop-color="#7EB238"/>
<stop offset="0.35" stop-color="#6C9930"/>
<stop offset="0.49" stop-color="#547726"/>
<stop offset="0.64" stop-color="#354C18"/>
<stop offset="0.78" stop-color="#101707"/>
<stop offset="0.84"/>
</linearGradient>
<linearGradient id="paint2_linear_228_63" x1="133.378" y1="110.563" x2="366.832" y2="293.217" gradientUnits="userSpaceOnUse">
<stop stop-color="#8CC63F"/>
<stop offset="0.1" stop-color="#88C03D"/>
<stop offset="0.22" stop-color="#7EB238"/>
<stop offset="0.35" stop-color="#6C9930"/>
<stop offset="0.49" stop-color="#547726"/>
<stop offset="0.64" stop-color="#354C18"/>
<stop offset="0.78" stop-color="#101707"/>
<stop offset="0.84"/>
</linearGradient>
<linearGradient id="paint3_linear_228_63" x1="226.464" y1="36.0096" x2="371.567" y2="375.638" gradientUnits="userSpaceOnUse">
<stop stop-color="#8CC63F"/>
<stop offset="0.1" stop-color="#83B93B"/>
<stop offset="0.29" stop-color="#6B9830"/>
<stop offset="0.54" stop-color="#46631F"/>
<stop offset="0.84" stop-color="#121A08"/>
<stop offset="0.94"/>
</linearGradient>
<linearGradient id="paint4_linear_228_63" x1="161.071" y1="133.753" x2="269.445" y2="129.597" gradientUnits="userSpaceOnUse">
<stop stop-color="#E96743"/>
<stop offset="0.32" stop-color="#E76642"/>
<stop offset="0.44" stop-color="#E06340"/>
<stop offset="0.52" stop-color="#D45D3D"/>
<stop offset="0.59" stop-color="#C35638"/>
<stop offset="0.65" stop-color="#AD4C31"/>
<stop offset="0.7" stop-color="#92402A"/>
<stop offset="0.75" stop-color="#713220"/>
<stop offset="0.79" stop-color="#4C2115"/>
<stop offset="0.83" stop-color="#230F0A"/>
<stop offset="0.85"/>
</linearGradient>
<linearGradient id="paint5_linear_228_63" x1="198.15" y1="50.8241" x2="265.406" y2="131.716" gradientUnits="userSpaceOnUse">
<stop stop-color="#E96743"/>
<stop offset="0.32" stop-color="#E76642"/>
<stop offset="0.44" stop-color="#E06340"/>
<stop offset="0.52" stop-color="#D45D3D"/>
<stop offset="0.59" stop-color="#C35638"/>
<stop offset="0.65" stop-color="#AD4C31"/>
<stop offset="0.7" stop-color="#92402A"/>
<stop offset="0.75" stop-color="#713220"/>
<stop offset="0.79" stop-color="#4C2115"/>
<stop offset="0.83" stop-color="#230F0A"/>
<stop offset="0.85"/>
</linearGradient>
<linearGradient id="paint6_linear_228_63" x1="245.079" y1="79.1451" x2="244.727" y2="189.758" gradientUnits="userSpaceOnUse">
<stop stop-color="#E96743"/>
<stop offset="0.32" stop-color="#E76642"/>
<stop offset="0.44" stop-color="#E06340"/>
<stop offset="0.52" stop-color="#D45D3D"/>
<stop offset="0.59" stop-color="#C35638"/>
<stop offset="0.65" stop-color="#AD4C31"/>
<stop offset="0.7" stop-color="#92402A"/>
<stop offset="0.75" stop-color="#713220"/>
<stop offset="0.79" stop-color="#4C2115"/>
<stop offset="0.83" stop-color="#230F0A"/>
<stop offset="0.85"/>
</linearGradient>
<linearGradient id="paint7_linear_228_63" x1="278.972" y1="31.5432" x2="268.337" y2="153.522" gradientUnits="userSpaceOnUse">
<stop stop-color="#E96743"/>
<stop offset="0.36" stop-color="#E76642"/>
<stop offset="0.48" stop-color="#E06340"/>
<stop offset="0.58" stop-color="#D45D3D"/>
<stop offset="0.65" stop-color="#C35638"/>
<stop offset="0.71" stop-color="#AD4C31"/>
<stop offset="0.77" stop-color="#92402A"/>
<stop offset="0.82" stop-color="#713220"/>
<stop offset="0.87" stop-color="#4C2115"/>
<stop offset="0.91" stop-color="#230F0A"/>
<stop offset="0.94"/>
</linearGradient>
<linearGradient id="paint8_linear_228_63" x1="284.108" y1="128.98" x2="296.324" y2="157.574" gradientUnits="userSpaceOnUse">
<stop stop-color="#8CC63F"/>
<stop offset="0.1" stop-color="#83B93B"/>
<stop offset="0.29" stop-color="#6B9830"/>
<stop offset="0.54" stop-color="#46631F"/>
<stop offset="0.84" stop-color="#121A08"/>
<stop offset="0.94"/>
</linearGradient>
<linearGradient id="paint9_linear_228_63" x1="483.314" y1="-15.5532" x2="403.74" y2="345.07" gradientUnits="userSpaceOnUse">
<stop stop-color="#8CC63F"/>
<stop offset="0.1" stop-color="#83B93B"/>
<stop offset="0.29" stop-color="#6B9830"/>
<stop offset="0.54" stop-color="#46631F"/>
<stop offset="0.84" stop-color="#121A08"/>
<stop offset="0.94"/>
</linearGradient>
<linearGradient id="paint10_linear_228_63" x1="565.716" y1="68.3343" x2="458.451" y2="84.3745" gradientUnits="userSpaceOnUse">
<stop stop-color="#97C6D5"/>
<stop offset="0.33" stop-color="#95C4D3"/>
<stop offset="0.45" stop-color="#90BDCC"/>
<stop offset="0.53" stop-color="#88B2C0"/>
<stop offset="0.6" stop-color="#7CA3AF"/>
<stop offset="0.66" stop-color="#6C8E99"/>
<stop offset="0.71" stop-color="#59757E"/>
<stop offset="0.76" stop-color="#42575E"/>
<stop offset="0.8" stop-color="#273438"/>
<stop offset="0.84" stop-color="#0A0E0F"/>
<stop offset="0.85"/>
</linearGradient>
<linearGradient id="paint11_linear_228_63" x1="513.881" y1="-6.26598" x2="462.797" y2="85.696" gradientUnits="userSpaceOnUse">
<stop stop-color="#97C6D5"/>
<stop offset="0.33" stop-color="#95C4D3"/>
<stop offset="0.45" stop-color="#90BDCC"/>
<stop offset="0.53" stop-color="#88B2C0"/>
<stop offset="0.6" stop-color="#7CA3AF"/>
<stop offset="0.66" stop-color="#6C8E99"/>
<stop offset="0.71" stop-color="#59757E"/>
<stop offset="0.76" stop-color="#42575E"/>
<stop offset="0.8" stop-color="#273438"/>
<stop offset="0.84" stop-color="#0A0E0F"/>
<stop offset="0.85"/>
</linearGradient>
<linearGradient id="paint12_linear_228_63" x1="473.011" y1="30.2665" x2="493.872" y2="138.914" gradientUnits="userSpaceOnUse">
<stop stop-color="#97C6D5"/>
<stop offset="0.33" stop-color="#95C4D3"/>
<stop offset="0.45" stop-color="#90BDCC"/>
<stop offset="0.53" stop-color="#88B2C0"/>
<stop offset="0.6" stop-color="#7CA3AF"/>
<stop offset="0.66" stop-color="#6C8E99"/>
<stop offset="0.71" stop-color="#59757E"/>
<stop offset="0.76" stop-color="#42575E"/>
<stop offset="0.8" stop-color="#273438"/>
<stop offset="0.84" stop-color="#0A0E0F"/>
<stop offset="0.85"/>
</linearGradient>
<linearGradient id="paint13_linear_228_63" x1="430.845" y1="-10.2078" x2="463.938" y2="107.686" gradientUnits="userSpaceOnUse">
<stop stop-color="#97C6D5"/>
<stop offset="0.36" stop-color="#95C4D3"/>
<stop offset="0.49" stop-color="#90BDCC"/>
<stop offset="0.59" stop-color="#88B2C0"/>
<stop offset="0.66" stop-color="#7CA3AF"/>
<stop offset="0.73" stop-color="#6C8E99"/>
<stop offset="0.78" stop-color="#59757E"/>
<stop offset="0.84" stop-color="#42575E"/>
<stop offset="0.88" stop-color="#273438"/>
<stop offset="0.93" stop-color="#0A0E0F"/>
<stop offset="0.94"/>
</linearGradient>
<linearGradient id="paint14_linear_228_63" x1="443.933" y1="86.4736" x2="437.233" y2="116.837" gradientUnits="userSpaceOnUse">
<stop stop-color="#8CC63F"/>
<stop offset="0.1" stop-color="#83B93B"/>
<stop offset="0.29" stop-color="#6B9830"/>
<stop offset="0.54" stop-color="#46631F"/>
<stop offset="0.84" stop-color="#121A08"/>
<stop offset="0.94"/>
</linearGradient>
<linearGradient id="paint15_linear_228_63" x1="370.077" y1="-15.2634" x2="365.927" y2="250.619" gradientUnits="userSpaceOnUse">
<stop stop-color="#8CC63F"/>
<stop offset="0.1" stop-color="#83B93B"/>
<stop offset="0.29" stop-color="#6B9830"/>
<stop offset="0.54" stop-color="#46631F"/>
<stop offset="0.84" stop-color="#121A08"/>
<stop offset="0.94"/>
</linearGradient>
<linearGradient id="paint16_linear_228_63" x1="251.929" y1="277.267" x2="390.323" y2="198.801" gradientUnits="userSpaceOnUse">
<stop stop-color="#8CC63F"/>
<stop offset="0.1" stop-color="#88C03D"/>
<stop offset="0.22" stop-color="#7EB238"/>
<stop offset="0.35" stop-color="#6C9930"/>
<stop offset="0.49" stop-color="#547726"/>
<stop offset="0.64" stop-color="#354C18"/>
<stop offset="0.78" stop-color="#101707"/>
<stop offset="0.84"/>
</linearGradient>
<linearGradient id="paint17_linear_228_63" x1="359.055" y1="177.503" x2="491.143" y2="266.172" gradientUnits="userSpaceOnUse">
<stop stop-color="#8CC63F"/>
<stop offset="0.1" stop-color="#88C03D"/>
<stop offset="0.22" stop-color="#7EB238"/>
<stop offset="0.35" stop-color="#6C9930"/>
<stop offset="0.49" stop-color="#547726"/>
<stop offset="0.64" stop-color="#354C18"/>
<stop offset="0.78" stop-color="#101707"/>
<stop offset="0.84"/>
</linearGradient>
<linearGradient id="paint18_linear_228_63" x1="300.897" y1="103.28" x2="380.421" y2="-8.88062" gradientUnits="userSpaceOnUse">
<stop stop-color="#B3445E"/>
<stop offset="0.11" stop-color="#AD425B"/>
<stop offset="0.23" stop-color="#9F3C53"/>
<stop offset="0.37" stop-color="#863346"/>
<stop offset="0.52" stop-color="#652635"/>
<stop offset="0.67" stop-color="#39151E"/>
<stop offset="0.83" stop-color="#040102"/>
<stop offset="0.84"/>
</linearGradient>
<linearGradient id="paint19_linear_228_63" x1="426.168" y1="32.9943" x2="289.363" y2="46.6599" gradientUnits="userSpaceOnUse">
<stop stop-color="#B3445E"/>
<stop offset="0.11" stop-color="#AD425B"/>
<stop offset="0.23" stop-color="#9F3C53"/>
<stop offset="0.37" stop-color="#863346"/>
<stop offset="0.52" stop-color="#652635"/>
<stop offset="0.67" stop-color="#39151E"/>
<stop offset="0.83" stop-color="#040102"/>
<stop offset="0.84"/>
</linearGradient>
<linearGradient id="paint20_linear_228_63" x1="356.33" y1="-11.9722" x2="338.284" y2="75.5585" gradientUnits="userSpaceOnUse">
<stop stop-color="#B3445E"/>
<stop offset="0.11" stop-color="#AD425B"/>
<stop offset="0.23" stop-color="#9F3C53"/>
<stop offset="0.37" stop-color="#863346"/>
<stop offset="0.52" stop-color="#652635"/>
<stop offset="0.67" stop-color="#39151E"/>
<stop offset="0.83" stop-color="#040102"/>
<stop offset="0.84"/>
</linearGradient>
<linearGradient id="paint21_linear_228_63" x1="345.243" y1="25.4176" x2="351.505" y2="43.5443" gradientUnits="userSpaceOnUse">
<stop offset="0.1" stop-color="#FFAF00"/>
<stop offset="0.17" stop-color="#F9AB00"/>
<stop offset="0.27" stop-color="#E9A000"/>
<stop offset="0.37" stop-color="#CF8E00"/>
<stop offset="0.49" stop-color="#AB7500"/>
<stop offset="0.61" stop-color="#7C5500"/>
<stop offset="0.74" stop-color="#422D00"/>
<stop offset="0.87"/>
</linearGradient>
<linearGradient id="paint22_linear_228_63" x1="628.406" y1="689.366" x2="752.251" y2="1117.47" gradientUnits="userSpaceOnUse">
<stop stop-color="#97C6D5"/>
<stop offset="0.32" stop-color="#95C4D3"/>
<stop offset="0.44" stop-color="#90BDCC"/>
<stop offset="0.52" stop-color="#88B2C0"/>
<stop offset="0.59" stop-color="#7CA3AF"/>
<stop offset="0.65" stop-color="#6C8E99"/>
<stop offset="0.7" stop-color="#59757E"/>
<stop offset="0.75" stop-color="#42575E"/>
<stop offset="0.79" stop-color="#273438"/>
<stop offset="0.83" stop-color="#0A0E0F"/>
<stop offset="0.84"/>
</linearGradient>
<linearGradient id="paint23_linear_228_63" x1="251.314" y1="1578.73" x2="290.708" y2="2113.06" gradientUnits="userSpaceOnUse">
<stop stop-color="#97C6D5"/>
<stop offset="0.35" stop-color="#95C4D3"/>
<stop offset="0.47" stop-color="#90BDCC"/>
<stop offset="0.56" stop-color="#88B2C0"/>
<stop offset="0.63" stop-color="#7CA3AF"/>
<stop offset="0.69" stop-color="#6C8E99"/>
<stop offset="0.75" stop-color="#59757E"/>
<stop offset="0.8" stop-color="#42575E"/>
<stop offset="0.84" stop-color="#273438"/>
<stop offset="0.88" stop-color="#0A0E0F"/>
<stop offset="0.9"/>
</linearGradient>
<linearGradient id="paint24_linear_228_63" x1="568.45" y1="1578.73" x2="529.056" y2="2113.06" gradientUnits="userSpaceOnUse">
<stop stop-color="#97C6D5"/>
<stop offset="0.35" stop-color="#95C4D3"/>
<stop offset="0.47" stop-color="#90BDCC"/>
<stop offset="0.56" stop-color="#88B2C0"/>
<stop offset="0.63" stop-color="#7CA3AF"/>
<stop offset="0.69" stop-color="#6C8E99"/>
<stop offset="0.75" stop-color="#59757E"/>
<stop offset="0.8" stop-color="#42575E"/>
<stop offset="0.84" stop-color="#273438"/>
<stop offset="0.88" stop-color="#0A0E0F"/>
<stop offset="0.9"/>
</linearGradient>
<linearGradient id="paint25_linear_228_63" x1="697.142" y1="1082.95" x2="835.824" y2="1496.44" gradientUnits="userSpaceOnUse">
<stop stop-color="#97C6D5"/>
<stop offset="0.32" stop-color="#95C4D3"/>
<stop offset="0.44" stop-color="#90BDCC"/>
<stop offset="0.52" stop-color="#88B2C0"/>
<stop offset="0.59" stop-color="#7CA3AF"/>
<stop offset="0.65" stop-color="#6C8E99"/>
<stop offset="0.7" stop-color="#59757E"/>
<stop offset="0.75" stop-color="#42575E"/>
<stop offset="0.79" stop-color="#273438"/>
<stop offset="0.83" stop-color="#0A0E0F"/>
<stop offset="0.84"/>
</linearGradient>
<linearGradient id="paint26_linear_228_63" x1="186.855" y1="691.415" x2="78.1761" y2="1123.61" gradientUnits="userSpaceOnUse">
<stop stop-color="#97C6D5"/>
<stop offset="0.32" stop-color="#95C4D3"/>
<stop offset="0.44" stop-color="#90BDCC"/>
<stop offset="0.52" stop-color="#88B2C0"/>
<stop offset="0.59" stop-color="#7CA3AF"/>
<stop offset="0.65" stop-color="#6C8E99"/>
<stop offset="0.7" stop-color="#59757E"/>
<stop offset="0.75" stop-color="#42575E"/>
<stop offset="0.79" stop-color="#273438"/>
<stop offset="0.83" stop-color="#0A0E0F"/>
<stop offset="0.84"/>
</linearGradient>
<linearGradient id="paint27_linear_228_63" x1="127.838" y1="1085.09" x2="1.26406" y2="1502.44" gradientUnits="userSpaceOnUse">
<stop stop-color="#97C6D5"/>
<stop offset="0.32" stop-color="#95C4D3"/>
<stop offset="0.44" stop-color="#90BDCC"/>
<stop offset="0.52" stop-color="#88B2C0"/>
<stop offset="0.59" stop-color="#7CA3AF"/>
<stop offset="0.65" stop-color="#6C8E99"/>
<stop offset="0.7" stop-color="#59757E"/>
<stop offset="0.75" stop-color="#42575E"/>
<stop offset="0.79" stop-color="#273438"/>
<stop offset="0.83" stop-color="#0A0E0F"/>
<stop offset="0.84"/>
</linearGradient>
<linearGradient id="paint28_linear_228_63" x1="592.94" y1="2134.83" x2="433.944" y2="2816.33" gradientUnits="userSpaceOnUse">
<stop stop-color="#97C6D5"/>
<stop offset="0.32" stop-color="#95C4D3"/>
<stop offset="0.44" stop-color="#90BDCC"/>
<stop offset="0.52" stop-color="#88B2C0"/>
<stop offset="0.59" stop-color="#7CA3AF"/>
<stop offset="0.65" stop-color="#6C8E99"/>
<stop offset="0.7" stop-color="#59757E"/>
<stop offset="0.75" stop-color="#42575E"/>
<stop offset="0.79" stop-color="#273438"/>
<stop offset="0.83" stop-color="#0A0E0F"/>
<stop offset="0.84"/>
</linearGradient>
<linearGradient id="paint29_linear_228_63" x1="271.627" y1="1049.2" x2="385.3" y2="1205.86" gradientUnits="userSpaceOnUse">
<stop stop-color="#E96743"/>
<stop offset="0.3" stop-color="#E76642"/>
<stop offset="0.41" stop-color="#E06340"/>
<stop offset="0.49" stop-color="#D45D3D"/>
<stop offset="0.55" stop-color="#C35638"/>
<stop offset="0.61" stop-color="#AD4C31"/>
<stop offset="0.66" stop-color="#92402A"/>
<stop offset="0.7" stop-color="#713220"/>
<stop offset="0.74" stop-color="#4C2115"/>
<stop offset="0.77" stop-color="#230F0A"/>
<stop offset="0.8"/>
</linearGradient>
<linearGradient id="paint30_linear_228_63" x1="248.98" y1="1161.14" x2="331.7" y2="1161.14" gradientUnits="userSpaceOnUse">
<stop/>
<stop offset="0.19" stop-color="#020100"/>
<stop offset="0.33" stop-color="#0C0503"/>
<stop offset="0.45" stop-color="#1C0D09"/>
<stop offset="0.57" stop-color="#331810"/>
<stop offset="0.68" stop-color="#502519"/>
<stop offset="0.78" stop-color="#743625"/>
<stop offset="0.88" stop-color="#9E4B32"/>
<stop offset="0.97" stop-color="#CF6142"/>
<stop offset="1" stop-color="#DE6947"/>
</linearGradient>
<linearGradient id="paint31_linear_228_63" x1="112.908" y1="603" x2="335.631" y2="382.835" gradientUnits="userSpaceOnUse">
<stop stop-color="#E96743"/>
<stop offset="0.3" stop-color="#E76642"/>
<stop offset="0.41" stop-color="#E06340"/>
<stop offset="0.49" stop-color="#D45D3D"/>
<stop offset="0.55" stop-color="#C35638"/>
<stop offset="0.61" stop-color="#AD4C31"/>
<stop offset="0.66" stop-color="#92402A"/>
<stop offset="0.7" stop-color="#713220"/>
<stop offset="0.74" stop-color="#4C2115"/>
<stop offset="0.77" stop-color="#230F0A"/>
<stop offset="0.8"/>
</linearGradient>
<linearGradient id="paint32_linear_228_63" x1="283.883" y1="753.741" x2="484.751" y2="555.187" gradientUnits="userSpaceOnUse">
<stop stop-color="#E96743"/>
<stop offset="0.32" stop-color="#E76642"/>
<stop offset="0.43" stop-color="#E06340"/>
<stop offset="0.51" stop-color="#D45D3D"/>
<stop offset="0.58" stop-color="#C35638"/>
<stop offset="0.64" stop-color="#AD4C31"/>
<stop offset="0.69" stop-color="#92402A"/>
<stop offset="0.73" stop-color="#713220"/>
<stop offset="0.77" stop-color="#4C2115"/>
<stop offset="0.81" stop-color="#230F0A"/>
<stop offset="0.84"/>
</linearGradient>
<linearGradient id="paint33_linear_228_63" x1="515.739" y1="640.874" x2="516.906" y2="1202.54" gradientUnits="userSpaceOnUse">
<stop stop-color="#97C6D5"/>
<stop offset="0.32" stop-color="#95C4D3"/>
<stop offset="0.44" stop-color="#90BDCC"/>
<stop offset="0.52" stop-color="#88B2C0"/>
<stop offset="0.59" stop-color="#7CA3AF"/>
<stop offset="0.65" stop-color="#6C8E99"/>
<stop offset="0.7" stop-color="#59757E"/>
<stop offset="0.75" stop-color="#42575E"/>
<stop offset="0.79" stop-color="#273438"/>
<stop offset="0.83" stop-color="#0A0E0F"/>
<stop offset="0.84"/>
</linearGradient>
<linearGradient id="paint34_linear_228_63" x1="309.993" y1="647.632" x2="311.141" y2="1199.71" gradientUnits="userSpaceOnUse">
<stop stop-color="#97C6D5"/>
<stop offset="0.32" stop-color="#95C4D3"/>
<stop offset="0.44" stop-color="#90BDCC"/>
<stop offset="0.52" stop-color="#88B2C0"/>
<stop offset="0.59" stop-color="#7CA3AF"/>
<stop offset="0.65" stop-color="#6C8E99"/>
<stop offset="0.7" stop-color="#59757E"/>
<stop offset="0.75" stop-color="#42575E"/>
<stop offset="0.79" stop-color="#273438"/>
<stop offset="0.83" stop-color="#0A0E0F"/>
<stop offset="0.84"/>
</linearGradient>
<linearGradient id="paint35_linear_228_63" x1="258.807" y1="605.259" x2="293.082" y2="710.034" gradientUnits="userSpaceOnUse">
<stop stop-color="#97C6D5"/>
<stop offset="0.32" stop-color="#95C4D3"/>
<stop offset="0.44" stop-color="#90BDCC"/>
<stop offset="0.52" stop-color="#88B2C0"/>
<stop offset="0.59" stop-color="#7CA3AF"/>
<stop offset="0.65" stop-color="#6C8E99"/>
<stop offset="0.7" stop-color="#59757E"/>
<stop offset="0.75" stop-color="#42575E"/>
<stop offset="0.79" stop-color="#273438"/>
<stop offset="0.83" stop-color="#0A0E0F"/>
<stop offset="0.84"/>
</linearGradient>
<linearGradient id="paint36_linear_228_63" x1="563.969" y1="601.325" x2="529.694" y2="706.1" gradientUnits="userSpaceOnUse">
<stop stop-color="#97C6D5"/>
<stop offset="0.32" stop-color="#95C4D3"/>
<stop offset="0.44" stop-color="#90BDCC"/>
<stop offset="0.52" stop-color="#88B2C0"/>
<stop offset="0.59" stop-color="#7CA3AF"/>
<stop offset="0.65" stop-color="#6C8E99"/>
<stop offset="0.7" stop-color="#59757E"/>
<stop offset="0.75" stop-color="#42575E"/>
<stop offset="0.79" stop-color="#273438"/>
<stop offset="0.83" stop-color="#0A0E0F"/>
<stop offset="0.84"/>
</linearGradient>
<linearGradient id="paint37_linear_228_63" x1="244.029" y1="1776.74" x2="756.299" y2="1270.37" gradientUnits="userSpaceOnUse">
<stop stop-color="#97C6D5"/>
<stop offset="0.35" stop-color="#95C4D3"/>
<stop offset="0.47" stop-color="#90BDCC"/>
<stop offset="0.56" stop-color="#88B2C0"/>
<stop offset="0.63" stop-color="#7CA3AF"/>
<stop offset="0.69" stop-color="#6C8E99"/>
<stop offset="0.75" stop-color="#59757E"/>
<stop offset="0.8" stop-color="#42575E"/>
<stop offset="0.84" stop-color="#273438"/>
<stop offset="0.88" stop-color="#0A0E0F"/>
<stop offset="0.9"/>
</linearGradient>
<linearGradient id="paint38_linear_228_63" x1="580.667" y1="1779.52" x2="68.3975" y2="1273.17" gradientUnits="userSpaceOnUse">
<stop stop-color="#97C6D5"/>
<stop offset="0.35" stop-color="#95C4D3"/>
<stop offset="0.47" stop-color="#90BDCC"/>
<stop offset="0.56" stop-color="#88B2C0"/>
<stop offset="0.63" stop-color="#7CA3AF"/>
<stop offset="0.69" stop-color="#6C8E99"/>
<stop offset="0.75" stop-color="#59757E"/>
<stop offset="0.8" stop-color="#42575E"/>
<stop offset="0.84" stop-color="#273438"/>
<stop offset="0.88" stop-color="#0A0E0F"/>
<stop offset="0.9"/>
</linearGradient>
</defs>
</svg>
