<svg width="369" height="603" viewBox="0 0 369 603" fill="none" xmlns="http://www.w3.org/2000/svg">
<path d="M367.067 372.083C365.523 375.152 360.572 382.192 347.657 381.514C344.043 381.326 340.278 380.61 335.891 379.782C327.1 378.107 315.051 375.848 308.67 379.726C303.229 383.001 301.177 391.434 299.351 398.869C297.035 408.488 293.816 421.627 279.095 424.018C263.507 426.559 254.264 413.684 246.846 403.368C245.434 401.392 243.514 398.681 241.707 396.422C240.408 399.152 239.109 402.408 238.149 404.761C233.612 416.056 228.077 429.834 214.937 433.919C213.412 434.409 211.774 434.766 210.023 434.955C208.988 435.049 208.009 435.105 207.011 435.105C205.053 435.105 203.19 434.879 201.42 434.465C189.598 431.754 181.804 420.724 175.328 411.481C172.316 407.208 166.197 398.493 162.846 396.893C161.755 397.476 160.305 398.907 158.799 400.658C156.615 403.161 154.319 406.286 152.756 408.394C151.099 410.653 149.292 413.119 147.297 415.528C143.607 419.99 132.236 431.397 119.152 430.098C109.231 429.119 102.416 421.288 101.136 419.801C93.8883 411.481 94.6602 402.935 86.9229 399.811C85.5863 399.265 82.3294 397.947 79.3173 399.265C71.4483 402.672 77.9431 418.521 70.074 425.279C62.5249 431.755 49.0458 423.585 31.6322 429.232C29.3543 429.966 25.7586 431.359 24.0643 434.729C22.4453 437.985 22.8594 442.522 24.949 445.176C29.2413 450.635 40.0472 447.397 52.6415 445.948C52.6415 445.948 71.8059 443.726 92.194 447.529C117.025 452.159 119.943 463.247 149.894 469.007C162.037 471.341 160.192 469.101 170.339 471.586C190.106 476.442 218.194 489.449 221.865 509.346C223.503 518.325 218.608 520.113 213.638 536.603C212.659 539.935 211.661 543.812 210.72 548.462C206.861 567.38 207.858 579.144 198.257 592.265C194.812 596.971 191.16 600.265 188.619 602.298C187.979 599.267 187.414 597.008 186.924 595.634C186.247 593.733 184.477 588.82 182.256 588.048C182.049 587.973 181.842 587.935 181.616 587.935C181.409 587.935 181.201 587.992 181.013 588.086C178.98 588.858 177.568 593.225 177.022 594.9C176.589 596.236 176.043 598.533 175.403 601.658C173.652 599.719 171.205 596.782 168.72 592.905C158.498 576.867 159.232 562.373 156.898 551.229C156.239 548.066 146.732 535.342 128.094 509.967C113.316 489.845 105.711 479.661 95.0932 473.506C90.1044 470.607 81.7835 465.92 70.4881 465.393C57.5926 464.79 54.4864 470.268 42.5322 471.115C29.8061 472.019 9.15437 467.538 2.35833 452.31C-3.13874 439.943 1.36059 422.512 11.8464 414.437C26.9069 402.841 49.2717 414.437 56.4443 402.728C59.2116 398.211 56.3125 395.801 60.5482 386.803C60.9812 385.9 65.1794 377.429 72.992 371.914C76.6441 369.335 81.1434 367.622 86.7911 367.622H86.8853C95.5827 367.66 101.795 371.726 106.502 377.09C110.587 381.683 113.542 387.218 116.065 391.942C117.533 394.653 119.736 398.681 121.581 401.279C123.595 399.039 126.099 395.632 127.812 393.316C131.784 387.914 136.585 381.401 142.91 376.582C146.544 373.796 150.685 371.575 155.486 370.427C157.688 369.9 160.023 369.58 162.526 369.561H162.846C181.39 369.561 192.064 384.733 200.648 396.912C201.91 398.681 203.472 400.902 204.997 402.935C205.374 403.444 205.75 403.933 206.126 404.404C207.52 401.524 208.932 398.022 209.948 395.481C212.904 388.14 216.274 379.763 221.921 373.74C225.931 369.429 231.127 366.342 238.149 365.721C254.132 364.29 263.733 377.034 271.395 387.726C272.073 385.241 272.882 382.587 273.899 379.895C277.005 371.707 282.144 363.085 291.971 357.137C298.184 353.372 304.829 351.509 311.38 350.775C314.317 350.455 317.235 350.361 320.097 350.417C319.268 349.231 318.44 348.026 317.631 346.728C315.409 343.189 313.677 339.838 312.303 336.732C311.682 335.339 311.136 333.984 310.646 332.704C301.855 344.055 289.844 358.436 271.094 358.474H271C266.368 358.474 262.302 357.608 258.688 356.196C252.833 353.918 248.183 350.229 244.324 346.577C242.724 345.071 241.255 343.565 239.9 342.172C238.149 340.365 235.476 337.579 233.744 336.356C233.537 336.205 233.33 336.092 233.16 335.998C232.652 336.299 232.049 336.864 231.391 337.56C229.489 339.631 227.192 342.982 225.762 345.052C222.298 350.116 218.043 356.29 211.868 360.507C207.746 363.311 202.757 365.231 196.582 365.344H195.998C179.601 365.344 170.433 352.205 163.694 342.568C162.093 340.271 159.721 336.864 157.82 334.662C156.145 336.808 154.187 339.876 152.85 342.003C151.363 344.375 149.744 346.954 147.899 349.495C145.263 353.165 142.157 356.798 138.317 359.641C133.949 362.897 128.622 365.156 121.957 365.344C119.962 365.401 118.098 365.25 116.328 364.949C104.92 362.991 97.9735 354.408 93.1542 348.422C91.5352 346.502 89.1067 343.471 87.4689 342.135C85.0404 343.866 81.0681 349.099 78.8467 352.055C75.8911 355.932 72.4648 360.45 68.2479 364.215C62.6379 369.222 55.6348 372.949 46.4479 372.177C26.361 370.502 13.4278 347.876 14.3879 328.581C15.5551 304.845 37.2422 290.652 47.6715 283.8C71.0529 268.458 91.4411 265.447 109.363 262.774C135.361 258.934 135.945 257.541 139.07 256.524C141.592 255.696 144.04 254.774 146.393 253.814C151.156 251.894 155.523 249.748 159.251 247.583C168.193 242.444 173.596 237.211 172.561 234.538C172.391 234.105 172.052 233.672 171.525 233.239C183.573 235.216 195.622 237.23 207.67 239.244C201.062 243.988 202.776 246.341 193.288 255.809C190.181 258.877 186.981 261.644 183.781 264.11C169.266 275.235 154.695 280.28 149.424 282.03C139.54 285.343 130.918 287.151 114.22 289.616C97.3899 292.101 82.8754 294.266 65.2546 305.805C55.4088 312.28 44.8289 319.998 44.3583 329.767C44.0759 335.226 46.5043 340.553 48.6693 343.433C50.4201 341.513 52.5286 338.728 54.1099 336.638C57.1785 332.61 60.6989 327.96 65.0664 323.97C70.9588 318.586 78.3949 314.407 88.2595 314.614C102.492 314.897 110.869 324.421 116.479 331.33C116.761 331.687 117.044 332.026 117.307 332.346C117.402 332.459 117.514 332.591 117.609 332.723C118.663 334.022 119.981 335.622 121.091 336.826C121.882 335.904 122.729 334.718 123.576 333.476C124.744 331.782 125.873 329.956 126.777 328.563C132.707 319.132 140.802 306.238 156.747 305.767C173.144 305.315 182.369 318.417 189.089 328.036C190.897 330.671 193.626 334.605 195.791 336.864C197.26 335.132 198.973 332.591 200.309 330.69C206.296 321.956 214.542 309.927 230.826 308.741C235.796 308.384 240.163 309.155 244.004 310.586C252.212 313.654 258.085 319.716 262.434 324.214C265.013 326.85 269.286 331.292 271 331.292C273.07 331.292 276.195 328.582 279.264 325.269C282.351 321.956 285.401 317.984 287.378 315.405C290.183 311.772 293.251 307.819 296.715 304.431C302.965 298.294 310.571 293.946 320.53 296.412C332.409 299.348 334.931 309.212 336.607 315.763C337.887 320.713 339.355 326.36 343.666 333.231C348.354 340.591 353.757 345.259 358.106 349.024C363.471 353.636 372.432 361.391 367.067 372.102V372.083Z" fill="url(#paint0_linear_228_64)"/>
<path d="M360.684 147.365C357.748 184.222 329.151 206.829 302.607 227.818C284.497 242.143 268.816 256.43 247.26 257.559C238.243 258.03 231.164 256.148 217.591 259.254C205.637 261.983 200.384 265.898 189.221 264.901C180.147 264.11 173.935 260.665 172.109 259.611C163.637 254.679 159.458 247.959 158.479 246.34C156.671 243.291 152.492 236.307 153.302 226.914C154.224 216.222 160.907 209.427 163.486 206.735C174.612 195.14 182.613 200.279 197.109 188.476C201.081 185.257 212.32 176.09 213.205 162.575C213.318 160.805 213.562 156.175 211.435 150.942C207.425 141.266 199.801 140.89 195.339 133.944C189.07 124.231 193.852 109.454 198.012 101.774C207.049 85.1715 224.124 82.6679 223.352 73.4631C223.069 69.8301 220.245 68.2489 214.41 63.1853C205.806 55.7688 193.381 35.8156 183.611 18.4225C180.279 12.4742 182.406 4.90702 188.355 1.57522C194.304 -1.75658 201.872 0.370537 205.204 6.31884C214.748 23.3167 216.895 31.4109 233.461 47.3734C237.264 51.0441 243.759 57.1617 253.661 59.1759C263.036 61.0959 269.719 58.1406 275.612 56.8417C298.56 51.7405 321.866 68.9265 327.627 73.1619C350.876 90.3291 362.831 120.41 360.684 147.365V147.365Z" fill="url(#paint1_linear_228_64)"/>
<defs>
<linearGradient id="paint0_linear_228_64" x1="-44.9692" y1="291.254" x2="391.521" y2="525.796" gradientUnits="userSpaceOnUse">
<stop stop-color="#E96743"/>
<stop offset="0.3" stop-color="#E76642"/>
<stop offset="0.41" stop-color="#E06340"/>
<stop offset="0.49" stop-color="#D45D3D"/>
<stop offset="0.55" stop-color="#C35638"/>
<stop offset="0.61" stop-color="#AD4C31"/>
<stop offset="0.66" stop-color="#92402A"/>
<stop offset="0.7" stop-color="#713220"/>
<stop offset="0.74" stop-color="#4C2115"/>
<stop offset="0.77" stop-color="#230F0A"/>
<stop offset="0.8"/>
</linearGradient>
<linearGradient id="paint1_linear_228_64" x1="165.218" y1="28.0979" x2="323.425" y2="284.943" gradientUnits="userSpaceOnUse">
<stop stop-color="#E96743"/>
<stop offset="0.3" stop-color="#E76642"/>
<stop offset="0.41" stop-color="#E06340"/>
<stop offset="0.49" stop-color="#D45D3D"/>
<stop offset="0.55" stop-color="#C35638"/>
<stop offset="0.61" stop-color="#AD4C31"/>
<stop offset="0.66" stop-color="#92402A"/>
<stop offset="0.7" stop-color="#713220"/>
<stop offset="0.74" stop-color="#4C2115"/>
<stop offset="0.77" stop-color="#230F0A"/>
<stop offset="0.8"/>
</linearGradient>
</defs>
</svg>
