<svg width="274" height="274" viewBox="0 0 274 274" fill="none" xmlns="http://www.w3.org/2000/svg">
<path d="M269.197 74.1321C266.486 80.2499 260.236 94.3112 246.38 96.9465C232.939 99.4877 217.728 90.2452 214.641 79.2333C212.344 71.0073 217.464 64.1367 219.648 57.4166C209.972 56.5131 197.001 57.2284 187.4 65.0402C175.578 74.6404 173.921 90.8852 172.829 101.671V101.878C170.156 127.817 166.767 156.862 163.059 187.733C164.866 188.148 166.692 188.618 168.556 189.145C180.849 192.628 186.986 194.359 191.316 200.138C202.366 214.802 194.027 243.245 177.968 258.398C155.321 279.744 113.302 278.464 92.4437 256.045C79.0964 241.701 71.8485 215.913 82.4097 201.588C86.5513 195.978 92.2554 193.983 103.231 190.595C96.3782 159.611 91.6907 130.17 89.281 102.688L89.1492 101.332C88.0762 88.8522 86.5889 71.7791 75.0488 63.4967C69.1376 59.2613 61.758 58.0378 54.3784 58.3578C56.7128 64.7767 61.2497 71.3838 59.0471 79.2333C55.9785 90.2452 40.7674 99.4877 27.326 96.9465C13.4703 94.3112 7.23907 80.2499 4.50936 74.1321C-3.07735 57.059 -1.34538 34.5269 11.6443 18.5267C12.3032 17.7173 27.3636 -0.315795 47.2999 0.00420856C49.2955 0.0418561 54.8867 0.192414 61.1368 3.14774C64.9395 4.936 72.3756 8.47481 74.3899 15.6843C76.5925 23.5526 71.0014 31.101 68.554 34.414C63.923 40.6823 60.0637 41.4541 57.1457 43.7317C67.4433 43.807 76.3667 46.4612 83.558 51.6189C100.558 63.8167 102.459 85.6334 103.701 100.052L103.833 101.389C106.186 128.1 110.723 156.75 117.388 186.943C126.311 185.23 136.891 184.308 148.638 185.399C152.309 154.83 155.66 126.048 158.296 100.391V100.184C159.595 87.8358 161.703 67.1297 178.213 53.7271C187.626 46.0659 200.164 42.2635 214.791 42.5458C212.156 40.9646 208.918 39.4964 205.171 34.4328C202.724 31.1198 197.152 23.5903 199.354 15.7032C201.369 8.47483 208.805 4.95484 212.589 3.16658C218.839 0.192432 224.43 0.0605833 226.444 0.0229358C246.381 -0.278244 261.441 17.7361 262.1 18.5456C275.09 34.5457 276.821 57.0589 269.216 74.1509L269.197 74.1321Z" fill="url(#paint0_linear_228_61)"/>
<defs>
<linearGradient id="paint0_linear_228_61" x1="136.853" y1="132.392" x2="136.853" y2="295.481" gradientUnits="userSpaceOnUse">
<stop stop-color="#97C6D5"/>
<stop offset="0.32" stop-color="#95C4D3"/>
<stop offset="0.44" stop-color="#90BDCC"/>
<stop offset="0.52" stop-color="#88B2C0"/>
<stop offset="0.59" stop-color="#7CA3AF"/>
<stop offset="0.65" stop-color="#6C8E99"/>
<stop offset="0.7" stop-color="#59757E"/>
<stop offset="0.75" stop-color="#42575E"/>
<stop offset="0.79" stop-color="#273438"/>
<stop offset="0.83" stop-color="#0A0E0F"/>
<stop offset="0.84"/>
</linearGradient>
</defs>
</svg>
