<svg width="223" height="593" viewBox="0 0 223 593" fill="none" xmlns="http://www.w3.org/2000/svg">
<g clip-path="url(#clip0_161_317)">
<path d="M327.966 64.5691C344.227 97.5492 349.19 126.613 350.89 144.781C353.082 168.142 356.464 204.009 336.757 240.248C329.479 253.631 321.072 263.285 315.181 269.294C309.039 251.478 302.898 233.663 296.743 215.895C297.553 227.054 298.664 261.331 276.315 295.304C249.561 336.029 208.316 347.073 198.865 349.364C199.539 340.544 204.013 282.446 204.013 282.446C152.753 326.786 146.942 330.757 146.942 330.757C124.708 346.01 88.7225 359.723 28.5621 353.19C44.8584 341.46 66.347 323.464 86.7956 297.386C107.423 271.051 119.853 245.724 127.355 226.995C117.758 225.38 95.3998 223.079 71.3457 234.142C58.8101 239.912 49.8996 247.409 44.1247 253.195C42.9186 247.793 35.7668 212.629 58.5034 183.149C79.5316 155.797 117.722 144.428 154.074 155.193C153.852 152.603 152.335 136.807 138.794 126.621C126.9 117.688 110.308 116.504 96.2387 123.629C115.875 108.081 151.925 83.5689 203.255 70.0069C257.32 55.7492 302.991 60.2684 328.046 64.6444L327.966 64.5691Z" fill="url(#paint0_linear_161_317)"/>
<path d="M0.105595 456.204C46.117 474.431 83.3189 473.183 103.997 470.644C165.435 462.999 206.987 427.804 245.663 395.059C281.047 365.119 305.147 335.255 319.944 314.708C317.532 325.757 313.81 338.431 307.926 351.903C294.187 383.488 274.853 405.422 260.593 418.826C282.4 414.279 317.758 403.436 350.714 375.417C427.231 310.427 423.898 209.843 423.18 195.407C403.123 189.299 363.682 180.292 316.293 190.275C305.635 192.545 261.193 202.769 218.476 239.938C156.807 293.615 170.126 341.221 117.076 394.717C96.8463 415.158 61.7322 441.632 0 456.171L0.105595 456.204Z" fill="url(#paint1_linear_161_317)"/>
</g>
<defs>
<linearGradient id="paint0_linear_161_317" x1="337.293" y1="398.909" x2="69.7128" y2="77.3743" gradientUnits="userSpaceOnUse">
<stop stop-color="#8CC63F"/>
<stop offset="0.1" stop-color="#88C03D"/>
<stop offset="0.22" stop-color="#7EB238"/>
<stop offset="0.35" stop-color="#6C9930"/>
<stop offset="0.49" stop-color="#547726"/>
<stop offset="0.64" stop-color="#354C18"/>
<stop offset="0.78" stop-color="#101707"/>
<stop offset="0.84"/>
</linearGradient>
<linearGradient id="paint1_linear_161_317" x1="-222.665" y1="430.84" x2="537.346" y2="254.539" gradientUnits="userSpaceOnUse">
<stop stop-color="#8CC63F"/>
<stop offset="0.1" stop-color="#88C03D"/>
<stop offset="0.22" stop-color="#7EB238"/>
<stop offset="0.35" stop-color="#6C9930"/>
<stop offset="0.49" stop-color="#547726"/>
<stop offset="0.64" stop-color="#354C18"/>
<stop offset="0.78" stop-color="#101707"/>
<stop offset="0.84"/>
</linearGradient>
<clipPath id="clip0_161_317">
<rect width="223" height="593" fill="white"/>
</clipPath>
</defs>
</svg>
