<svg width="406" height="892" viewBox="0 0 406 892" fill="none" xmlns="http://www.w3.org/2000/svg">
<g clip-path="url(#clip0_161_724)">
<path d="M-141.613 664.938C-135.629 617.905 -120.284 583.104 -109.185 562.345C-94.9197 535.646 -73.0357 494.644 -26.0644 469.624C-8.71671 460.384 7.18993 455.958 17.7996 453.671C11.7257 477.203 5.65184 500.734 -0.373291 524.225C6.69571 511.64 29.8899 473.96 78.0897 453.253C135.829 428.405 188.029 445.782 199.819 450.022C192.82 459.036 146.671 518.391 146.671 518.391C233.329 507.038 242.403 506.887 242.403 506.887C277.16 506.247 325.603 517.02 385.633 566.735C359.766 567.798 323.86 571.919 283.321 585.478C242.407 599.186 211.022 617.625 189.631 632.46C198.799 641.008 221.199 659.347 254.931 664.506C272.513 667.191 287.428 665.443 297.753 663.315C295.206 669.983 277.875 712.905 232.455 728.499C190.386 743.02 141.239 728.155 109.816 690.78C108.212 693.725 98.6039 711.803 105.914 732.373C112.345 750.424 129.341 763.471 149.536 765.787C117.363 768.587 61.1645 769.394 -3.66937 747.568C-71.9386 724.555 -117.823 687.286 -141.646 664.8L-141.613 664.938Z" fill="url(#paint0_linear_161_724)"/>
<path d="M399.572 139.823C353.245 120.748 315.577 121.521 294.615 123.82C232.332 130.754 189.811 165.866 150.233 198.533C114.025 228.4 89.2372 258.341 73.9897 278.963C76.5767 267.801 80.511 255.008 86.6445 241.437C100.968 209.615 120.827 187.647 135.438 174.254C113.306 178.573 77.3775 189.092 43.6513 217.047C-34.6528 281.884 -32.6115 383.841 -32.0766 398.477C-11.8578 404.931 27.9407 414.578 76.0352 405.089C86.8532 402.93 131.968 393.157 175.695 356.062C238.82 302.49 225.971 254.079 280.371 200.577C301.116 180.133 337.007 153.774 399.678 139.859L399.572 139.823Z" fill="url(#paint1_linear_161_724)"/>
<path d="M377.974 311.709C364.974 360.058 341.463 389.473 326.893 404.705C283.524 449.903 229.773 462.295 179.753 473.837C134.007 484.408 95.1445 485.873 69.4867 485.435C79.9308 490.168 92.4894 494.822 107.004 498.206C140.999 506.184 170.53 503.783 190.055 500.332C173.169 515.265 142.97 537.376 100.253 547.14C1.12663 569.851 -78.6621 506.257 -89.9683 496.935C-82.8078 476.972 -66.2825 439.534 -29.5071 407.145C-21.215 399.876 13.975 370.024 70.0361 357.882C150.982 340.364 181.646 379.985 257.233 369.348C286.092 365.317 328.857 352.866 378.011 311.604L377.974 311.709Z" fill="url(#paint2_linear_161_724)"/>
</g>
<defs>
<linearGradient id="paint0_linear_161_724" x1="86.2511" y1="298.483" x2="146.076" y2="834.281" gradientUnits="userSpaceOnUse">
<stop stop-color="#8CC63F"/>
<stop offset="0.1" stop-color="#88C03D"/>
<stop offset="0.22" stop-color="#7EB238"/>
<stop offset="0.35" stop-color="#6C9930"/>
<stop offset="0.49" stop-color="#547726"/>
<stop offset="0.64" stop-color="#354C18"/>
<stop offset="0.78" stop-color="#101707"/>
<stop offset="0.84"/>
</linearGradient>
<linearGradient id="paint1_linear_161_724" x1="624.702" y1="168.465" x2="-146.926" y2="336.668" gradientUnits="userSpaceOnUse">
<stop stop-color="#8CC63F"/>
<stop offset="0.1" stop-color="#88C03D"/>
<stop offset="0.22" stop-color="#7EB238"/>
<stop offset="0.35" stop-color="#6C9930"/>
<stop offset="0.49" stop-color="#547726"/>
<stop offset="0.64" stop-color="#354C18"/>
<stop offset="0.78" stop-color="#101707"/>
<stop offset="0.84"/>
</linearGradient>
<linearGradient id="paint2_linear_161_724" x1="492.058" y1="115.691" x2="-110.033" y2="626.359" gradientUnits="userSpaceOnUse">
<stop stop-color="#8CC63F"/>
<stop offset="0.1" stop-color="#88C03D"/>
<stop offset="0.22" stop-color="#7EB238"/>
<stop offset="0.35" stop-color="#6C9930"/>
<stop offset="0.49" stop-color="#547726"/>
<stop offset="0.64" stop-color="#354C18"/>
<stop offset="0.78" stop-color="#101707"/>
<stop offset="0.84"/>
</linearGradient>
<clipPath id="clip0_161_724">
<rect width="406" height="892" fill="white"/>
</clipPath>
</defs>
</svg>
