<svg width="1013" height="511" viewBox="0 0 1013 511" fill="none" xmlns="http://www.w3.org/2000/svg">
<path d="M413.79 474.827C370.779 413.329 359.556 358.024 356.142 326.597C345.96 233.299 383.386 159.666 418.351 91.1225C450.256 28.4724 485.941 -17.5543 511.08 -46.5857C495.536 -39.1736 478.153 -29.2088 460.3 -15.8193C418.426 15.4882 392.773 51.6915 377.941 77.4526C377.072 43.698 380.687 -12.2188 410.586 -70.7219C479.926 -206.35 629.668 -236.657 651.251 -240.681C667.303 -213.304 694.399 -158.251 696.169 -84.7944C696.575 -68.3148 696.976 0.850555 657.006 76.9047C599.265 186.672 524.201 183.705 463.714 280.629C440.602 317.643 413.686 378.683 413.836 474.78L413.79 474.827Z" fill="url(#paint0_linear_161_68)"/>
<path d="M0.141006 195.837C61.627 220.241 111.341 218.571 138.973 215.171C221.075 204.935 276.602 157.81 328.285 113.966C375.569 73.8783 407.775 33.8909 427.548 6.38025C424.325 21.1737 419.352 38.144 411.489 56.1818C393.129 98.4731 367.293 127.841 348.236 145.789C377.378 139.701 424.627 125.183 468.667 87.6662C570.919 0.647842 566.464 -134.03 565.505 -153.359C538.703 -161.537 485.997 -173.597 422.67 -160.231C408.427 -157.191 349.038 -143.501 291.954 -93.7337C209.545 -21.8633 227.343 41.8799 156.452 113.508C129.418 140.878 82.494 176.325 0 195.792L0.141006 195.837Z" fill="url(#paint1_linear_161_68)"/>
<path d="M581.926 501.749C642.901 476.088 677.26 440.092 694.56 418.258C745.992 353.416 752.651 280.922 758.868 213.356C764.544 151.608 759.526 100.571 754.444 67.0545C762.537 79.8473 770.855 95.4518 777.901 113.822C794.422 156.857 796.461 195.878 795.513 222.051C812.048 197.256 835.636 153.827 840.793 96.1869C852.82 -37.5271 755.383 -130.514 741.183 -143.686C716.372 -130.791 670.256 -102.437 634.429 -48.5088C626.344 -36.3877 593.551 14.9938 587.679 90.512C579.142 199.477 636.489 232.603 636.084 333.365C635.894 371.837 627.268 429.998 582.03 501.643L581.926 501.749Z" fill="url(#paint2_linear_161_68)"/>
<path d="M895.8 -96.6884C939.1 -73.2679 967.1 -45.4356 983.08 -27.0022C1003.63 -3.19513 1035.16 33.2557 1041.88 88.056C1044.35 108.302 1042.75 125.323 1040.98 136.445C1020.46 121.817 999.89 107.142 979.42 92.466C988.98 104.004 1016.82 140.549 1018.9 194.894C1021.45 260.051 985.17 304.119 976.69 313.875C970.56 303.745 930.28 236.872 930.28 236.872C908.93 324.957 905.72 333.849 905.72 333.849C893.34 367.727 864.91 410.57 794.395 450.114C803.05 424.713 812.36 388.392 814.34 344.111C816.33 299.361 810.17 262.115 803.731 235.878C792.052 241.602 765.882 256.41 748.305 287.076C739.15 303.023 735.277 318.2 733.547 328.994C728.048 324.007 692.958 291.208 694.733 241.449C696.369 195.252 729.017 153.292 776.989 136.892C774.753 134.252 760.819 118.18 738.191 117.582C718.28 117.042 699.373 128.665 689.551 147.29C698.819 115.091 718.981 60.4133 764.294 5.83302C812 -51.6817 865.22 -82.1049 895.89 -96.7833L895.8 -96.6884Z" fill="url(#paint3_linear_161_68)"/>
<path d="M813.27 -144.545C835 -100.386 841.63 -61.4709 843.9 -37.1446C846.83 -5.86543 851.35 42.1593 825.02 90.6808C815.29 108.601 804.056 121.527 796.183 129.573C787.976 105.718 779.769 81.8641 771.544 58.0734C772.627 73.0148 774.112 118.91 744.246 164.399C708.494 218.928 653.377 233.715 640.748 236.782C641.648 224.973 647.627 147.182 647.627 147.182C579.128 206.552 571.362 211.869 571.362 211.869C541.65 232.292 493.562 250.653 413.168 241.905C434.945 226.199 463.661 202.104 490.987 167.186C518.552 131.925 535.163 98.0128 545.187 72.9364C532.363 70.7727 502.485 67.692 470.341 82.5059C453.589 90.2314 441.682 100.27 433.965 108.016C432.353 100.785 422.796 53.7013 453.18 14.228C481.28 -22.3947 532.315 -37.617 580.893 -23.2039C580.596 -26.6711 578.569 -47.8215 560.474 -61.4603C544.579 -73.4209 522.407 -75.0068 503.606 -65.466C529.846 -86.2836 578.021 -119.105 646.615 -137.264C718.863 -156.354 779.894 -150.303 813.38 -144.444L813.27 -144.545Z" fill="url(#paint4_linear_161_68)"/>
<defs>
<linearGradient id="paint0_linear_161_68" x1="529.149" y1="794.555" x2="522.949" y2="-388.236" gradientUnits="userSpaceOnUse">
<stop stop-color="#8CC63F"/>
<stop offset="0.1" stop-color="#88C03D"/>
<stop offset="0.22" stop-color="#7EB238"/>
<stop offset="0.35" stop-color="#6C9930"/>
<stop offset="0.49" stop-color="#547726"/>
<stop offset="0.64" stop-color="#354C18"/>
<stop offset="0.78" stop-color="#101707"/>
<stop offset="0.84"/>
</linearGradient>
<linearGradient id="paint1_linear_161_68" x1="-297.552" y1="161.875" x2="718.272" y2="-73.3037" gradientUnits="userSpaceOnUse">
<stop stop-color="#8CC63F"/>
<stop offset="0.1" stop-color="#88C03D"/>
<stop offset="0.22" stop-color="#7EB238"/>
<stop offset="0.35" stop-color="#6C9930"/>
<stop offset="0.49" stop-color="#547726"/>
<stop offset="0.64" stop-color="#354C18"/>
<stop offset="0.78" stop-color="#101707"/>
<stop offset="0.84"/>
</linearGradient>
<linearGradient id="paint2_linear_161_68" x1="345.685" y1="686.002" x2="906.219" y2="-193.428" gradientUnits="userSpaceOnUse">
<stop stop-color="#8CC63F"/>
<stop offset="0.1" stop-color="#88C03D"/>
<stop offset="0.22" stop-color="#7EB238"/>
<stop offset="0.35" stop-color="#6C9930"/>
<stop offset="0.49" stop-color="#547726"/>
<stop offset="0.64" stop-color="#354C18"/>
<stop offset="0.78" stop-color="#101707"/>
<stop offset="0.84"/>
</linearGradient>
<linearGradient id="paint3_linear_161_68" x1="1165.98" y1="260.836" x2="624.557" y2="118.969" gradientUnits="userSpaceOnUse">
<stop stop-color="#8CC63F"/>
<stop offset="0.1" stop-color="#88C03D"/>
<stop offset="0.22" stop-color="#7EB238"/>
<stop offset="0.35" stop-color="#6C9930"/>
<stop offset="0.49" stop-color="#547726"/>
<stop offset="0.64" stop-color="#354C18"/>
<stop offset="0.78" stop-color="#101707"/>
<stop offset="0.84"/>
</linearGradient>
<linearGradient id="paint4_linear_161_68" x1="825.73" y1="303.121" x2="467.327" y2="-126.706" gradientUnits="userSpaceOnUse">
<stop stop-color="#8CC63F"/>
<stop offset="0.1" stop-color="#88C03D"/>
<stop offset="0.22" stop-color="#7EB238"/>
<stop offset="0.35" stop-color="#6C9930"/>
<stop offset="0.49" stop-color="#547726"/>
<stop offset="0.64" stop-color="#354C18"/>
<stop offset="0.78" stop-color="#101707"/>
<stop offset="0.84"/>
</linearGradient>
</defs>
</svg>
