<svg width="215" height="288" viewBox="0 0 215 288" fill="none" xmlns="http://www.w3.org/2000/svg">
<path d="M73.8896 286.078C93.4873 234.943 102.536 182.573 100.784 130.417C100.365 117.918 99.3071 105.279 97.6432 92.8465L99.8497 92.5495C101.521 105.059 102.584 117.77 103.009 130.342C104.775 182.796 95.6773 235.465 75.9712 286.879L73.8921 286.083L73.8896 286.078Z" fill="url(#paint0_linear_228_166)"/>
<path d="M154.325 221.334C159.001 221.063 167.237 220.497 176.607 215.879C190.55 209.007 199.152 197.03 202.426 186.376C205.104 177.665 203.041 173.679 202.405 172.591C200.063 168.571 195.509 166.748 195.239 166.647C193.095 165.821 191.176 165.674 189.936 165.676C190.362 164.382 190.621 162.736 189.958 161.224C187.772 156.265 177.525 157.06 176.709 157.136C167.451 157.949 161.064 164.511 156.791 169.026C144.799 181.699 148.814 188.354 138.695 194.797C135.204 197.021 130.215 199.104 125.122 205.006C122.404 208.156 120.858 209.947 121.151 212.007C122.066 218.45 140.124 222.162 154.325 221.334V221.334Z" fill="url(#paint1_linear_228_166)"/>
<path d="M167.639 267.903C170.142 266.046 173.697 269.653 177.553 268.042C180.323 266.887 181.801 263.64 182.137 261.293C183.037 254.988 176.44 249.775 175.259 248.843C169.296 244.132 165.179 246.067 160.652 241.236C158.582 239.026 158.674 237.8 156.237 232.307C153.516 226.165 150.23 218.756 145.956 214.957C144.132 213.333 137.381 208.147 121.141 212.012C121.328 214.026 121.784 217.163 123.068 220.756C125.956 228.81 130.082 230.943 133.355 236.993C138.283 246.112 133.221 249.236 137.201 257.823C143.404 271.207 162.044 277.27 165.638 273.634C167.121 272.137 165.666 269.366 167.634 267.905L167.639 267.903Z" fill="url(#paint2_linear_228_166)"/>
<path d="M121.46 211.545C119.09 216.977 142.876 235.934 167.161 238.929C172.513 239.589 181.726 239.945 189.269 234.796C192.101 232.861 195.394 229.676 194.688 227.613C193.839 225.128 187.676 225.739 186.7 222.521C186.266 221.093 187.278 220.308 186.715 219.02C185.7 216.689 181.217 216.526 179.922 216.494C169.438 216.224 165.88 223.921 158.477 223.124C152.662 222.498 152.737 217.521 144.647 213.254C135.582 208.475 122.957 208.114 121.46 211.545Z" fill="url(#paint3_linear_228_166)"/>
<path d="M134.51 216.488C138.854 220.794 149.504 217.045 155.822 212.508C160.855 208.894 165.59 203.01 164.377 201.078C163.831 200.206 162.197 200.327 162.01 200.34C159.101 200.555 157.569 203.904 156.051 205.787C149.828 213.513 134.231 208.453 132.947 212.862C132.473 214.479 134.255 216.243 134.513 216.493L134.51 216.488Z" fill="url(#paint4_linear_228_166)"/>
<path d="M73.8189 286.469L74.1921 183.936L76.4173 183.948L76.0983 271.166C77.889 259.921 79.9115 248.727 82.1413 237.734C85.5494 220.913 87.6399 213.571 94.6833 208.593C103.149 202.616 114.08 203.782 121.765 205.815L121.194 207.969C113.97 206.058 103.731 204.929 95.9627 210.41C89.5695 214.923 87.5997 221.974 84.316 238.177C81.0982 254.053 78.3077 270.356 76.0248 286.628L73.8114 286.467L73.8189 286.469Z" fill="url(#paint5_linear_228_166)"/>
<path d="M73.205 28.9493C73.1541 15.9332 70.889 0.149265 69.2415 0.195237C66.5536 0.267491 66.9998 42.2551 63.0107 42.4666C60.144 42.6167 57.4147 21.0609 54.979 21.3239C53.7674 21.4554 52.7595 26.954 53.4838 32.4013C54.7164 41.6336 59.9548 43.2174 62.7226 52.9096C65.2984 61.9377 63.0811 68.7081 64.5084 68.9667C66.0677 69.2521 68.9119 61.2047 70.2679 56.2103C71.8714 50.2987 72.3088 45.2752 72.7311 40.222C73.2126 34.4341 73.207 30.0273 73.205 28.9493V28.9493Z" fill="url(#paint6_linear_228_166)"/>
<path d="M119.473 65.1344C125.451 53.5773 134.659 40.564 136.109 41.3603C138.469 42.6512 118.928 79.8109 122.379 81.8172C124.859 83.2595 137.113 65.3277 139.165 66.6744C140.183 67.3453 138.577 72.6968 135.444 77.2099C130.137 84.8606 124.754 83.8798 117.872 91.2402C111.461 98.1008 110.348 105.131 108.96 104.715C107.444 104.258 108.577 95.7961 109.649 90.733C110.919 84.7405 112.814 80.0727 114.746 75.3798C116.959 70.0087 118.969 66.0874 119.465 65.132L119.473 65.1344Z" fill="url(#paint7_linear_228_166)"/>
<path d="M172.928 118.161C172.24 120.909 170.804 122.844 169.298 124.615C162.513 132.6 154.301 137.202 152.675 138.142C136.745 147.351 126.974 166.817 129.747 170.088C131.128 171.711 135.884 169.659 142.766 166.696C150.113 163.529 159.885 159.312 168.916 149.245C175.294 142.133 183.188 133.332 181.958 122.327C180.767 111.72 171.697 104.412 170.81 104.941C170.083 105.377 174.664 111.215 172.925 118.156L172.928 118.161Z" fill="url(#paint8_linear_228_166)"/>
<path d="M151.217 152.331C157.242 149.769 158.429 150.698 165.034 147.557C176.28 142.209 182.08 135.139 183.586 136.368C184.67 137.256 182.607 141.653 181.248 144.06C169.449 164.943 132.004 174.606 129.747 170.088C128.342 167.28 139.693 157.226 151.217 152.331V152.331Z" fill="url(#paint9_linear_228_166)"/>
<path d="M159.292 124.466C154.033 124.657 150.164 127.945 146.979 130.726C142.111 134.974 139.433 139.251 138.921 140.077C132.717 150.152 129.15 165.138 133.189 167.496C135.974 169.121 141.799 164.658 144.805 161.338C148.274 157.503 149.704 153.051 152.557 144.145C155.116 136.161 155.226 133.242 158.539 130.347C161.374 127.874 164.723 127.025 164.484 125.823C164.278 124.786 161.402 124.386 159.297 124.463L159.292 124.466Z" fill="url(#paint10_linear_228_166)"/>
<path d="M144.362 69.2143C144.366 72.0501 143.452 74.2769 142.423 76.3621C137.794 85.7656 130.964 92.2394 129.617 93.5491C116.426 106.378 111.717 127.648 115.207 130.139C116.942 131.378 121.053 128.223 126.998 123.662C133.348 118.791 141.791 112.314 148.084 100.342C152.53 91.8852 158.03 81.4179 154.142 71.0502C150.392 61.0555 139.811 56.1876 139.085 56.9223C138.49 57.522 144.36 62.0614 144.367 69.2243L144.362 69.2143Z" fill="url(#paint11_linear_228_166)"/>
<path d="M131.674 107.661C136.89 103.705 138.266 104.307 143.9 99.648C153.495 91.7099 157.383 83.4345 159.151 84.257C160.423 84.8498 159.492 89.6236 158.766 92.2853C152.434 115.429 118.501 133.959 115.204 130.135C113.154 127.752 121.699 115.229 131.674 107.661Z" fill="url(#paint12_linear_228_166)"/>
<path d="M132.688 78.664C127.636 80.1418 124.691 84.2733 122.281 87.748C118.604 93.0598 117.051 97.8608 116.758 98.788C113.206 110.075 113.416 125.48 117.906 126.781C121.001 127.675 125.557 121.92 127.662 117.963C130.087 113.395 130.379 108.726 130.971 99.3899C131.496 91.0225 130.89 88.1665 133.396 84.5496C135.544 81.4568 138.579 79.8123 138.052 78.7063C137.6 77.7494 134.711 78.0664 132.685 78.6591L132.688 78.664Z" fill="url(#paint13_linear_228_166)"/>
<path d="M63.3617 44.8904C62.2049 47.4765 62.1377 49.8868 62.2269 52.2119C62.6332 62.6847 66.2457 71.3828 66.9398 73.128C73.7726 90.2169 69.4348 111.568 65.2343 112.422C63.1478 112.846 60.6724 108.289 57.096 101.699C53.2764 94.6652 48.1977 85.3103 47.3159 71.8093C46.6919 62.276 45.9191 50.4726 53.6923 42.5811C61.1804 34.9769 72.821 34.8439 73.1909 35.8111C73.4903 36.6017 66.2843 38.3564 63.3642 44.8953L63.3617 44.8904Z" fill="url(#paint14_linear_228_166)"/>
<path d="M59.3231 85.1818C56.1683 79.4397 54.6649 79.4379 51.4098 72.8796C45.8707 61.7239 45.6838 52.5748 43.7301 52.607C42.3338 52.6321 41.2357 57.3717 40.8163 60.097C37.1926 83.8127 60.6633 114.568 65.2243 112.415C68.0638 111.075 65.3492 96.1539 59.3156 85.1793L59.3231 85.1818Z" fill="url(#paint15_linear_228_166)"/>
<path d="M70.1843 58.2796C74.1981 61.6856 75.2092 66.6638 75.9978 70.8187C77.1987 77.1729 76.6642 82.1892 76.5537 83.1557C75.2081 94.9122 68.7542 108.899 64.127 108.254C60.9342 107.807 59.108 100.696 58.7984 96.2306C58.4362 91.0683 60.0685 86.6828 63.3255 77.9217C66.2477 70.0657 67.9654 67.7016 67.1412 63.3775C66.439 59.6779 64.3345 56.942 65.2597 56.1444C66.0633 55.4517 68.5708 56.9238 70.1818 58.2871L70.1843 58.2796Z" fill="url(#paint16_linear_228_166)"/>
<path d="M73.8297 286.651C72.6344 279.246 63.3539 213.402 104.924 181.399C112.052 175.91 120.299 171.746 129.43 169.026L130.066 171.162C121.196 173.807 113.197 177.845 106.285 183.169C89.2045 196.321 78.8424 216.865 75.4875 244.237C72.9177 265.176 75.4921 282.955 76.031 286.307L73.8347 286.661L73.8297 286.651Z" fill="url(#paint17_linear_228_166)"/>
<path d="M65.7488 115.268C61.0188 116.877 51.0566 103.245 53.0646 100.666C53.8718 99.6349 57.1401 99.6999 59.0872 101.074C60.1157 101.803 60.6524 102.804 61.8 102.842C62.7186 102.871 63.4031 102.263 63.9537 101.786C67.3839 98.8376 69.2366 97.2473 70.2808 97.5621C71.7313 98.0023 71.6412 102.133 71.6178 103.112C71.4987 108.667 68.4998 112.395 67.4769 113.629C66.667 114.605 66.2633 115.09 65.7488 115.268V115.268Z" fill="url(#paint18_linear_228_166)"/>
<path d="M75.5653 197.694C66.4835 198.45 54.8695 169.891 59.5736 166.219C61.4617 164.748 67.2202 166.312 70.0588 169.613C71.5569 171.358 72.0605 173.368 74.0839 173.943C75.6987 174.4 77.179 173.627 78.3688 173.033C85.746 169.333 89.7351 167.331 91.4418 168.353C93.8097 169.771 91.8235 177.048 91.3477 178.773C88.6748 188.555 81.7147 193.822 79.3498 195.559C77.4862 196.93 76.5581 197.611 75.5578 197.692L75.5653 197.694Z" fill="url(#paint19_linear_228_166)"/>
<path d="M107.465 205.682C108.789 196.662 139.228 191.853 141.739 197.271C142.744 199.446 139.915 204.697 136.058 206.713C134.021 207.779 131.948 207.809 130.93 209.645C130.12 211.115 130.537 212.732 130.849 214.027C132.776 222.055 133.817 226.4 132.436 227.827C130.52 229.811 123.885 226.213 122.311 225.368C113.395 220.538 109.845 212.557 108.689 209.86C107.78 207.737 107.327 206.668 107.472 205.684L107.465 205.682Z" fill="url(#paint20_linear_228_166)"/>
<path d="M127.293 174.24C123.489 171.003 130.093 155.462 133.336 155.871C134.64 156.035 136.255 158.875 136.073 161.256C135.976 162.508 135.39 163.484 135.947 164.488C136.396 165.29 137.266 165.568 137.956 165.8C142.243 167.24 144.561 168.016 144.827 169.073C145.194 170.541 141.598 172.581 140.744 173.062C135.911 175.801 131.177 175.129 129.588 174.884C128.335 174.687 127.712 174.589 127.295 174.233L127.293 174.24Z" fill="url(#paint21_linear_228_166)"/>
<path d="M74.1207 88.9059C73.2311 75.9203 74.3531 60.0168 76.0055 59.9434C78.6931 59.8213 81.272 101.736 85.2616 101.662C88.1288 101.611 89.3041 79.9113 91.7512 80.0042C92.971 80.0495 94.3746 85.4594 94.0387 90.943C93.4696 100.237 88.3651 102.19 86.3024 112.057C84.3837 121.247 87.084 127.842 85.6767 128.203C84.1426 128.597 80.7229 120.775 79.0104 115.889C76.983 110.108 76.1835 105.129 75.4037 100.115C74.5065 94.3744 74.1948 89.9787 74.1182 88.901L74.1207 88.9059Z" fill="url(#paint22_linear_228_166)"/>
<path d="M116.68 27.5747C114.817 29.7128 114.05 31.9963 113.457 34.2417C110.788 44.3774 111.697 53.7478 111.857 55.6195C113.406 73.9605 103.013 93.1104 98.7451 92.6956C96.6212 92.4893 95.5898 87.4092 94.0936 80.0626C92.4958 72.2184 90.3722 61.7894 93.4667 48.6197C95.6537 39.3199 98.3643 27.8097 108.1 22.5326C117.48 17.4535 128.659 20.7281 128.728 21.7537C128.786 22.5975 121.377 22.1719 116.678 27.5697L116.68 27.5747Z" fill="url(#paint23_linear_228_166)"/>
<path d="M101.05 64.924C99.7099 58.5154 98.2744 58.0676 97.075 50.8519C95.0358 38.5652 97.5236 29.7622 95.6546 29.2215C94.3064 28.8356 91.8745 33.0448 90.6825 35.5365C80.29 57.1561 93.7576 93.4236 98.7476 92.7004C101.855 92.2482 103.615 77.1887 101.053 64.9289L101.05 64.924Z" fill="url(#paint24_linear_228_166)"/>
<path d="M119.297 42.3763C122.145 46.8074 121.656 51.8633 121.195 56.0627C120.487 62.4888 118.515 67.1271 118.125 68.0223C113.406 78.8752 103.151 90.3587 98.9117 88.3951C95.989 87.0392 96.3198 79.7057 97.3248 75.3374C98.4889 70.2964 101.326 66.5811 107 59.1506C112.086 52.4915 114.42 50.7325 114.898 46.3563C115.308 42.6127 114.093 39.3781 115.211 38.8885C116.18 38.4616 118.15 40.5979 119.29 42.3738L119.297 42.3763Z" fill="url(#paint25_linear_228_166)"/>
<path d="M67.9117 143.172C68.7515 138.563 70.3187 130.456 76.0424 121.716C84.5637 108.712 97.4975 101.633 108.469 99.6802C117.437 98.0833 121.144 100.621 122.148 101.387C125.85 104.202 127.105 108.945 127.17 109.223C127.727 111.45 127.638 113.372 127.484 114.61C128.817 114.349 130.482 114.288 131.906 115.134C136.56 117.905 134.523 127.984 134.349 128.788C132.413 137.881 125.118 143.422 120.123 147.111C106.09 157.471 99.972 152.676 92.3388 161.931C89.7061 165.125 87.0298 169.826 80.5537 174.162C77.101 176.473 75.1351 177.79 73.1217 177.247C66.8375 175.555 65.3557 157.174 67.9117 143.172V143.172Z" fill="url(#paint26_linear_228_166)"/>
<path d="M23.3279 124.275C25.4766 122.011 22.3266 118.044 24.3975 114.416C25.8803 111.809 29.2833 110.733 31.6552 110.689C38.0216 110.569 42.3894 117.75 43.1688 119.034C47.1156 125.53 44.6947 129.379 48.9369 134.459C50.878 136.785 52.1028 136.84 57.2578 139.926C63.0216 143.377 69.9681 147.542 73.2182 152.25C74.6053 154.257 78.9315 161.59 73.1191 177.242C71.1436 176.811 68.0861 175.979 64.6766 174.264C57.0344 170.413 55.4211 166.057 49.8194 162.074C41.3744 156.066 37.6549 160.713 29.6223 155.719C17.0979 147.928 13.3526 128.681 17.3994 125.559C19.0692 124.273 21.6377 126.051 23.3279 124.275V124.275Z" fill="url(#paint27_linear_228_166)"/>
<path d="M73.6185 176.996C67.938 178.686 52.0288 152.757 52.0155 128.283C52.0157 122.888 52.782 113.701 58.8146 106.844C61.0815 104.271 64.6439 101.387 66.6017 102.338C68.9585 103.487 67.6069 109.527 70.6765 110.89C72.0429 111.498 72.9427 110.588 74.1553 111.298C76.3459 112.587 75.9561 117.063 75.832 118.348C74.8195 128.788 66.7507 131.378 66.6345 138.828C66.5465 144.679 71.4968 145.211 74.7428 153.763C78.3787 163.347 77.1983 175.925 73.611 176.994L73.6185 176.996Z" fill="url(#paint28_linear_228_166)"/>
<path d="M70.3046 163.432C66.5662 158.596 71.5823 148.479 76.8555 142.761C81.0582 138.206 87.4734 134.219 89.2416 135.659C90.0382 136.311 89.7213 137.918 89.6822 138.1C89.114 140.962 85.6041 142.073 83.5559 143.351C75.1346 148.588 78.2497 164.685 73.7178 165.426C72.0587 165.697 70.5223 163.715 70.3021 163.427L70.3046 163.432Z" fill="url(#paint29_linear_228_166)"/>
<path d="M100.222 99.0538C95.2974 99.8813 87.6541 84.8171 90.0568 82.5997C91.0214 81.7073 94.2371 82.2978 95.9365 83.9721C96.8312 84.8551 97.2016 85.9342 98.3275 86.1516C99.2267 86.3275 100.001 85.8367 100.627 85.4584C104.488 83.1037 106.573 81.8261 107.551 82.3055C108.91 82.9727 108.155 87.0337 107.975 87.9979C106.962 93.4617 103.406 96.6543 102.193 97.7095C101.241 98.5396 100.76 98.9572 100.22 99.0488L100.222 99.0538Z" fill="url(#paint30_linear_228_166)"/>
<defs>
<linearGradient id="paint0_linear_228_166" x1="126.704" y1="105.224" x2="47.275" y2="273.512" gradientUnits="userSpaceOnUse">
<stop stop-color="#8CC63F"/>
<stop offset="0.1" stop-color="#88C03D"/>
<stop offset="0.22" stop-color="#7EB238"/>
<stop offset="0.35" stop-color="#6C9930"/>
<stop offset="0.49" stop-color="#547726"/>
<stop offset="0.64" stop-color="#354C18"/>
<stop offset="0.78" stop-color="#101707"/>
<stop offset="0.84"/>
</linearGradient>
<linearGradient id="paint1_linear_228_166" x1="219.226" y1="157.829" x2="128.723" y2="215.952" gradientUnits="userSpaceOnUse">
<stop stop-color="#9827B1"/>
<stop offset="0.11" stop-color="#9325AB"/>
<stop offset="0.24" stop-color="#87229D"/>
<stop offset="0.38" stop-color="#721D84"/>
<stop offset="0.52" stop-color="#551563"/>
<stop offset="0.68" stop-color="#2F0C37"/>
<stop offset="0.83" stop-color="#020002"/>
<stop offset="0.84"/>
</linearGradient>
<linearGradient id="paint2_linear_228_166" x1="172.771" y1="225.045" x2="134.155" y2="249.845" gradientUnits="userSpaceOnUse">
<stop stop-color="#9827B1"/>
<stop offset="0.11" stop-color="#9325AB"/>
<stop offset="0.24" stop-color="#87229D"/>
<stop offset="0.38" stop-color="#721D84"/>
<stop offset="0.52" stop-color="#551563"/>
<stop offset="0.68" stop-color="#2F0C37"/>
<stop offset="0.83" stop-color="#020002"/>
<stop offset="0.84"/>
</linearGradient>
<linearGradient id="paint3_linear_228_166" x1="192.341" y1="199.212" x2="137.807" y2="234.239" gradientUnits="userSpaceOnUse">
<stop stop-color="#9827B1"/>
<stop offset="0.11" stop-color="#9325AB"/>
<stop offset="0.24" stop-color="#87229D"/>
<stop offset="0.38" stop-color="#721D84"/>
<stop offset="0.52" stop-color="#551563"/>
<stop offset="0.68" stop-color="#2F0C37"/>
<stop offset="0.83" stop-color="#020002"/>
<stop offset="0.84"/>
</linearGradient>
<linearGradient id="paint4_linear_228_166" x1="170.652" y1="195.562" x2="136.832" y2="217.278" gradientUnits="userSpaceOnUse">
<stop stop-color="#FFFF15"/>
<stop offset="0.09" stop-color="#F9F914"/>
<stop offset="0.19" stop-color="#EBEB13"/>
<stop offset="0.3" stop-color="#D2D211"/>
<stop offset="0.42" stop-color="#B0B00E"/>
<stop offset="0.55" stop-color="#85850A"/>
<stop offset="0.68" stop-color="#4F4F06"/>
<stop offset="0.81" stop-color="#111101"/>
<stop offset="0.84"/>
</linearGradient>
<linearGradient id="paint5_linear_228_166" x1="98.4505" y1="194.347" x2="58.4027" y2="279.196" gradientUnits="userSpaceOnUse">
<stop stop-color="#8CC63F"/>
<stop offset="0.1" stop-color="#88C03D"/>
<stop offset="0.22" stop-color="#7EB238"/>
<stop offset="0.35" stop-color="#6C9930"/>
<stop offset="0.49" stop-color="#547726"/>
<stop offset="0.64" stop-color="#354C18"/>
<stop offset="0.78" stop-color="#101707"/>
<stop offset="0.84"/>
</linearGradient>
<linearGradient id="paint6_linear_228_166" x1="57.6938" y1="-5.49934" x2="71.1764" y2="66.1718" gradientUnits="userSpaceOnUse">
<stop stop-color="#8CC63F"/>
<stop offset="0.1" stop-color="#88C03D"/>
<stop offset="0.22" stop-color="#7EB238"/>
<stop offset="0.35" stop-color="#6C9930"/>
<stop offset="0.49" stop-color="#547726"/>
<stop offset="0.64" stop-color="#354C18"/>
<stop offset="0.78" stop-color="#101707"/>
<stop offset="0.84"/>
</linearGradient>
<linearGradient id="paint7_linear_228_166" x1="148.972" y1="41.5735" x2="104.265" y2="99.1546" gradientUnits="userSpaceOnUse">
<stop stop-color="#8CC63F"/>
<stop offset="0.1" stop-color="#88C03D"/>
<stop offset="0.22" stop-color="#7EB238"/>
<stop offset="0.35" stop-color="#6C9930"/>
<stop offset="0.49" stop-color="#547726"/>
<stop offset="0.64" stop-color="#354C18"/>
<stop offset="0.78" stop-color="#101707"/>
<stop offset="0.84"/>
</linearGradient>
<linearGradient id="paint8_linear_228_166" x1="198.067" y1="110.252" x2="125.589" y2="156.791" gradientUnits="userSpaceOnUse">
<stop stop-color="#9827B1"/>
<stop offset="0.11" stop-color="#9325AB"/>
<stop offset="0.24" stop-color="#87229D"/>
<stop offset="0.38" stop-color="#721D84"/>
<stop offset="0.52" stop-color="#551563"/>
<stop offset="0.68" stop-color="#2F0C37"/>
<stop offset="0.83" stop-color="#020002"/>
<stop offset="0.84"/>
</linearGradient>
<linearGradient id="paint9_linear_228_166" x1="198.098" y1="129.983" x2="134.208" y2="171.009" gradientUnits="userSpaceOnUse">
<stop stop-color="#9827B1"/>
<stop offset="0.11" stop-color="#9325AB"/>
<stop offset="0.24" stop-color="#87229D"/>
<stop offset="0.38" stop-color="#721D84"/>
<stop offset="0.52" stop-color="#551563"/>
<stop offset="0.68" stop-color="#2F0C37"/>
<stop offset="0.83" stop-color="#020002"/>
<stop offset="0.84"/>
</linearGradient>
<linearGradient id="paint10_linear_228_166" x1="178.558" y1="125.298" x2="129.146" y2="157.032" gradientUnits="userSpaceOnUse">
<stop stop-color="#9827B1"/>
<stop offset="0.11" stop-color="#9325AB"/>
<stop offset="0.24" stop-color="#87229D"/>
<stop offset="0.38" stop-color="#721D84"/>
<stop offset="0.52" stop-color="#551563"/>
<stop offset="0.68" stop-color="#2F0C37"/>
<stop offset="0.83" stop-color="#020002"/>
<stop offset="0.84"/>
</linearGradient>
<linearGradient id="paint11_linear_228_166" x1="166.806" y1="55.3835" x2="107.917" y2="118.246" gradientUnits="userSpaceOnUse">
<stop stop-color="#9827B1"/>
<stop offset="0.11" stop-color="#9325AB"/>
<stop offset="0.24" stop-color="#87229D"/>
<stop offset="0.38" stop-color="#721D84"/>
<stop offset="0.52" stop-color="#551563"/>
<stop offset="0.68" stop-color="#2F0C37"/>
<stop offset="0.83" stop-color="#020002"/>
<stop offset="0.84"/>
</linearGradient>
<linearGradient id="paint12_linear_228_166" x1="171.665" y1="74.5084" x2="119.754" y2="129.924" gradientUnits="userSpaceOnUse">
<stop stop-color="#9827B1"/>
<stop offset="0.11" stop-color="#9325AB"/>
<stop offset="0.24" stop-color="#87229D"/>
<stop offset="0.38" stop-color="#721D84"/>
<stop offset="0.52" stop-color="#551563"/>
<stop offset="0.68" stop-color="#2F0C37"/>
<stop offset="0.83" stop-color="#020002"/>
<stop offset="0.84"/>
</linearGradient>
<linearGradient id="paint13_linear_228_166" x1="151.575" y1="74.7502" x2="111.428" y2="117.613" gradientUnits="userSpaceOnUse">
<stop stop-color="#9827B1"/>
<stop offset="0.11" stop-color="#9325AB"/>
<stop offset="0.24" stop-color="#87229D"/>
<stop offset="0.38" stop-color="#721D84"/>
<stop offset="0.52" stop-color="#551563"/>
<stop offset="0.68" stop-color="#2F0C37"/>
<stop offset="0.83" stop-color="#020002"/>
<stop offset="0.84"/>
</linearGradient>
<linearGradient id="paint14_linear_228_166" x1="48.4798" y1="23.1158" x2="76.6872" y2="104.542" gradientUnits="userSpaceOnUse">
<stop stop-color="#9827B1"/>
<stop offset="0.11" stop-color="#9325AB"/>
<stop offset="0.24" stop-color="#87229D"/>
<stop offset="0.38" stop-color="#721D84"/>
<stop offset="0.52" stop-color="#551563"/>
<stop offset="0.68" stop-color="#2F0C37"/>
<stop offset="0.83" stop-color="#020002"/>
<stop offset="0.84"/>
</linearGradient>
<linearGradient id="paint15_linear_228_166" x1="36.2679" y1="38.6062" x2="61.1328" y2="110.385" gradientUnits="userSpaceOnUse">
<stop stop-color="#9827B1"/>
<stop offset="0.11" stop-color="#9325AB"/>
<stop offset="0.24" stop-color="#87229D"/>
<stop offset="0.38" stop-color="#721D84"/>
<stop offset="0.52" stop-color="#551563"/>
<stop offset="0.68" stop-color="#2F0C37"/>
<stop offset="0.83" stop-color="#020002"/>
<stop offset="0.84"/>
</linearGradient>
<linearGradient id="paint16_linear_228_166" x1="54.5218" y1="47.0118" x2="73.7486" y2="102.528" gradientUnits="userSpaceOnUse">
<stop stop-color="#9827B1"/>
<stop offset="0.11" stop-color="#9325AB"/>
<stop offset="0.24" stop-color="#87229D"/>
<stop offset="0.38" stop-color="#721D84"/>
<stop offset="0.52" stop-color="#551563"/>
<stop offset="0.68" stop-color="#2F0C37"/>
<stop offset="0.83" stop-color="#020002"/>
<stop offset="0.84"/>
</linearGradient>
<linearGradient id="paint17_linear_228_166" x1="118.908" y1="164.053" x2="63.3736" y2="281.717" gradientUnits="userSpaceOnUse">
<stop stop-color="#8CC63F"/>
<stop offset="0.1" stop-color="#88C03D"/>
<stop offset="0.22" stop-color="#7EB238"/>
<stop offset="0.35" stop-color="#6C9930"/>
<stop offset="0.49" stop-color="#547726"/>
<stop offset="0.64" stop-color="#354C18"/>
<stop offset="0.78" stop-color="#101707"/>
<stop offset="0.84"/>
</linearGradient>
<linearGradient id="paint18_linear_228_166" x1="63.9548" y1="94.1047" x2="59.9973" y2="114.047" gradientUnits="userSpaceOnUse">
<stop stop-color="#8CC63F"/>
<stop offset="0.1" stop-color="#88C03D"/>
<stop offset="0.22" stop-color="#7EB238"/>
<stop offset="0.35" stop-color="#6C9930"/>
<stop offset="0.49" stop-color="#547726"/>
<stop offset="0.64" stop-color="#354C18"/>
<stop offset="0.78" stop-color="#101707"/>
<stop offset="0.84"/>
</linearGradient>
<linearGradient id="paint19_linear_228_166" x1="81.7428" y1="159.416" x2="65.903" y2="192.977" gradientUnits="userSpaceOnUse">
<stop stop-color="#8CC63F"/>
<stop offset="0.1" stop-color="#88C03D"/>
<stop offset="0.22" stop-color="#7EB238"/>
<stop offset="0.35" stop-color="#6C9930"/>
<stop offset="0.49" stop-color="#547726"/>
<stop offset="0.64" stop-color="#354C18"/>
<stop offset="0.78" stop-color="#101707"/>
<stop offset="0.84"/>
</linearGradient>
<linearGradient id="paint20_linear_228_166" x1="143.33" y1="220.404" x2="114.233" y2="197.357" gradientUnits="userSpaceOnUse">
<stop stop-color="#8CC63F"/>
<stop offset="0.1" stop-color="#88C03D"/>
<stop offset="0.22" stop-color="#7EB238"/>
<stop offset="0.35" stop-color="#6C9930"/>
<stop offset="0.49" stop-color="#547726"/>
<stop offset="0.64" stop-color="#354C18"/>
<stop offset="0.78" stop-color="#101707"/>
<stop offset="0.84"/>
</linearGradient>
<linearGradient id="paint21_linear_228_166" x1="144.545" y1="161.862" x2="125.395" y2="168.675" gradientUnits="userSpaceOnUse">
<stop stop-color="#8CC63F"/>
<stop offset="0.1" stop-color="#88C03D"/>
<stop offset="0.22" stop-color="#7EB238"/>
<stop offset="0.35" stop-color="#6C9930"/>
<stop offset="0.49" stop-color="#547726"/>
<stop offset="0.64" stop-color="#354C18"/>
<stop offset="0.78" stop-color="#101707"/>
<stop offset="0.84"/>
</linearGradient>
<linearGradient id="paint22_linear_228_166" x1="87.1091" y1="53.4376" x2="78.7683" y2="125.884" gradientUnits="userSpaceOnUse">
<stop stop-color="#8CC63F"/>
<stop offset="0.1" stop-color="#88C03D"/>
<stop offset="0.22" stop-color="#7EB238"/>
<stop offset="0.35" stop-color="#6C9930"/>
<stop offset="0.49" stop-color="#547726"/>
<stop offset="0.64" stop-color="#354C18"/>
<stop offset="0.78" stop-color="#101707"/>
<stop offset="0.84"/>
</linearGradient>
<linearGradient id="paint23_linear_228_166" x1="108.81" y1="2.41072" x2="111.993" y2="88.5248" gradientUnits="userSpaceOnUse">
<stop stop-color="#9827B1"/>
<stop offset="0.11" stop-color="#9325AB"/>
<stop offset="0.24" stop-color="#87229D"/>
<stop offset="0.38" stop-color="#721D84"/>
<stop offset="0.52" stop-color="#551563"/>
<stop offset="0.68" stop-color="#2F0C37"/>
<stop offset="0.83" stop-color="#020002"/>
<stop offset="0.84"/>
</linearGradient>
<linearGradient id="paint24_linear_228_166" x1="92.602" y1="13.663" x2="95.4118" y2="89.5688" gradientUnits="userSpaceOnUse">
<stop stop-color="#9827B1"/>
<stop offset="0.11" stop-color="#9325AB"/>
<stop offset="0.24" stop-color="#87229D"/>
<stop offset="0.38" stop-color="#721D84"/>
<stop offset="0.52" stop-color="#551563"/>
<stop offset="0.68" stop-color="#2F0C37"/>
<stop offset="0.83" stop-color="#020002"/>
<stop offset="0.84"/>
</linearGradient>
<linearGradient id="paint25_linear_228_166" x1="107.607" y1="27.0281" x2="109.776" y2="85.7353" gradientUnits="userSpaceOnUse">
<stop stop-color="#9827B1"/>
<stop offset="0.11" stop-color="#9325AB"/>
<stop offset="0.24" stop-color="#87229D"/>
<stop offset="0.38" stop-color="#721D84"/>
<stop offset="0.52" stop-color="#551563"/>
<stop offset="0.68" stop-color="#2F0C37"/>
<stop offset="0.83" stop-color="#020002"/>
<stop offset="0.84"/>
</linearGradient>
<linearGradient id="paint26_linear_228_166" x1="138.853" y1="86.4786" x2="70.1081" y2="169.213" gradientUnits="userSpaceOnUse">
<stop stop-color="#9827B1"/>
<stop offset="0.11" stop-color="#9325AB"/>
<stop offset="0.24" stop-color="#87229D"/>
<stop offset="0.38" stop-color="#721D84"/>
<stop offset="0.52" stop-color="#551563"/>
<stop offset="0.68" stop-color="#2F0C37"/>
<stop offset="0.83" stop-color="#020002"/>
<stop offset="0.84"/>
</linearGradient>
<linearGradient id="paint27_linear_228_166" x1="66.4955" y1="124.403" x2="37.1582" y2="159.706" gradientUnits="userSpaceOnUse">
<stop stop-color="#9827B1"/>
<stop offset="0.11" stop-color="#9325AB"/>
<stop offset="0.24" stop-color="#87229D"/>
<stop offset="0.38" stop-color="#721D84"/>
<stop offset="0.52" stop-color="#551563"/>
<stop offset="0.68" stop-color="#2F0C37"/>
<stop offset="0.83" stop-color="#020002"/>
<stop offset="0.84"/>
</linearGradient>
<linearGradient id="paint28_linear_228_166" x1="94.5074" y1="108.12" x2="53.0858" y2="157.97" gradientUnits="userSpaceOnUse">
<stop stop-color="#9827B1"/>
<stop offset="0.11" stop-color="#9325AB"/>
<stop offset="0.24" stop-color="#87229D"/>
<stop offset="0.38" stop-color="#721D84"/>
<stop offset="0.52" stop-color="#551563"/>
<stop offset="0.68" stop-color="#2F0C37"/>
<stop offset="0.83" stop-color="#020002"/>
<stop offset="0.84"/>
</linearGradient>
<linearGradient id="paint29_linear_228_166" x1="95.4936" y1="130.101" x2="69.8061" y2="161.013" gradientUnits="userSpaceOnUse">
<stop stop-color="#FFFF15"/>
<stop offset="0.09" stop-color="#F9F914"/>
<stop offset="0.19" stop-color="#EBEB13"/>
<stop offset="0.3" stop-color="#D2D211"/>
<stop offset="0.42" stop-color="#B0B00E"/>
<stop offset="0.55" stop-color="#85850A"/>
<stop offset="0.68" stop-color="#4F4F06"/>
<stop offset="0.81" stop-color="#111101"/>
<stop offset="0.84"/>
</linearGradient>
<linearGradient id="paint30_linear_228_166" x1="101.86" y1="77.8791" x2="94.7451" y2="96.9265" gradientUnits="userSpaceOnUse">
<stop stop-color="#8CC63F"/>
<stop offset="0.1" stop-color="#88C03D"/>
<stop offset="0.22" stop-color="#7EB238"/>
<stop offset="0.35" stop-color="#6C9930"/>
<stop offset="0.49" stop-color="#547726"/>
<stop offset="0.64" stop-color="#354C18"/>
<stop offset="0.78" stop-color="#101707"/>
<stop offset="0.84"/>
</linearGradient>
</defs>
</svg>
