<svg width="470" height="567" viewBox="0 0 470 567" fill="none" xmlns="http://www.w3.org/2000/svg">
<g clip-path="url(#clip0_161_506)">
<path d="M485.505 530.613C451.371 427.276 399.462 335.306 331.211 257.251C314.854 238.545 297.342 220.426 279.156 203.387L282.177 200.154C300.471 217.302 318.082 235.526 334.537 254.337C403.184 332.834 455.395 425.325 489.713 529.228L485.515 530.617L485.505 530.613Z" fill="url(#paint0_linear_161_506)"/>
<path d="M527.827 329.818C534.677 323.52 546.631 312.29 555.236 293.399C568.041 265.288 566.216 236.038 557.86 215.526C551.028 198.753 542.847 195.213 540.499 194.339C531.847 191.099 522.551 194.022 522.009 194.205C517.674 195.63 514.537 197.818 512.633 199.381C511.661 196.855 509.99 193.994 507.07 192.503C497.477 187.621 482.718 201.732 481.557 202.874C468.342 215.771 466.767 233.901 465.871 246.222C463.357 280.807 477.896 285.998 470.434 308.641C467.861 316.453 462.806 325.933 462.392 341.421C462.172 349.685 462.045 354.386 465.084 357.189C474.589 365.951 507.027 348.952 527.827 329.818Z" fill="url(#paint1_linear_161_506)"/>
<path d="M606.834 384.734C608.351 378.728 618.35 379.808 622.256 372.48C625.065 367.217 623.256 360.362 620.824 356.328C614.283 345.494 597.583 345.768 594.596 345.82C579.504 346.071 575.606 354.225 562.571 352.487C556.61 351.688 555.211 349.687 544.559 344.298C532.654 338.269 518.288 330.999 506.94 330.531C502.094 330.325 485.193 330.837 465.076 357.209C467.894 360.071 472.54 364.327 479.031 368.241C493.595 377.001 502.621 375.095 515.259 380.289C534.3 388.123 530.441 399.297 547.355 407.505C573.718 420.299 610.004 406.185 610.962 396.069C611.36 391.902 605.64 389.468 606.829 384.744L606.834 384.734Z" fill="url(#paint2_linear_161_506)"/>
<path d="M464.98 356.089C468.162 367.428 528.571 366.685 569.682 340.749C578.742 335.033 593.359 323.994 598.486 306.583C600.409 300.044 601.47 291.003 597.791 288.714C593.363 285.959 584.653 294.65 579.106 290.926C576.644 289.275 577.214 286.793 574.73 285.52C570.238 283.209 563.139 288.597 561.107 290.175C544.644 302.947 548.847 319.265 536.461 327.35C526.732 333.701 520.591 325.948 502.787 329.556C482.84 333.603 462.969 348.926 464.98 356.089Z" fill="url(#paint3_linear_161_506)"/>
<path d="M485.888 531.304L357.585 373.053L361.022 370.272L470.159 504.888C458.778 485.331 447.819 465.562 437.43 445.841C421.529 415.671 415.514 401.742 420.089 385.223C425.596 365.378 443.873 353.425 458.247 346.888L460.074 350.92C446.565 357.066 429.398 368.206 424.341 386.411C420.182 401.396 426.015 414.723 441.331 443.787C456.338 472.265 472.539 500.863 489.48 528.773L485.873 531.309L485.888 531.304Z" fill="url(#paint4_linear_161_506)"/>
<path d="M161.259 135.796C144.82 115.83 121.498 94.3903 119.022 96.5331C114.979 100.025 168.441 164.076 162.572 169.418C158.352 173.254 127.06 143.517 123.645 146.985C121.947 148.711 127.308 158.44 135.269 165.911C148.769 178.568 158.816 174.417 175.255 185.851C190.564 196.503 195.664 209.711 198.184 208.314C200.941 206.791 195.2 190.831 191.007 181.44C186.043 170.326 180.401 162.046 174.699 153.739C168.165 144.227 162.617 137.452 161.259 135.796Z" fill="url(#paint5_linear_161_506)"/>
<path d="M277.895 133.287C272.562 107.984 270.367 76.3767 273.597 75.7793C278.848 74.7976 295.505 156.557 303.333 155.304C308.96 154.405 305.267 111.398 310.115 110.89C312.523 110.642 316.781 120.896 317.635 131.781C319.09 150.23 309.579 155.49 308.247 175.472C307.011 194.093 314.135 206.312 311.478 207.418C308.573 208.62 299.679 194.174 294.963 185.034C289.384 174.216 286.431 164.65 283.503 154.998C280.156 143.95 278.318 135.387 277.881 133.293L277.895 133.287Z" fill="url(#paint6_linear_161_506)"/>
<path d="M426.753 147.654C429.15 152.75 429.373 157.533 429.283 162.152C428.886 182.973 422.041 200.382 420.72 203.874C407.798 238.08 417.238 280.325 425.615 281.87C429.779 282.632 434.514 273.493 441.373 260.276C448.691 246.163 458.419 227.384 459.654 200.533C460.523 181.568 461.601 158.097 445.877 142.709C430.713 127.885 407.578 128.046 406.88 129.974C406.309 131.56 420.693 134.783 426.743 147.65L426.753 147.654Z" fill="url(#paint7_linear_161_506)"/>
<path d="M436.314 227.543C442.36 216.022 445.352 215.96 451.562 202.818C462.135 180.445 462.168 162.27 466.03 162.268C468.811 162.27 471.166 171.631 472.102 177.045C480.204 224.021 434.764 285.985 425.616 281.87C419.925 279.316 424.744 249.57 436.314 227.543Z" fill="url(#paint8_linear_161_506)"/>
<path d="M413.707 174.507C405.86 181.415 404.043 191.342 402.64 199.626C400.493 212.287 401.751 222.237 402.002 224.152C405.124 247.456 418.475 275.005 427.65 273.552C433.975 272.551 437.325 258.356 437.774 249.467C438.289 239.203 434.892 230.553 428.086 213.26C421.985 197.756 418.485 193.126 419.942 184.504C421.193 177.133 425.277 171.614 423.399 170.065C421.778 168.728 416.852 171.729 413.711 174.497L413.707 174.507Z" fill="url(#paint9_linear_161_506)"/>
<path d="M321.301 108.262C324.871 112.62 326.264 117.197 327.302 121.7C332.003 141.992 329.636 160.545 329.212 164.253C325.05 200.586 344.543 239.239 353.042 238.684C357.267 238.408 359.624 228.382 363.034 213.887C366.675 198.405 371.519 177.818 366.149 151.481C362.357 132.876 357.658 109.851 338.648 98.7872C320.318 88.1228 297.928 93.9399 297.734 95.984C297.573 97.6552 312.306 97.2571 321.32 108.271L321.301 108.262Z" fill="url(#paint10_linear_161_506)"/>
<path d="M350.112 183.382C353.161 170.735 356.035 169.931 358.842 155.676C363.621 131.392 359.199 113.767 362.952 112.809C365.653 112.122 370.221 120.639 372.451 125.648C391.803 169.225 362.908 240.419 353.032 238.68C346.883 237.593 344.285 207.574 350.112 183.382Z" fill="url(#paint11_linear_161_506)"/>
<path d="M315.224 137.486C309.312 146.114 309.976 156.175 310.638 164.554C311.66 177.352 315.305 186.694 316.021 188.488C324.744 210.325 344.431 233.768 352.971 230.121C358.856 227.605 358.628 213.017 356.891 204.282C354.88 194.203 349.46 186.65 338.634 171.539C328.926 158.002 324.403 154.37 323.712 145.652C323.127 138.192 325.727 131.844 323.526 130.805C321.628 129.901 317.585 134.022 315.214 137.482L315.224 137.486Z" fill="url(#paint12_linear_161_506)"/>
<path d="M166.158 172.707C167.63 178.141 170.556 181.934 173.615 185.4C187.404 201.005 203.892 209.846 207.153 211.659C239.141 229.362 259.306 267.673 253.92 274.271C251.244 277.547 241.71 273.648 227.927 268.006C213.211 261.986 193.643 253.978 175.317 234.311C162.374 220.426 146.35 203.234 148.385 181.314C150.343 160.195 168.077 145.349 169.862 146.373C171.316 147.213 162.44 158.976 166.168 172.711L166.158 172.707Z" fill="url(#paint13_linear_161_506)"/>
<path d="M210.591 239.787C198.521 234.919 196.207 236.807 182.958 230.809C160.418 220.609 148.631 206.765 145.666 209.272C143.551 211.066 147.819 219.741 150.599 224.462C174.835 265.514 249.588 283.322 253.896 274.272C256.578 268.639 233.649 249.093 210.576 239.793L210.591 239.787Z" fill="url(#paint14_linear_161_506)"/>
<path d="M193.48 184.729C203.934 184.922 211.746 191.311 218.181 196.713C228.014 204.98 233.498 213.372 234.543 214.998C247.25 234.782 254.905 264.422 246.978 269.249C241.507 272.578 229.76 263.932 223.672 257.449C216.626 249.961 213.624 241.16 207.62 223.581C202.24 207.817 201.91 202.019 195.208 196.401C189.477 191.591 182.802 190.028 183.223 187.637C183.587 185.561 189.294 184.672 193.485 184.744L193.48 184.729Z" fill="url(#paint15_linear_161_506)"/>
<path d="M486.133 531.569C474.987 521.678 377.954 432.028 401.657 330.497C405.721 313.085 413.169 296.307 423.792 280.636L427.455 283.123C417.138 298.349 409.914 314.623 405.975 331.509C396.239 373.23 406.126 417.876 435.372 464.217C457.737 499.669 484.044 523.791 489.085 528.271L486.153 531.578L486.133 531.569Z" fill="url(#paint16_linear_161_506)"/>
<path d="M258.289 278.004C253.037 286.428 220.582 277.982 220.429 271.487C220.374 268.885 225.481 264.874 230.204 264.54C232.7 264.367 234.785 265.233 236.597 263.848C238.046 262.738 238.336 260.942 238.582 259.514C240.151 250.664 241.002 245.886 243.003 245.057C245.787 243.91 250.841 250.38 252.035 251.916C258.834 260.613 258.908 270.123 258.886 273.307C258.868 275.829 258.856 277.082 258.289 278.004Z" fill="url(#paint17_linear_161_506)"/>
<path d="M376.99 392.497C363.973 405.082 310.215 375.742 312.834 364.175C313.888 359.536 324.711 354.702 333.225 356.211C337.722 357.011 341.023 359.471 344.857 357.811C347.915 356.483 349.221 353.432 350.303 351.021C356.998 336.05 360.617 327.953 364.526 327.378C369.95 326.582 376.042 340.279 377.478 343.531C385.663 361.946 381.58 378.804 380.125 384.451C378.983 388.905 378.411 391.12 376.974 392.502L376.99 392.497Z" fill="url(#paint18_linear_161_506)"/>
<path d="M436.087 364.668C426.786 349.122 467.552 303.438 478.224 308.618C482.503 310.701 484.754 322.339 481.356 330.293C479.564 334.494 476.413 337.148 477.155 341.255C477.756 344.535 480.43 346.498 482.538 348.1C495.591 358.029 502.654 363.407 502.325 367.339C501.872 372.802 487.145 375.611 483.662 376.289C463.88 380.071 448.389 372.254 443.222 369.557C439.154 367.435 437.115 366.359 436.102 364.662L436.087 364.668Z" fill="url(#paint19_linear_161_506)"/>
<path d="M427.06 291.347C417.14 291.149 407.763 258.928 413.264 255.479C415.477 254.091 421.529 256.43 424.243 260.323C425.668 262.373 425.993 264.611 428.111 265.455C429.81 266.126 431.497 265.459 432.85 264.947C441.253 261.773 445.793 260.05 447.53 261.343C449.939 263.14 446.973 270.802 446.265 272.616C442.276 282.91 434.151 287.83 431.398 289.451C429.224 290.723 428.144 291.357 427.054 291.332L427.06 291.347Z" fill="url(#paint20_linear_161_506)"/>
<path d="M238.029 226.907C220.339 208.043 202.074 182.159 204.523 179.968C208.503 176.4 265.153 237.656 271.195 232.524C275.541 228.84 250.073 193.97 253.953 191.035C255.886 189.57 264.844 196.13 271.22 204.991C282.027 220.008 276.632 229.434 285.862 247.212C294.462 263.766 306.904 270.519 305.194 272.845C303.33 275.38 288.239 267.644 279.464 262.279C269.08 255.933 261.592 249.277 254.091 242.542C245.496 234.837 239.491 228.465 238.019 226.903L238.029 226.907Z" fill="url(#paint21_linear_161_506)"/>
<path d="M226.39 79.0018C226.213 84.6347 227.904 89.1138 229.813 93.3153C238.449 112.269 251.626 125.544 254.224 128.224C279.659 154.5 287.746 197.039 280.661 201.769C277.136 204.123 269.164 197.602 257.629 188.179C245.312 178.118 228.938 164.74 217.143 140.582C208.818 123.521 198.519 102.399 206.858 82.0342C214.899 62.4208 236.207 53.3998 237.602 54.8912C238.752 56.1165 226.823 64.7801 226.38 78.9972L226.39 79.0018Z" fill="url(#paint22_linear_161_506)"/>
<path d="M249.3 156.133C239.183 147.958 236.413 149.074 225.499 139.479C206.919 123.136 199.68 106.461 196.126 107.98C193.568 109.081 195.118 118.618 196.417 123.951C207.609 170.291 273.907 209.162 280.671 201.773C284.881 197.17 268.659 171.782 249.31 156.138L249.3 156.133Z" fill="url(#paint23_linear_161_506)"/>
<path d="M249.02 98.4872C258.969 101.724 264.572 110.12 269.142 117.161C276.13 127.94 278.927 137.559 279.453 139.426C285.837 162.062 284.5 192.631 275.512 194.941C269.313 196.53 260.604 184.829 256.659 176.844C252.113 167.622 251.807 158.337 251.193 139.766C250.644 123.123 252.023 117.48 247.257 110.145C243.183 103.868 237.247 100.419 238.352 98.26C239.305 96.3841 245.02 97.1935 249.005 98.4931L249.02 98.4872Z" fill="url(#paint24_linear_161_506)"/>
<path d="M296.69 318.223C292.188 310.075 284.408 295.628 282.224 274.979C278.984 244.252 289.977 217.091 304.394 200.287C316.18 186.55 325.07 185.794 327.577 185.71C336.809 185.384 344.699 191.105 345.15 191.451C348.805 194.177 351.084 197.248 352.403 199.346C354.124 197.268 356.608 195.08 359.862 194.59C370.502 193.002 380.037 211.073 380.783 212.53C389.233 228.956 384.98 246.66 381.934 258.618C373.375 292.209 357.939 292.525 357.834 316.368C357.8 324.594 359.592 335.194 355.084 350.012C352.678 357.91 351.31 362.409 347.532 364.106C335.741 369.406 310.358 342.985 296.69 318.223Z" fill="url(#paint25_linear_161_506)"/>
<path d="M204.372 345.216C204.831 339.031 195.001 336.888 193.626 328.701C192.629 322.824 196.51 316.888 200.103 313.838C209.742 305.645 225.485 311.203 228.298 312.199C242.533 317.231 243.647 326.197 256.557 328.681C262.465 329.818 264.418 328.363 276.224 326.627C289.427 324.689 305.344 322.361 316.26 325.518C320.916 326.862 336.787 332.706 347.521 364.102C343.942 365.924 338.193 368.488 330.794 370.136C314.202 373.823 306.245 369.149 292.625 370.066C272.085 371.441 272.206 383.27 253.576 385.687C224.522 389.45 194.57 364.544 196.869 354.649C197.821 350.57 204.006 350.076 204.372 345.216Z" fill="url(#paint26_linear_161_506)"/>
<path d="M347.98 363.095C341.368 372.84 284.311 352.949 253.529 315.304C246.747 307.002 236.378 291.9 237.037 273.762C237.289 266.951 239.143 258.033 243.349 257.034C248.418 255.838 253.931 266.833 260.365 265.07C263.23 264.286 263.47 261.754 266.228 261.321C271.217 260.55 276.243 267.927 277.667 270.061C289.233 287.401 280.079 301.534 289.265 313.144C296.483 322.259 304.765 316.851 320.507 325.93C338.145 336.105 352.139 356.944 347.966 363.101L347.98 363.095Z" fill="url(#paint27_linear_161_506)"/>
<path d="M325.835 346.391C314.007 343.65 309.005 321.773 309.927 306.341C310.665 294.047 315.519 279.842 320.048 279.834C322.092 279.835 323.625 282.707 323.794 283.036C326.518 288.156 322.517 294.28 320.972 298.822C314.605 317.473 339.628 338.325 333.59 345.166C331.379 347.668 326.526 346.552 325.825 346.386L325.835 346.391Z" fill="url(#paint28_linear_161_506)"/>
<path d="M290.925 209.695C284.391 217.162 253.702 203.594 254.61 197.16C254.972 194.574 260.659 191.438 265.377 191.877C267.863 192.11 269.789 193.305 271.794 192.224C273.398 191.363 273.972 189.634 274.459 188.265C277.436 179.785 279.038 175.196 281.144 174.705C284.073 174.022 288.017 181.221 288.951 182.931C294.261 192.613 292.805 201.998 292.266 205.147C291.845 207.623 291.63 208.871 290.915 209.691L290.925 209.695Z" fill="url(#paint29_linear_161_506)"/>
</g>
<defs>
<linearGradient id="paint0_linear_161_506" x1="339.405" y1="185.885" x2="428.886" y2="544.724" gradientUnits="userSpaceOnUse">
<stop stop-color="#8CC63F"/>
<stop offset="0.1" stop-color="#88C03D"/>
<stop offset="0.22" stop-color="#7EB238"/>
<stop offset="0.35" stop-color="#6C9930"/>
<stop offset="0.49" stop-color="#547726"/>
<stop offset="0.64" stop-color="#354C18"/>
<stop offset="0.78" stop-color="#101707"/>
<stop offset="0.84"/>
</linearGradient>
<linearGradient id="paint1_linear_161_506" x1="547.814" y1="150.466" x2="481.614" y2="353.71" gradientUnits="userSpaceOnUse">
<stop stop-color="#9827B1"/>
<stop offset="0.11" stop-color="#9325AB"/>
<stop offset="0.24" stop-color="#87229D"/>
<stop offset="0.38" stop-color="#721D84"/>
<stop offset="0.52" stop-color="#551563"/>
<stop offset="0.68" stop-color="#2F0C37"/>
<stop offset="0.83" stop-color="#020002"/>
<stop offset="0.84"/>
</linearGradient>
<linearGradient id="paint2_linear_161_506" x1="560.858" y1="312.328" x2="532.611" y2="399.05" gradientUnits="userSpaceOnUse">
<stop stop-color="#9827B1"/>
<stop offset="0.11" stop-color="#9325AB"/>
<stop offset="0.24" stop-color="#87229D"/>
<stop offset="0.38" stop-color="#721D84"/>
<stop offset="0.52" stop-color="#551563"/>
<stop offset="0.68" stop-color="#2F0C37"/>
<stop offset="0.83" stop-color="#020002"/>
<stop offset="0.84"/>
</linearGradient>
<linearGradient id="paint3_linear_161_506" x1="558.485" y1="247.963" x2="518.6" y2="370.436" gradientUnits="userSpaceOnUse">
<stop stop-color="#9827B1"/>
<stop offset="0.11" stop-color="#9325AB"/>
<stop offset="0.24" stop-color="#87229D"/>
<stop offset="0.38" stop-color="#721D84"/>
<stop offset="0.52" stop-color="#551563"/>
<stop offset="0.68" stop-color="#2F0C37"/>
<stop offset="0.83" stop-color="#020002"/>
<stop offset="0.84"/>
</linearGradient>
<linearGradient id="paint4_linear_161_506" x1="407.977" y1="358.564" x2="453.09" y2="539.487" gradientUnits="userSpaceOnUse">
<stop stop-color="#8CC63F"/>
<stop offset="0.1" stop-color="#88C03D"/>
<stop offset="0.22" stop-color="#7EB238"/>
<stop offset="0.35" stop-color="#6C9930"/>
<stop offset="0.49" stop-color="#547726"/>
<stop offset="0.64" stop-color="#354C18"/>
<stop offset="0.78" stop-color="#101707"/>
<stop offset="0.84"/>
</linearGradient>
<linearGradient id="paint5_linear_161_506" x1="94.1052" y1="102.294" x2="204.982" y2="195.558" gradientUnits="userSpaceOnUse">
<stop stop-color="#8CC63F"/>
<stop offset="0.1" stop-color="#88C03D"/>
<stop offset="0.22" stop-color="#7EB238"/>
<stop offset="0.35" stop-color="#6C9930"/>
<stop offset="0.49" stop-color="#547726"/>
<stop offset="0.64" stop-color="#354C18"/>
<stop offset="0.78" stop-color="#101707"/>
<stop offset="0.84"/>
</linearGradient>
<linearGradient id="paint6_linear_161_506" x1="293.647" y1="59.9289" x2="297.274" y2="204.765" gradientUnits="userSpaceOnUse">
<stop stop-color="#8CC63F"/>
<stop offset="0.1" stop-color="#88C03D"/>
<stop offset="0.22" stop-color="#7EB238"/>
<stop offset="0.35" stop-color="#6C9930"/>
<stop offset="0.49" stop-color="#547726"/>
<stop offset="0.64" stop-color="#354C18"/>
<stop offset="0.78" stop-color="#101707"/>
<stop offset="0.84"/>
</linearGradient>
<linearGradient id="paint7_linear_161_506" x1="455.473" y1="103.866" x2="402.448" y2="266.62" gradientUnits="userSpaceOnUse">
<stop stop-color="#9827B1"/>
<stop offset="0.11" stop-color="#9325AB"/>
<stop offset="0.24" stop-color="#87229D"/>
<stop offset="0.38" stop-color="#721D84"/>
<stop offset="0.52" stop-color="#551563"/>
<stop offset="0.68" stop-color="#2F0C37"/>
<stop offset="0.83" stop-color="#020002"/>
<stop offset="0.84"/>
</linearGradient>
<linearGradient id="paint8_linear_161_506" x1="480.321" y1="134.19" x2="433.58" y2="277.661" gradientUnits="userSpaceOnUse">
<stop stop-color="#9827B1"/>
<stop offset="0.11" stop-color="#9325AB"/>
<stop offset="0.24" stop-color="#87229D"/>
<stop offset="0.38" stop-color="#721D84"/>
<stop offset="0.52" stop-color="#551563"/>
<stop offset="0.68" stop-color="#2F0C37"/>
<stop offset="0.83" stop-color="#020002"/>
<stop offset="0.84"/>
</linearGradient>
<linearGradient id="paint9_linear_161_506" x1="444.381" y1="151.557" x2="408.239" y2="262.522" gradientUnits="userSpaceOnUse">
<stop stop-color="#9827B1"/>
<stop offset="0.11" stop-color="#9325AB"/>
<stop offset="0.24" stop-color="#87229D"/>
<stop offset="0.38" stop-color="#721D84"/>
<stop offset="0.52" stop-color="#551563"/>
<stop offset="0.68" stop-color="#2F0C37"/>
<stop offset="0.83" stop-color="#020002"/>
<stop offset="0.84"/>
</linearGradient>
<linearGradient id="paint10_linear_161_506" x1="338.432" y1="58.75" x2="326.868" y2="229.551" gradientUnits="userSpaceOnUse">
<stop stop-color="#9827B1"/>
<stop offset="0.11" stop-color="#9325AB"/>
<stop offset="0.24" stop-color="#87229D"/>
<stop offset="0.38" stop-color="#721D84"/>
<stop offset="0.52" stop-color="#551563"/>
<stop offset="0.68" stop-color="#2F0C37"/>
<stop offset="0.83" stop-color="#020002"/>
<stop offset="0.84"/>
</linearGradient>
<linearGradient id="paint11_linear_161_506" x1="369.944" y1="82.0687" x2="359.751" y2="232.633" gradientUnits="userSpaceOnUse">
<stop stop-color="#9827B1"/>
<stop offset="0.11" stop-color="#9325AB"/>
<stop offset="0.24" stop-color="#87229D"/>
<stop offset="0.38" stop-color="#721D84"/>
<stop offset="0.52" stop-color="#551563"/>
<stop offset="0.68" stop-color="#2F0C37"/>
<stop offset="0.83" stop-color="#020002"/>
<stop offset="0.84"/>
</linearGradient>
<linearGradient id="paint12_linear_161_506" x1="339.351" y1="107.709" x2="331.476" y2="224.159" gradientUnits="userSpaceOnUse">
<stop stop-color="#9827B1"/>
<stop offset="0.11" stop-color="#9325AB"/>
<stop offset="0.24" stop-color="#87229D"/>
<stop offset="0.38" stop-color="#721D84"/>
<stop offset="0.52" stop-color="#551563"/>
<stop offset="0.68" stop-color="#2F0C37"/>
<stop offset="0.83" stop-color="#020002"/>
<stop offset="0.84"/>
</linearGradient>
<linearGradient id="paint13_linear_161_506" x1="115.902" y1="157.916" x2="261.678" y2="247.659" gradientUnits="userSpaceOnUse">
<stop stop-color="#9827B1"/>
<stop offset="0.11" stop-color="#9325AB"/>
<stop offset="0.24" stop-color="#87229D"/>
<stop offset="0.38" stop-color="#721D84"/>
<stop offset="0.52" stop-color="#551563"/>
<stop offset="0.68" stop-color="#2F0C37"/>
<stop offset="0.83" stop-color="#020002"/>
<stop offset="0.84"/>
</linearGradient>
<linearGradient id="paint14_linear_161_506" x1="116.592" y1="197.112" x2="245.096" y2="276.223" gradientUnits="userSpaceOnUse">
<stop stop-color="#9827B1"/>
<stop offset="0.11" stop-color="#9325AB"/>
<stop offset="0.24" stop-color="#87229D"/>
<stop offset="0.38" stop-color="#721D84"/>
<stop offset="0.52" stop-color="#551563"/>
<stop offset="0.68" stop-color="#2F0C37"/>
<stop offset="0.83" stop-color="#020002"/>
<stop offset="0.84"/>
</linearGradient>
<linearGradient id="paint15_linear_161_506" x1="155.23" y1="187.089" x2="254.612" y2="248.282" gradientUnits="userSpaceOnUse">
<stop stop-color="#9827B1"/>
<stop offset="0.11" stop-color="#9325AB"/>
<stop offset="0.24" stop-color="#87229D"/>
<stop offset="0.38" stop-color="#721D84"/>
<stop offset="0.52" stop-color="#551563"/>
<stop offset="0.68" stop-color="#2F0C37"/>
<stop offset="0.83" stop-color="#020002"/>
<stop offset="0.84"/>
</linearGradient>
<linearGradient id="paint16_linear_161_506" x1="401.361" y1="286.217" x2="463.924" y2="537.11" gradientUnits="userSpaceOnUse">
<stop stop-color="#8CC63F"/>
<stop offset="0.1" stop-color="#88C03D"/>
<stop offset="0.22" stop-color="#7EB238"/>
<stop offset="0.35" stop-color="#6C9930"/>
<stop offset="0.49" stop-color="#547726"/>
<stop offset="0.64" stop-color="#354C18"/>
<stop offset="0.78" stop-color="#101707"/>
<stop offset="0.84"/>
</linearGradient>
<linearGradient id="paint17_linear_161_506" x1="228.929" y1="247.693" x2="247.927" y2="283.348" gradientUnits="userSpaceOnUse">
<stop stop-color="#8CC63F"/>
<stop offset="0.1" stop-color="#88C03D"/>
<stop offset="0.22" stop-color="#7EB238"/>
<stop offset="0.35" stop-color="#6C9930"/>
<stop offset="0.49" stop-color="#547726"/>
<stop offset="0.64" stop-color="#354C18"/>
<stop offset="0.78" stop-color="#101707"/>
<stop offset="0.84"/>
</linearGradient>
<linearGradient id="paint18_linear_161_506" x1="338.377" y1="325.824" x2="356.222" y2="397.386" gradientUnits="userSpaceOnUse">
<stop stop-color="#8CC63F"/>
<stop offset="0.1" stop-color="#88C03D"/>
<stop offset="0.22" stop-color="#7EB238"/>
<stop offset="0.35" stop-color="#6C9930"/>
<stop offset="0.49" stop-color="#547726"/>
<stop offset="0.64" stop-color="#354C18"/>
<stop offset="0.78" stop-color="#101707"/>
<stop offset="0.84"/>
</linearGradient>
<linearGradient id="paint19_linear_161_506" x1="509.747" y1="342.216" x2="436.031" y2="343.344" gradientUnits="userSpaceOnUse">
<stop stop-color="#8CC63F"/>
<stop offset="0.1" stop-color="#88C03D"/>
<stop offset="0.22" stop-color="#7EB238"/>
<stop offset="0.35" stop-color="#6C9930"/>
<stop offset="0.49" stop-color="#547726"/>
<stop offset="0.64" stop-color="#354C18"/>
<stop offset="0.78" stop-color="#101707"/>
<stop offset="0.84"/>
</linearGradient>
<linearGradient id="paint20_linear_161_506" x1="438.033" y1="250.602" x2="417.127" y2="285.158" gradientUnits="userSpaceOnUse">
<stop stop-color="#8CC63F"/>
<stop offset="0.1" stop-color="#88C03D"/>
<stop offset="0.22" stop-color="#7EB238"/>
<stop offset="0.35" stop-color="#6C9930"/>
<stop offset="0.49" stop-color="#547726"/>
<stop offset="0.64" stop-color="#354C18"/>
<stop offset="0.78" stop-color="#101707"/>
<stop offset="0.84"/>
</linearGradient>
<linearGradient id="paint21_linear_161_506" x1="213.422" y1="155.992" x2="291.724" y2="277.92" gradientUnits="userSpaceOnUse">
<stop stop-color="#8CC63F"/>
<stop offset="0.1" stop-color="#88C03D"/>
<stop offset="0.22" stop-color="#7EB238"/>
<stop offset="0.35" stop-color="#6C9930"/>
<stop offset="0.49" stop-color="#547726"/>
<stop offset="0.64" stop-color="#354C18"/>
<stop offset="0.78" stop-color="#101707"/>
<stop offset="0.84"/>
</linearGradient>
<linearGradient id="paint22_linear_161_506" x1="182.659" y1="50.1764" x2="295.873" y2="178.618" gradientUnits="userSpaceOnUse">
<stop stop-color="#9827B1"/>
<stop offset="0.11" stop-color="#9325AB"/>
<stop offset="0.24" stop-color="#87229D"/>
<stop offset="0.38" stop-color="#721D84"/>
<stop offset="0.52" stop-color="#551563"/>
<stop offset="0.68" stop-color="#2F0C37"/>
<stop offset="0.83" stop-color="#020002"/>
<stop offset="0.84"/>
</linearGradient>
<linearGradient id="paint23_linear_161_506" x1="171.876" y1="87.8771" x2="271.675" y2="201.088" gradientUnits="userSpaceOnUse">
<stop stop-color="#9827B1"/>
<stop offset="0.11" stop-color="#9325AB"/>
<stop offset="0.24" stop-color="#87229D"/>
<stop offset="0.38" stop-color="#721D84"/>
<stop offset="0.52" stop-color="#551563"/>
<stop offset="0.68" stop-color="#2F0C37"/>
<stop offset="0.83" stop-color="#020002"/>
<stop offset="0.84"/>
</linearGradient>
<linearGradient id="paint24_linear_161_506" x1="211.751" y1="89.5715" x2="288.931" y2="177.137" gradientUnits="userSpaceOnUse">
<stop stop-color="#9827B1"/>
<stop offset="0.11" stop-color="#9325AB"/>
<stop offset="0.24" stop-color="#87229D"/>
<stop offset="0.38" stop-color="#721D84"/>
<stop offset="0.52" stop-color="#551563"/>
<stop offset="0.68" stop-color="#2F0C37"/>
<stop offset="0.83" stop-color="#020002"/>
<stop offset="0.84"/>
</linearGradient>
<linearGradient id="paint25_linear_161_506" x1="334.527" y1="141.758" x2="332.796" y2="355.533" gradientUnits="userSpaceOnUse">
<stop stop-color="#9827B1"/>
<stop offset="0.11" stop-color="#9325AB"/>
<stop offset="0.24" stop-color="#87229D"/>
<stop offset="0.38" stop-color="#721D84"/>
<stop offset="0.52" stop-color="#551563"/>
<stop offset="0.68" stop-color="#2F0C37"/>
<stop offset="0.83" stop-color="#020002"/>
<stop offset="0.84"/>
</linearGradient>
<linearGradient id="paint26_linear_161_506" x1="270.919" y1="291.121" x2="270.176" y2="382.345" gradientUnits="userSpaceOnUse">
<stop stop-color="#9827B1"/>
<stop offset="0.11" stop-color="#9325AB"/>
<stop offset="0.24" stop-color="#87229D"/>
<stop offset="0.38" stop-color="#721D84"/>
<stop offset="0.52" stop-color="#551563"/>
<stop offset="0.68" stop-color="#2F0C37"/>
<stop offset="0.83" stop-color="#020002"/>
<stop offset="0.84"/>
</linearGradient>
<linearGradient id="paint27_linear_161_506" x1="293.532" y1="230.834" x2="292.487" y2="359.641" gradientUnits="userSpaceOnUse">
<stop stop-color="#9827B1"/>
<stop offset="0.11" stop-color="#9325AB"/>
<stop offset="0.24" stop-color="#87229D"/>
<stop offset="0.38" stop-color="#721D84"/>
<stop offset="0.52" stop-color="#551563"/>
<stop offset="0.68" stop-color="#2F0C37"/>
<stop offset="0.83" stop-color="#020002"/>
<stop offset="0.84"/>
</linearGradient>
<linearGradient id="paint28_linear_161_506" x1="322.677" y1="263.419" x2="322.026" y2="343.294" gradientUnits="userSpaceOnUse">
<stop stop-color="#FFFF15"/>
<stop offset="0.09" stop-color="#F9F914"/>
<stop offset="0.19" stop-color="#EBEB13"/>
<stop offset="0.3" stop-color="#D2D211"/>
<stop offset="0.42" stop-color="#B0B00E"/>
<stop offset="0.55" stop-color="#85850A"/>
<stop offset="0.68" stop-color="#4F4F06"/>
<stop offset="0.81" stop-color="#111101"/>
<stop offset="0.84"/>
</linearGradient>
<linearGradient id="paint29_linear_161_506" x1="266.828" y1="175.051" x2="279.842" y2="213.305" gradientUnits="userSpaceOnUse">
<stop stop-color="#8CC63F"/>
<stop offset="0.1" stop-color="#88C03D"/>
<stop offset="0.22" stop-color="#7EB238"/>
<stop offset="0.35" stop-color="#6C9930"/>
<stop offset="0.49" stop-color="#547726"/>
<stop offset="0.64" stop-color="#354C18"/>
<stop offset="0.78" stop-color="#101707"/>
<stop offset="0.84"/>
</linearGradient>
<clipPath id="clip0_161_506">
<rect width="470" height="567" fill="white"/>
</clipPath>
</defs>
</svg>
