<svg width="276" height="486" viewBox="0 0 276 486" fill="none" xmlns="http://www.w3.org/2000/svg">
<path d="M39.4593 319.423C35.9842 325.992 32.4529 330.587 25.3754 339.786C12.4369 356.617 -35.7355 419.264 -88.6344 414.349C-103.487 412.969 -119.612 406.192 -120.186 398.785C-120.773 391.1 -104.247 387.69 -90.3772 371.767C-79.4292 359.193 -75.15 344.569 -73.3143 333.306C-79.867 338.978 -90.2816 346.321 -104.533 350.105C-136.903 358.685 -171.283 344.134 -171.005 335.939C-170.795 329.914 -151.995 331.185 -129.433 314.589C-118.2 306.325 -110.72 297.104 -106.103 290.407C-119.458 292.7 -140.917 294.414 -164.831 286.76C-184.506 280.488 -210.891 266.272 -208.969 256.608C-207.223 247.792 -182.454 245.587 -162.118 243.783C-140.595 241.866 -122.753 243.112 -110.84 244.505C-117.048 233.388 -127.245 218.961 -143.908 207.932C-160.404 197.004 -172.948 196.207 -172.865 191.232C-172.758 183.466 -142.095 170.851 -115.955 180.189C-86.5132 190.702 -77.4966 223.812 -76.4544 227.875C-70.3579 218.607 -64.5993 206.077 -67.15 192.829C-70.4044 175.983 -85.1563 168.335 -81.9916 159.095C-79.4962 151.812 -67.3446 147.771 -58.6978 148.878C-38.7052 151.412 -22.7113 183.388 -16.2705 227.791C-9.80177 221.313 -1.70813 210.995 -1.52153 198.104C-1.29398 180.733 -15.5916 168.348 -11.899 163.952C-8.9727 160.468 3.24176 164.443 12.5033 170.272C50.8758 194.421 66.7585 267.932 39.4818 319.431L39.4593 319.423Z" fill="url(#paint0_linear_161_303)"/>
<path d="M114.875 230.162C121.911 232.55 127.024 235.305 137.252 240.815C155.951 250.906 225.568 288.457 229.257 341.448C230.301 356.318 226.214 373.318 218.995 375.069C211.509 376.886 205.473 361.105 187.521 349.96C173.336 341.163 158.211 339.265 146.82 339.26C153.465 344.819 162.414 353.93 168.44 367.393C182.138 397.949 173.323 434.212 165.177 435.242C159.194 436.004 157.411 417.251 137.39 397.613C127.41 387.835 117.115 381.944 109.757 378.441C114.176 391.255 119.34 412.16 115.648 436.982C112.628 457.408 102.853 485.709 93.0036 485.368C84.0142 485.045 77.8412 460.966 72.7678 441.164C67.401 420.232 65.7345 402.421 65.1923 390.442C55.2084 398.352 42.6402 410.718 34.4273 428.922C26.293 446.951 27.5416 459.446 22.6206 460.18C14.9406 461.305 -2.4633 433.074 2.53023 405.773C8.14727 375.026 39.3832 360.845 43.2153 359.19C33.0684 354.658 19.7754 350.966 7.12786 355.608C-8.97111 361.516 -14.1532 377.295 -23.7688 375.639C-31.3502 374.332 -37.3094 362.97 -37.6333 354.278C-38.3538 334.136 -9.38237 313.246 33.4097 299.814C25.9681 294.465 14.4894 288.119 1.71703 290.011C-15.4694 292.56 -25.3793 308.65 -30.3099 305.704C-34.218 303.374 -32.262 290.688 -28.0076 280.611C-10.3767 238.885 59.6242 211.479 114.861 230.169L114.875 230.162Z" fill="url(#paint1_linear_161_303)"/>
<path d="M176.771 348.05L168.461 346.937C129.669 341.696 93.0862 327.338 62.6433 305.409C38.7003 288.153 -5.83678 256.057 -15.2653 198.618C-21.5212 160.561 -9.7731 127.935 1.17776 107.254L7.09198 110.382C-3.37689 130.148 -14.6243 161.321 -8.6615 197.528C0.328392 252.232 43.4076 283.28 66.5608 299.969C94.3004 319.955 126.003 333.078 160.905 339.002C146.661 321.298 132.3 303.372 118.13 285.63C55.441 207.083 47.0566 194.916 38.4178 177.026C21.9846 142.994 13.8114 104.093 14.0922 61.3736L20.7872 61.4275C20.5072 103.107 28.4653 141.025 44.4452 174.124C52.8106 191.458 61.1015 203.447 123.36 281.464C139.312 301.445 155.516 321.653 171.496 341.506L176.763 348.036L176.771 348.05Z" fill="url(#paint2_linear_161_303)"/>
<path d="M123.418 221.63C117.446 219.004 113.192 216.194 104.675 210.559C89.1049 200.279 31.1555 162.003 31.9749 115.354C32.2098 102.268 37.0735 87.7141 43.5154 86.7478C50.2033 85.7474 54.2564 100.019 69.0965 111.174C80.8142 119.984 93.8792 122.812 103.853 123.713C98.4678 118.323 91.3463 109.669 87.1107 97.4204C77.4944 69.6324 87.9671 38.6022 95.157 38.3395C100.441 38.1518 100.562 54.6783 116.555 73.4097C124.521 82.7344 133.083 88.7043 139.224 92.3369C136.343 80.7943 133.439 62.1018 138.541 40.6768C142.749 23.047 153.451 -0.94231 162.022 0.128632C169.851 1.11707 173.406 22.6611 176.319 40.3663C179.411 59.0922 179.492 74.7895 179.061 85.314C188.38 79.1899 200.313 69.3492 208.879 54.0777C217.35 38.9509 217.217 27.9294 221.58 27.678C228.386 27.2957 241.428 53.34 234.971 76.8184C227.716 103.267 199.338 113.226 195.855 114.395C204.361 119.147 215.707 123.409 227.108 120.347C241.633 116.438 247.36 103.056 255.647 105.239C262.168 106.972 266.506 117.371 266.12 125C265.218 142.669 238.298 158.665 199.889 167.073C205.982 172.336 215.534 178.787 226.821 178.129C242.03 177.243 251.924 163.958 256.002 166.898C259.237 169.242 256.572 180.184 252.074 188.651C233.474 223.762 170.213 242.261 123.394 221.586L123.418 221.63Z" fill="url(#paint3_linear_161_303)"/>
<path d="M23.6006 425.502C-2.58709 414.281 -17.1695 376.121 -8.96858 344.47C-0.158863 310.459 34.9706 283.972 63.8647 289.066C77.8871 291.524 87.8149 300.952 90.72 303.961C105.925 319.648 106.534 339.83 106.732 346.094C107.923 384.79 76.8641 426.409 43.0038 428.818C33.594 429.491 26.5211 426.745 23.6006 425.502Z" fill="url(#paint4_linear_161_303)"/>
<path d="M31.2899 414.093C29.9216 413.754 27.8391 413.242 25.9326 411.844C24.0642 410.482 23.2464 408.928 22.9067 408.067C23.1473 407.77 24.7904 405.868 27.9997 405.902C29.4583 405.91 30.6786 406.327 31.3726 406.605C31.0517 405.923 30.5921 404.69 30.8015 403.258C31.1066 401.038 32.7855 399.778 33.3906 399.385C34.5424 399.743 36.1404 400.339 37.8219 401.346C40.3366 402.859 41.8226 404.534 42.5914 405.528C43.0438 404.989 44.2009 403.814 46.4188 403.291C50.1996 402.4 53.8639 404.16 54.4005 404.426C54.3998 405.466 54.1967 407.557 52.5638 409.586C51.2447 411.242 49.5432 412.136 48.5207 412.598C51.0283 412.698 53.4753 413.831 54.8126 415.547C56.4038 417.602 55.6734 419.516 55.552 419.788C55.0411 420.037 52.5437 421.142 49.0649 420.381C46.5627 419.825 44.9139 418.594 44.2979 418.104C44.0947 418.759 43.3021 420.914 40.4877 422.242C38.2286 423.296 35.8869 423.261 34.8909 423.198C34.2927 422.492 33.2607 421.069 32.9304 419.221C32.4995 416.859 33.4666 415.179 33.9019 414.535C33.2648 414.472 32.3646 414.341 31.3194 414.077L31.2899 414.093Z" fill="url(#paint5_radial_161_303)"/>
<path d="M263.407 343.573C243.125 361.92 200.277 353.348 174.66 332.947C153.242 315.894 133.787 282.543 146.008 258.965C152.513 246.382 165.982 240.572 170.044 238.816C190.665 229.909 210.385 236.233 216.522 238.205C254.344 250.361 283.405 293.82 273.58 326.475C272.489 330.109 270.167 337.47 263.407 343.573Z" fill="url(#paint6_linear_161_303)"/>
<path d="M255.148 332.436C254.327 333.605 253.079 335.395 251.064 336.698C249.079 337.987 247.274 338.217 246.332 338.259C246.138 337.926 244.896 335.744 246.067 332.729C246.607 331.35 247.439 330.346 247.958 329.79C247.196 329.85 245.828 329.87 244.52 329.178C242.47 328.119 241.867 326.112 241.711 325.419C242.468 324.454 243.623 323.167 245.205 321.939C247.561 320.097 249.727 319.261 250.969 318.893C250.604 318.272 249.9 316.79 250.181 314.525C250.684 310.671 253.698 307.821 254.146 307.416C255.149 307.777 257.097 308.681 258.475 310.905C259.597 312.715 259.862 314.617 259.93 315.752C260.913 313.422 262.901 311.527 265.041 310.857C267.604 310.057 269.189 311.417 269.41 311.622C269.459 312.182 269.636 314.923 267.642 317.918C266.205 320.07 264.427 321.213 263.718 321.623C264.28 322.046 266.084 323.535 266.35 326.626C266.559 329.106 265.678 331.307 265.271 332.22C264.38 332.537 262.632 333.021 260.726 332.699C258.287 332.299 257.014 330.814 256.552 330.187C256.25 330.762 255.803 331.563 255.179 332.458L255.148 332.436Z" fill="url(#paint7_radial_161_303)"/>
<path d="M184.581 450.404C158.073 457.169 124.148 429.626 110.978 399.642C99.983 374.581 98.3016 336.03 120.1 320.855C131.725 312.763 146.356 313.9 150.769 314.246C173.176 315.984 187.68 330.773 192.197 335.372C220.007 363.749 225.47 415.732 201.559 440.029C198.885 442.737 193.427 448.157 184.581 450.404Z" fill="url(#paint8_linear_161_303)"/>
<path d="M182.446 436.692C181.174 437.361 179.25 438.334 176.831 438.547C174.473 438.766 172.776 438.126 171.915 437.71C171.899 437.322 171.809 434.818 174.263 432.697C175.38 431.732 176.588 431.23 177.309 430.983C176.607 430.691 175.39 430.065 174.542 428.847C173.231 426.966 173.637 424.901 173.801 424.21C174.921 423.717 176.546 423.108 178.528 422.747C181.478 422.217 183.773 422.486 185.057 422.737C185.019 422.019 185.097 420.373 186.39 418.522C188.627 415.344 192.635 414.239 193.216 414.085C193.935 414.879 195.242 416.573 195.431 419.195C195.58 421.308 194.93 423.124 194.45 424.15C196.407 422.556 199.061 421.785 201.26 422.197C203.896 422.683 204.67 424.62 204.78 424.902C204.566 425.43 203.444 427.928 200.287 429.644C198.009 430.878 195.911 431.054 195.096 431.086C195.394 431.723 196.299 433.874 195.087 436.74C194.118 439.026 192.318 440.557 191.531 441.179C190.585 441.033 188.82 440.657 187.277 439.484C185.301 437.99 184.873 436.098 184.759 435.308C184.236 435.677 183.461 436.179 182.477 436.677L182.446 436.692Z" fill="url(#paint9_radial_161_303)"/>
<path d="M-33.624 329.629C-59.9508 322.128 -75.4046 281.27 -71.6875 248.744C-68.5761 221.563 -50.6143 187.429 -24.1373 185.309C-11.7051 184.314 -1.62977 190.433 5.70657 195.044C8.47291 196.784 36.7031 215.189 40.377 249.236C44.432 286.842 16.2179 322.13 -13.7227 329.226C-18.3072 330.311 -25.3697 332 -33.6388 329.636L-33.624 329.629Z" fill="url(#paint10_linear_161_303)"/>
<path d="M140.179 265.976C109.187 277.894 61.4897 255.621 48.3441 217.141C39.3245 190.702 46.0743 155.109 69.2329 139.862C81.8705 131.54 95.8206 131.599 99.5398 131.704C122.005 132.297 137.235 146.346 141.986 150.709C171.195 177.651 179.291 229.291 156.623 254.767C150.594 261.543 143.688 264.643 140.186 265.991L140.179 265.976Z" fill="url(#paint11_linear_161_303)"/>
<path d="M137.374 252.391C136.125 253.104 134.263 254.195 131.869 254.527C129.512 254.858 127.788 254.309 126.92 253.953C126.89 253.572 126.666 251.063 129.005 248.832C130.076 247.816 131.253 247.255 131.95 246.964C131.227 246.702 129.988 246.143 129.081 244.957C127.674 243.145 127.975 241.059 128.118 240.361C129.206 239.809 130.806 239.119 132.756 238.661C135.667 237.982 137.981 238.145 139.264 238.322C139.189 237.606 139.169 235.953 140.393 234.044C142.464 230.764 146.415 229.444 146.979 229.261C147.736 230.016 149.124 231.649 149.447 234.238C149.708 236.349 149.141 238.178 148.737 239.24C150.623 237.55 153.215 236.66 155.442 236.945C158.105 237.304 158.967 239.194 159.092 239.468C158.902 240.003 157.915 242.543 154.851 244.436C152.65 245.781 150.555 246.07 149.741 246.139C150.068 246.76 151.077 248.857 150.016 251.795C149.167 254.13 147.437 255.758 146.68 256.401C145.728 256.315 143.949 256.022 142.348 254.917C140.307 253.514 139.782 251.654 139.616 250.873C139.108 251.271 138.364 251.795 137.41 252.352L137.374 252.391Z" fill="url(#paint12_radial_161_303)"/>
<defs>
<linearGradient id="paint0_linear_161_303" x1="-354.102" y1="228.426" x2="128.216" y2="319.711" gradientUnits="userSpaceOnUse">
<stop stop-color="#8CC63F"/>
<stop offset="0.1" stop-color="#88C03D"/>
<stop offset="0.22" stop-color="#7EB238"/>
<stop offset="0.35" stop-color="#6C9930"/>
<stop offset="0.49" stop-color="#547726"/>
<stop offset="0.64" stop-color="#354C18"/>
<stop offset="0.78" stop-color="#101707"/>
<stop offset="0.84"/>
</linearGradient>
<linearGradient id="paint1_linear_161_303" x1="88.4854" y1="632.944" x2="101.621" y2="142.372" gradientUnits="userSpaceOnUse">
<stop stop-color="#8CC63F"/>
<stop offset="0.1" stop-color="#88C03D"/>
<stop offset="0.22" stop-color="#7EB238"/>
<stop offset="0.35" stop-color="#6C9930"/>
<stop offset="0.49" stop-color="#547726"/>
<stop offset="0.64" stop-color="#354C18"/>
<stop offset="0.78" stop-color="#101707"/>
<stop offset="0.84"/>
</linearGradient>
<linearGradient id="paint2_linear_161_303" x1="5.38021" y1="252.034" x2="100.044" y2="202.226" gradientUnits="userSpaceOnUse">
<stop stop-color="#934800"/>
<stop offset="0.12" stop-color="#8D4500"/>
<stop offset="0.26" stop-color="#7F3E00"/>
<stop offset="0.42" stop-color="#663200"/>
<stop offset="0.58" stop-color="#452100"/>
<stop offset="0.75" stop-color="#190C00"/>
<stop offset="0.84"/>
</linearGradient>
<linearGradient id="paint3_linear_161_303" x1="177.399" y1="-128.617" x2="128.061" y2="299.003" gradientUnits="userSpaceOnUse">
<stop stop-color="#8CC63F"/>
<stop offset="0.1" stop-color="#88C03D"/>
<stop offset="0.22" stop-color="#7EB238"/>
<stop offset="0.35" stop-color="#6C9930"/>
<stop offset="0.49" stop-color="#547726"/>
<stop offset="0.64" stop-color="#354C18"/>
<stop offset="0.78" stop-color="#101707"/>
<stop offset="0.84"/>
</linearGradient>
<linearGradient id="paint4_linear_161_303" x1="74.0389" y1="485.864" x2="20.992" y2="221.238" gradientUnits="userSpaceOnUse">
<stop stop-color="#FFB000"/>
<stop offset="0.09" stop-color="#F7AB01"/>
<stop offset="0.22" stop-color="#E39E04"/>
<stop offset="0.38" stop-color="#C28909"/>
<stop offset="0.55" stop-color="#956B10"/>
<stop offset="0.75" stop-color="#5B4618"/>
<stop offset="0.9" stop-color="#272521"/>
</linearGradient>
<radialGradient id="paint5_radial_161_303" cx="0" cy="0" r="1" gradientUnits="userSpaceOnUse" gradientTransform="translate(37.3747 411.764) rotate(-73.1379) scale(12.2664 16.7002)">
<stop stop-color="#C09032"/>
<stop offset="0.12" stop-color="#B88A31"/>
<stop offset="0.31" stop-color="#A27B2E"/>
<stop offset="0.55" stop-color="#7E622A"/>
<stop offset="0.81" stop-color="#4E4025"/>
<stop offset="1" stop-color="#272521"/>
</radialGradient>
<linearGradient id="paint6_linear_161_303" x1="339.434" y1="313.756" x2="68.2942" y2="271.679" gradientUnits="userSpaceOnUse">
<stop stop-color="#FFB000"/>
<stop offset="0.09" stop-color="#F7AB01"/>
<stop offset="0.22" stop-color="#E39E04"/>
<stop offset="0.38" stop-color="#C28909"/>
<stop offset="0.55" stop-color="#956B10"/>
<stop offset="0.75" stop-color="#5B4618"/>
<stop offset="0.9" stop-color="#272521"/>
</linearGradient>
<radialGradient id="paint7_radial_161_303" cx="0" cy="0" r="1" gradientUnits="userSpaceOnUse" gradientTransform="translate(222.809 307.59) rotate(-143.797) scale(12.4772 16.8883)">
<stop stop-color="#C09032"/>
<stop offset="0.12" stop-color="#B88A31"/>
<stop offset="0.31" stop-color="#A27B2E"/>
<stop offset="0.55" stop-color="#7E622A"/>
<stop offset="0.81" stop-color="#4E4025"/>
<stop offset="1" stop-color="#272521"/>
</radialGradient>
<linearGradient id="paint8_linear_161_303" x1="265.776" y1="459.523" x2="45.4975" y2="295.75" gradientUnits="userSpaceOnUse">
<stop stop-color="#FFB000"/>
<stop offset="0.09" stop-color="#F7AB01"/>
<stop offset="0.22" stop-color="#E39E04"/>
<stop offset="0.38" stop-color="#C28909"/>
<stop offset="0.55" stop-color="#956B10"/>
<stop offset="0.75" stop-color="#5B4618"/>
<stop offset="0.9" stop-color="#272521"/>
</linearGradient>
<radialGradient id="paint9_radial_161_303" cx="0" cy="0" r="1" gradientUnits="userSpaceOnUse" gradientTransform="translate(166.679 401.258) rotate(-116.042) scale(12.476 16.8899)">
<stop stop-color="#C09032"/>
<stop offset="0.12" stop-color="#B88A31"/>
<stop offset="0.31" stop-color="#A27B2E"/>
<stop offset="0.55" stop-color="#7E622A"/>
<stop offset="0.81" stop-color="#4E4025"/>
<stop offset="1" stop-color="#272521"/>
</radialGradient>
<linearGradient id="paint10_linear_161_303" x1="34.314" y1="377.944" x2="-73.7111" y2="124.873" gradientUnits="userSpaceOnUse">
<stop stop-color="#FFB000"/>
<stop offset="0.09" stop-color="#F7AB01"/>
<stop offset="0.22" stop-color="#E39E04"/>
<stop offset="0.38" stop-color="#C28909"/>
<stop offset="0.55" stop-color="#956B10"/>
<stop offset="0.75" stop-color="#5B4618"/>
<stop offset="0.9" stop-color="#272521"/>
</linearGradient>
<linearGradient id="paint11_linear_161_303" x1="219.831" y1="275.44" x2="-11.7345" y2="120.853" gradientUnits="userSpaceOnUse">
<stop stop-color="#FFB000"/>
<stop offset="0.09" stop-color="#F7AB01"/>
<stop offset="0.22" stop-color="#E39E04"/>
<stop offset="0.38" stop-color="#C28909"/>
<stop offset="0.55" stop-color="#956B10"/>
<stop offset="0.75" stop-color="#5B4618"/>
<stop offset="0.9" stop-color="#272521"/>
</linearGradient>
<radialGradient id="paint12_radial_161_303" cx="0" cy="0" r="1" gradientUnits="userSpaceOnUse" gradientTransform="translate(121.823 220.593) rotate(-118.941) scale(12.4764 16.8893)">
<stop stop-color="#C09032"/>
<stop offset="0.12" stop-color="#B88A31"/>
<stop offset="0.31" stop-color="#A27B2E"/>
<stop offset="0.55" stop-color="#7E622A"/>
<stop offset="0.81" stop-color="#4E4025"/>
<stop offset="1" stop-color="#272521"/>
</radialGradient>
</defs>
</svg>
