<svg width="216" height="186" viewBox="0 0 216 186" fill="none" xmlns="http://www.w3.org/2000/svg">
<g clip-path="url(#clip0_228_98)">
<path d="M130.975 80.3304C133.647 78.5006 135.941 77.4435 140.535 75.3294C148.938 71.4583 180.218 57.0529 199.616 69.6722C205.062 73.2152 209.904 79.0984 208.622 82.0728C207.29 85.1565 200.227 83.1225 191.65 86.4541C184.878 89.0859 180.262 93.861 177.269 97.8341C180.946 96.9739 186.451 96.2521 192.713 97.681C206.933 100.932 217.236 113.515 215.467 116.621C214.163 118.903 207.173 114.601 195.108 116.431C189.101 117.343 184.347 119.384 181.208 121.031C186.822 122.854 195.443 126.543 203.11 134.343C209.423 140.751 216.712 151.584 214.01 154.923C211.549 157.971 201.552 153.801 193.346 150.374C184.66 146.751 178.034 142.654 173.723 139.702C173.862 145.249 174.866 152.882 179.053 160.515C183.196 168.075 187.871 170.925 186.829 172.828C185.213 175.802 170.833 174.454 162.648 165.552C153.43 155.528 156.671 140.926 157.093 139.147C152.862 141.488 148.101 145.155 146.397 150.783C144.234 157.942 148.37 163.883 145.275 166.806C142.836 169.11 137.332 168.206 134.222 166.026C127.029 160.996 127.349 145.417 133.873 126.98C130.065 128.168 124.852 130.509 122.165 135.444C118.553 142.1 121.553 149.777 119.238 150.724C117.403 151.475 113.5 147.466 111.112 143.339C101.217 126.244 110.005 94.6629 130.968 80.3231L130.975 80.3304Z" fill="url(#paint0_linear_228_98)"/>
<path d="M83.7926 99.4815C81.5646 97.1341 80.152 95.0345 77.3269 90.8354C72.1645 83.1515 52.9421 54.5522 62.2694 33.3597C64.8834 27.4109 69.9074 21.6809 73.0457 22.4682C76.3004 23.2847 75.4266 30.5967 80.0866 38.5357C83.7709 44.8053 89.2173 48.6034 93.6078 50.9144C92.1734 47.4224 90.5716 42.0933 90.9793 35.678C91.8968 21.1122 102.651 8.90851 106.001 10.1624C108.462 11.081 105.345 18.6773 109.081 30.3124C110.945 36.1081 113.719 40.4676 115.845 43.3108C116.74 37.4714 118.99 28.3587 125.449 19.5303C130.757 12.262 140.266 3.32424 143.994 5.45297C147.394 7.39944 144.89 17.941 142.829 26.609C140.652 35.7728 137.681 42.9827 135.46 47.714C140.914 46.6861 148.268 44.4626 155.127 39.1044C161.921 33.7971 163.974 28.7232 166.02 29.4376C169.209 30.5603 170.192 44.9802 162.729 54.5012C154.326 65.225 139.407 64.3648 137.594 64.2263C140.586 68.0317 144.962 72.1507 150.78 72.9234C158.185 73.9076 163.384 68.8701 166.755 71.4581C169.413 73.4994 169.406 79.0909 167.767 82.51C163.959 90.4271 148.552 92.6142 129.33 89.1222C131.113 92.6944 134.252 97.4694 139.56 99.3284C146.703 101.829 153.787 97.6298 155.091 99.7658C156.125 101.457 152.797 105.955 149.113 108.981C133.851 121.505 101.304 117.889 83.7999 99.4815L83.7926 99.4815Z" fill="url(#paint1_linear_228_98)"/>
<path d="M83.8437 41.4519L86.8217 43.5661C100.714 53.4515 111.906 66.4062 119.194 81.0375C124.924 92.5487 135.584 113.96 127.567 138.032C122.259 153.983 111.112 164.189 102.695 169.948L101.049 167.543C109.095 162.039 119.755 152.292 124.801 137.113C132.431 114.186 122.121 93.4745 116.58 82.3425C109.94 69.0088 100.379 57.5195 88.125 48.1589C90.0254 57.8767 91.9258 67.7038 93.7898 77.4216C102.025 120.434 102.789 126.827 102.491 135.48C101.923 151.942 97.1827 168.607 88.4088 185.032L85.8385 183.654C94.4013 167.63 99.0249 151.388 99.5783 135.378C99.8696 126.995 99.1051 120.689 90.9283 77.9684C88.8313 67.0258 86.6833 55.9448 84.55 45.046L83.8437 41.4592L83.8437 41.4519Z" fill="url(#paint2_linear_228_98)"/>
<path d="M78.7687 101.042C80.538 103.265 81.6083 105.212 83.749 109.112C87.6663 116.234 102.243 142.749 92.4646 160.58C89.7196 165.581 84.8921 170.211 82.2126 169.278C79.4311 168.308 80.7636 161.98 77.305 154.668C74.5746 148.894 70.1112 145.154 66.4487 142.785C67.4317 145.956 68.4219 150.739 67.57 156.323C65.6405 168.993 55.3084 178.842 52.4832 177.486C50.4081 176.488 53.7138 170.087 51.3474 159.618C50.1678 154.406 48.0781 150.367 46.4471 147.721C45.2166 152.758 42.5444 160.559 36.2315 167.79C31.0327 173.739 22.0403 180.825 18.9531 178.675C16.1352 176.706 19.1351 167.674 21.6035 160.252C24.2102 152.401 27.363 146.328 29.6639 142.355C24.8291 142.829 18.2323 144.207 11.8321 148.362C5.49739 152.481 3.31302 156.76 1.58008 155.973C-1.12126 154.741 -0.866414 142.049 6.38572 134.299C14.548 125.566 27.5086 127.476 29.0887 127.731C26.7732 124.173 23.2637 120.229 18.2469 119.099C11.854 117.663 6.93184 121.665 4.17953 119.143C2.017 117.153 2.4539 112.261 4.15044 109.396C8.08232 102.762 21.7055 102.048 38.2194 106.589C36.9379 103.323 34.5642 98.8983 30.079 96.8643C24.0355 94.1232 17.5261 97.2434 16.5504 95.2824C15.7786 93.7223 19.026 90.0407 22.4774 87.686C36.7705 77.9099 64.9125 83.5963 78.7687 101.063L78.7687 101.042Z" fill="url(#paint3_linear_228_98)"/>
<path d="M158.608 42.6184C166.428 52.256 164.309 69.9347 154.727 80.4835C144.431 91.8197 125.514 94.9181 115.408 87.0957C110.5 83.3048 108.585 77.6549 108.076 75.9053C105.396 66.7707 109.255 58.8609 110.449 56.4041C117.84 41.2333 138.257 31.4717 151.8 37.4059C155.564 39.0535 157.734 41.5468 158.608 42.6184V42.6184Z" fill="url(#paint4_linear_228_98)"/>
<path d="M153.329 45.4615C153.787 45.8698 154.486 46.4895 154.938 47.4153C155.382 48.3193 155.382 49.0847 155.338 49.4857C155.185 49.5513 154.166 49.9523 152.936 49.2889C152.375 48.99 151.989 48.5817 151.778 48.3339C151.763 48.6619 151.69 49.2305 151.319 49.7409C150.751 50.5355 149.848 50.6813 149.535 50.7104C149.164 50.3387 148.669 49.7846 148.225 49.0556C147.562 47.9621 147.329 47.0143 147.234 46.4749C146.95 46.5915 146.266 46.8102 145.305 46.5624C143.666 46.1395 142.611 44.7179 142.458 44.5065C142.669 44.1056 143.171 43.3401 144.213 42.8881C145.057 42.5163 145.895 42.5163 146.382 42.5455C145.436 41.9987 144.722 41.0656 144.555 40.1324C144.358 39.017 145.028 38.4265 145.13 38.3463C145.378 38.3536 146.564 38.4338 147.751 39.4326C148.603 40.1543 148.989 40.9635 149.127 41.277C149.339 41.0656 150.081 40.3949 151.436 40.4532C152.52 40.5042 153.416 40.9927 153.787 41.2187C153.875 41.6123 153.984 42.3705 153.736 43.1506C153.423 44.1493 152.71 44.6013 152.411 44.7617C152.644 44.9148 152.965 45.1481 153.314 45.4615L153.329 45.4615Z" fill="url(#paint5_radial_228_98)"/>
<path d="M49.5346 25.6177C61.0754 22.6506 75.8563 34.643 81.5939 47.7069C86.3922 58.6276 87.1276 75.4387 77.6328 82.0582C72.5723 85.5939 66.2012 85.1055 64.279 84.9597C54.5221 84.2161 48.202 77.7789 46.2361 75.7741C34.1201 63.4172 31.7319 40.7594 42.1441 30.1522C43.3018 28.9712 45.6901 26.6019 49.5346 25.6177Z" fill="url(#paint6_linear_228_98)"/>
<path d="M50.4593 31.5883C51.0127 31.304 51.8573 30.8665 52.8985 30.7718C53.9252 30.677 54.6679 30.954 55.0392 31.129C55.0465 31.2967 55.0829 32.3902 54.0198 33.316C53.532 33.7389 53.0077 33.9576 52.6946 34.0669C53.0004 34.1981 53.532 34.4679 53.896 35.0001C54.4713 35.8239 54.2965 36.7205 54.2164 37.0194C53.7286 37.2381 53.0223 37.5006 52.1631 37.6537C50.8816 37.887 49.8768 37.7703 49.3234 37.661C49.338 37.9745 49.3088 38.6889 48.7409 39.5054C47.7652 40.8905 46.025 41.379 45.7702 41.4446C45.4571 41.1019 44.8891 40.3583 44.809 39.2211C44.7435 38.2952 45.0275 37.5079 45.2313 37.0559C44.3794 37.7558 43.229 38.0838 42.2679 37.9088C41.1174 37.6974 40.7825 36.8518 40.7388 36.7278C40.8335 36.5018 41.3213 35.4083 42.6975 34.6574C43.6877 34.118 44.6052 34.0378 44.9619 34.0232C44.8309 33.7462 44.4377 32.8057 44.962 31.5591C45.3843 30.5604 46.1706 29.8897 46.5129 29.6199C46.9206 29.6783 47.6924 29.8459 48.3623 30.3562C49.2215 31.0051 49.4108 31.8361 49.4618 32.1715C49.6948 32.0111 50.0297 31.7924 50.452 31.5737L50.4593 31.5883Z" fill="url(#paint7_radial_228_98)"/>
<path d="M101.595 0.378995C113.187 3.14197 120.68 20.6457 119.675 34.8833C118.83 46.7809 111.658 61.9955 100.176 63.4316C94.052 64.1971 88.6421 60.7926 87.0111 59.7647C78.725 54.5522 76.1329 45.9061 75.3247 43.216C70.3589 26.6309 78.7979 5.46753 92.9454 0.94034C94.5254 0.437318 97.7291 -0.546857 101.595 0.378995V0.378995Z" fill="url(#paint8_linear_228_98)"/>
<path d="M99.6369 6.10179C100.263 6.10179 101.202 6.11636 102.178 6.52461C103.132 6.91828 103.656 7.50879 103.904 7.84414C103.831 7.99723 103.358 8.98141 101.981 9.30217C101.355 9.44798 100.787 9.39694 100.46 9.34591C100.671 9.60107 101.013 10.0895 101.093 10.731C101.217 11.7225 100.642 12.4369 100.438 12.6702C99.9063 12.6338 99.1563 12.539 98.319 12.2766C97.0739 11.8829 96.2438 11.3143 95.7997 10.957C95.6686 11.2413 95.3045 11.861 94.4308 12.313C92.9236 13.0858 91.1542 12.6994 90.8994 12.6411C90.7829 12.1891 90.6227 11.2705 91.0814 10.2207C91.4528 9.37507 92.0717 8.80643 92.4649 8.50754C91.3872 8.72624 90.2077 8.48566 89.4431 7.88058C88.5257 7.15885 88.6204 6.25488 88.6349 6.12366C88.8242 5.96328 89.7635 5.22696 91.329 5.20509C92.4576 5.19051 93.3022 5.54774 93.6226 5.70083C93.6371 5.39464 93.7245 4.38131 94.773 3.52107C95.6104 2.83579 96.6152 2.60979 97.0448 2.5296C97.3797 2.77747 97.984 3.28049 98.3408 4.04596C98.7995 5.02284 98.5811 5.83934 98.4646 6.1674C98.7413 6.13095 99.1418 6.0945 99.6223 6.10179L99.6369 6.10179Z" fill="url(#paint9_radial_228_98)"/>
<path d="M161.221 91.2072C169.85 99.4378 167.52 118.334 159.488 130.129C152.775 139.986 138.926 149.514 128.288 144.965C123.293 142.829 120.65 138.426 118.757 135.16C118.044 133.928 110.893 121.104 116.384 107.224C122.449 91.8924 140.485 83.9972 153.467 87.3288C155.455 87.8391 158.52 88.6191 161.229 91.2072L161.221 91.2072Z" fill="url(#paint10_linear_228_98)"/>
<path d="M156.656 95.1585C157.195 95.4792 158.003 95.9604 158.637 96.7987C159.263 97.6225 159.423 98.3953 159.467 98.8035C159.328 98.8983 158.418 99.5107 157.071 99.0951C156.46 98.9056 155.994 98.5775 155.739 98.3661C155.79 98.6942 155.841 99.2847 155.586 99.8825C155.193 100.808 154.341 101.129 154.042 101.224C153.598 100.925 153.001 100.466 152.411 99.8169C151.53 98.8473 151.101 97.936 150.897 97.4111C150.642 97.5861 150.016 97.9433 149.033 97.8923C147.343 97.7975 146.004 96.58 145.814 96.3978C145.938 95.9531 146.266 95.0783 147.191 94.4003C147.94 93.8535 148.756 93.6786 149.244 93.6129C148.203 93.2557 147.307 92.4538 146.95 91.5498C146.521 90.4636 147.059 89.7346 147.14 89.6252C147.38 89.5888 148.567 89.4211 149.928 90.1866C150.911 90.7406 151.465 91.4769 151.661 91.7685C151.829 91.5061 152.411 90.6823 153.751 90.4636C154.821 90.2886 155.804 90.6021 156.212 90.7552C156.379 91.1343 156.649 91.8779 156.569 92.7162C156.474 93.7879 155.87 94.3857 155.615 94.6117C155.877 94.721 156.234 94.8887 156.649 95.1366L156.656 95.1585Z" fill="url(#paint11_radial_228_98)"/>
<path d="M81.3025 80.5344C95.6684 82.2185 109.539 100.48 106.801 117.991C104.916 130.02 95.0931 142.384 83.0717 143.572C76.5113 144.221 71.1451 141.371 69.7325 140.576C61.1916 135.794 58.1699 127.286 57.2233 124.64C51.4275 108.325 58.7816 86.7602 72.6888 81.5259C76.3877 80.1335 79.6788 80.3376 81.3025 80.5271L81.3025 80.5344Z" fill="url(#paint12_linear_228_98)"/>
<path d="M79.6278 86.3448C80.254 86.3229 81.1933 86.2792 82.1836 86.6364C83.1592 86.9863 83.7126 87.5477 83.9747 87.8611C83.9092 88.0142 83.4869 89.0276 82.1326 89.414C81.5137 89.5889 80.9457 89.5671 80.6181 89.5379C80.8438 89.7858 81.2079 90.2523 81.3171 90.8939C81.4918 91.878 80.953 92.6216 80.7564 92.8622C80.2249 92.8549 79.4676 92.7966 78.623 92.5779C77.3634 92.2498 76.5042 91.7176 76.0455 91.3896C75.929 91.6812 75.6013 92.3227 74.7421 92.8112C73.2786 93.6568 71.4874 93.3652 71.2325 93.3215C71.0942 92.8768 70.8903 91.9655 71.2908 90.9011C71.6185 90.0336 72.2082 89.4431 72.5796 89.1151C71.5092 89.3848 70.3297 89.2025 69.5287 88.6412C68.5749 87.9632 68.6259 87.0592 68.6332 86.928C68.8152 86.7603 69.7108 85.9803 71.2762 85.8709C72.3976 85.798 73.264 86.1115 73.5917 86.25C73.5917 85.9438 73.6281 84.9305 74.6329 84.0119C75.4338 83.2829 76.4314 83.0059 76.8537 82.9111C77.2032 83.1371 77.8294 83.611 78.2226 84.3619C78.725 85.3169 78.5502 86.1407 78.4556 86.476C78.7322 86.425 79.1254 86.374 79.606 86.3521L79.6278 86.3448Z" fill="url(#paint13_radial_228_98)"/>
</g>
<defs>
<linearGradient id="paint0_linear_228_98" x1="264.248" y1="195.216" x2="96.7792" y2="62.2723" gradientUnits="userSpaceOnUse">
<stop stop-color="#8CC63F"/>
<stop offset="0.1" stop-color="#88C03D"/>
<stop offset="0.22" stop-color="#7EB238"/>
<stop offset="0.35" stop-color="#6C9930"/>
<stop offset="0.49" stop-color="#547726"/>
<stop offset="0.64" stop-color="#354C18"/>
<stop offset="0.78" stop-color="#101707"/>
<stop offset="0.84"/>
</linearGradient>
<linearGradient id="paint1_linear_228_98" x1="175.672" y1="-50.5685" x2="71.0871" y2="136.035" gradientUnits="userSpaceOnUse">
<stop stop-color="#8CC63F"/>
<stop offset="0.1" stop-color="#88C03D"/>
<stop offset="0.22" stop-color="#7EB238"/>
<stop offset="0.35" stop-color="#6C9930"/>
<stop offset="0.49" stop-color="#547726"/>
<stop offset="0.64" stop-color="#354C18"/>
<stop offset="0.78" stop-color="#101707"/>
<stop offset="0.84"/>
</linearGradient>
<linearGradient id="paint2_linear_228_98" x1="130.444" y1="113.238" x2="83.8436" y2="113.238" gradientUnits="userSpaceOnUse">
<stop stop-color="#934800"/>
<stop offset="0.12" stop-color="#8D4500"/>
<stop offset="0.26" stop-color="#7F3E00"/>
<stop offset="0.42" stop-color="#663200"/>
<stop offset="0.58" stop-color="#452100"/>
<stop offset="0.75" stop-color="#190C00"/>
<stop offset="0.84"/>
</linearGradient>
<linearGradient id="paint3_linear_228_98" x1="-13.0918" y1="225.23" x2="92.6995" y2="70.2664" gradientUnits="userSpaceOnUse">
<stop stop-color="#8CC63F"/>
<stop offset="0.1" stop-color="#88C03D"/>
<stop offset="0.22" stop-color="#7EB238"/>
<stop offset="0.35" stop-color="#6C9930"/>
<stop offset="0.49" stop-color="#547726"/>
<stop offset="0.64" stop-color="#354C18"/>
<stop offset="0.78" stop-color="#101707"/>
<stop offset="0.84"/>
</linearGradient>
<linearGradient id="paint4_linear_228_98" x1="151.407" y1="9.10552" x2="118.209" y2="121.965" gradientUnits="userSpaceOnUse">
<stop stop-color="#FFB000"/>
<stop offset="0.09" stop-color="#F7AB01"/>
<stop offset="0.22" stop-color="#E39E04"/>
<stop offset="0.38" stop-color="#C28909"/>
<stop offset="0.55" stop-color="#956B10"/>
<stop offset="0.75" stop-color="#5B4618"/>
<stop offset="0.9" stop-color="#272521"/>
</linearGradient>
<radialGradient id="paint5_radial_228_98" cx="0" cy="0" r="1" gradientUnits="userSpaceOnUse" gradientTransform="translate(150.51 45.1266) rotate(134.585) scale(5.34652 7.27463)">
<stop stop-color="#C09032"/>
<stop offset="0.12" stop-color="#B88A31"/>
<stop offset="0.31" stop-color="#A27B2E"/>
<stop offset="0.55" stop-color="#7E622A"/>
<stop offset="0.81" stop-color="#4E4025"/>
<stop offset="1" stop-color="#272521"/>
</radialGradient>
<linearGradient id="paint6_linear_228_98" x1="14.1748" y1="21.7103" x2="110.189" y2="92.8849" gradientUnits="userSpaceOnUse">
<stop stop-color="#FFB000"/>
<stop offset="0.09" stop-color="#F7AB01"/>
<stop offset="0.22" stop-color="#E39E04"/>
<stop offset="0.38" stop-color="#C28909"/>
<stop offset="0.55" stop-color="#956B10"/>
<stop offset="0.75" stop-color="#5B4618"/>
<stop offset="0.9" stop-color="#272521"/>
</linearGradient>
<radialGradient id="paint7_radial_228_98" cx="0" cy="0" r="1" gradientUnits="userSpaceOnUse" gradientTransform="translate(57.8873 47.7296) rotate(63.9578) scale(5.43616 7.35959)">
<stop stop-color="#C09032"/>
<stop offset="0.12" stop-color="#B88A31"/>
<stop offset="0.31" stop-color="#A27B2E"/>
<stop offset="0.55" stop-color="#7E622A"/>
<stop offset="0.81" stop-color="#4E4025"/>
<stop offset="1" stop-color="#272521"/>
</radialGradient>
<linearGradient id="paint8_linear_228_98" x1="72.1415" y1="-19.598" x2="123.92" y2="88.2037" gradientUnits="userSpaceOnUse">
<stop stop-color="#FFB000"/>
<stop offset="0.09" stop-color="#F7AB01"/>
<stop offset="0.22" stop-color="#E39E04"/>
<stop offset="0.38" stop-color="#C28909"/>
<stop offset="0.55" stop-color="#956B10"/>
<stop offset="0.75" stop-color="#5B4618"/>
<stop offset="0.9" stop-color="#272521"/>
</linearGradient>
<radialGradient id="paint9_radial_228_98" cx="0" cy="0" r="1" gradientUnits="userSpaceOnUse" gradientTransform="translate(98.5279 22.9689) rotate(91.708) scale(5.43744 7.35785)">
<stop stop-color="#C09032"/>
<stop offset="0.12" stop-color="#B88A31"/>
<stop offset="0.31" stop-color="#A27B2E"/>
<stop offset="0.55" stop-color="#7E622A"/>
<stop offset="0.81" stop-color="#4E4025"/>
<stop offset="1" stop-color="#272521"/>
</radialGradient>
<linearGradient id="paint10_linear_228_98" x1="144.83" y1="58.7948" x2="135.204" y2="178.336" gradientUnits="userSpaceOnUse">
<stop stop-color="#FFB000"/>
<stop offset="0.09" stop-color="#F7AB01"/>
<stop offset="0.22" stop-color="#E39E04"/>
<stop offset="0.38" stop-color="#C28909"/>
<stop offset="0.55" stop-color="#956B10"/>
<stop offset="0.75" stop-color="#5B4618"/>
<stop offset="0.9" stop-color="#272521"/>
</linearGradient>
<radialGradient id="paint11_radial_228_98" cx="0" cy="0" r="1" gradientUnits="userSpaceOnUse" gradientTransform="translate(148.4 106.335) rotate(121.909) scale(5.43559 7.36036)">
<stop stop-color="#C09032"/>
<stop offset="0.12" stop-color="#B88A31"/>
<stop offset="0.31" stop-color="#A27B2E"/>
<stop offset="0.55" stop-color="#7E622A"/>
<stop offset="0.81" stop-color="#4E4025"/>
<stop offset="1" stop-color="#272521"/>
</radialGradient>
<linearGradient id="paint12_linear_228_98" x1="52.5132" y1="60.7374" x2="110.503" y2="167.28" gradientUnits="userSpaceOnUse">
<stop stop-color="#FFB000"/>
<stop offset="0.09" stop-color="#F7AB01"/>
<stop offset="0.22" stop-color="#E39E04"/>
<stop offset="0.38" stop-color="#C28909"/>
<stop offset="0.55" stop-color="#956B10"/>
<stop offset="0.75" stop-color="#5B4618"/>
<stop offset="0.9" stop-color="#272521"/>
</linearGradient>
<radialGradient id="paint13_radial_228_98" cx="0" cy="0" r="1" gradientUnits="userSpaceOnUse" gradientTransform="translate(79.1731 101.765) rotate(88.8115) scale(5.43744 7.35785)">
<stop stop-color="#C09032"/>
<stop offset="0.12" stop-color="#B88A31"/>
<stop offset="0.31" stop-color="#A27B2E"/>
<stop offset="0.55" stop-color="#7E622A"/>
<stop offset="0.81" stop-color="#4E4025"/>
<stop offset="1" stop-color="#272521"/>
</radialGradient>
<clipPath id="clip0_228_98">
<rect width="215.663" height="185.024" fill="white" transform="matrix(-1 -8.74228e-08 1.63369e-06 -1 215.663 185.024)"/>
</clipPath>
</defs>
</svg>
